%TF.GenerationSoftware,KiCad,Pcbnew,9.0.9-9.0.9~ubuntu24.04.1*%
%TF.CreationDate,2026-10-06T04:13:59+09:00*%
%TF.ProjectId,sticks3-piezo-hat,73746963-6b73-4332-9d70-69657a6f2d68,rev?*%
%TF.SameCoordinates,Original*%
%TF.FileFunction,Copper,L2,Inr*%
%TF.FilePolarity,Positive*%
%FSLAX46Y46*%
G04 Gerber Fmt 4.6, Leading zero omitted, Abs format (unit mm)*
G04 Created by KiCad (PCBNEW 9.0.9-9.0.9~ubuntu24.04.1) date 2026-10-06 04:13:59*
%MOMM*%
%LPD*%
G01*
G04 APERTURE LIST*
%TA.AperFunction,ComponentPad*%
%ADD10C,1.800000*%
%TD*%
%TA.AperFunction,ComponentPad*%
%ADD11R,1.700000X1.700000*%
%TD*%
%TA.AperFunction,ComponentPad*%
%ADD12C,1.700000*%
%TD*%
%TA.AperFunction,ViaPad*%
%ADD13C,0.400000*%
%TD*%
G04 APERTURE END LIST*
D10*
%TO.N,PZ4*%
%TO.C,J4*%
X14300000Y36400000D03*
%TO.N,GND*%
X14300000Y33900000D03*
%TD*%
%TO.N,PZ2*%
%TO.C,J2*%
X6700000Y36400000D03*
%TO.N,GND*%
X6700000Y33900000D03*
%TD*%
%TO.N,PZ5*%
%TO.C,J5*%
X18100000Y36400000D03*
%TO.N,GND*%
X18100000Y33900000D03*
%TD*%
%TO.N,PZ3*%
%TO.C,J3*%
X10500000Y36400000D03*
%TO.N,GND*%
X10500000Y33900000D03*
%TD*%
%TO.N,PZ1*%
%TO.C,J1*%
X2900000Y36400000D03*
%TO.N,GND*%
X2900000Y33900000D03*
%TD*%
D11*
%TO.N,GND*%
%TO.C,J6*%
X19390000Y4900000D03*
D12*
%TO.N,SCL*%
X19390000Y2360000D03*
%TO.N,5V_HAT*%
X16850000Y4900000D03*
%TO.N,SDA*%
X16850000Y2360000D03*
%TO.N,N/C*%
X14310000Y4900000D03*
%TO.N,WS_HAT*%
X14310000Y2360000D03*
%TO.N,MCLK_HAT*%
X11770000Y4900000D03*
%TO.N,BCLK_HAT*%
X11770000Y2360000D03*
%TO.N,TDM_HAT*%
X9230000Y4900000D03*
%TO.N,N/C*%
X9230000Y2360000D03*
X6690000Y4900000D03*
X6690000Y2360000D03*
X4150000Y4900000D03*
X4150000Y2360000D03*
X1610000Y4900000D03*
X1610000Y2360000D03*
%TD*%
D13*
%TO.N,GND*%
X11725000Y10525000D03*
X4800000Y18600000D03*
X15450000Y16075000D03*
X20225000Y8200000D03*
X17700000Y24500000D03*
X11200000Y12075000D03*
X13325000Y9550000D03*
X2998400Y7855700D03*
X18225000Y8300000D03*
X6925000Y16675000D03*
X6575000Y18700000D03*
X18900000Y13500000D03*
X15800000Y7775000D03*
%TO.N,VMID*%
X15669200Y21898800D03*
X19875000Y28910100D03*
X4024300Y26281300D03*
X8055000Y27647000D03*
X12023000Y27850900D03*
%TO.N,3V3A*%
X4321800Y27650600D03*
X7900000Y14025000D03*
X8150000Y12900000D03*
X15418400Y6016200D03*
X2491300Y25700700D03*
X9250500Y9655000D03*
X4237500Y9356700D03*
X9300000Y13600000D03*
%TO.N,HI2*%
X4939200Y27652300D03*
X6700000Y28416900D03*
X3701300Y22835400D03*
%TO.N,HI3*%
X7550000Y24100000D03*
X9874500Y30341000D03*
X9005000Y27685200D03*
%TO.N,HI4*%
X13669500Y30332300D03*
X7564500Y25865400D03*
X12945000Y27651200D03*
%TO.N,BUF3*%
X6977000Y22774000D03*
X8514800Y20274800D03*
%TO.N,BUF4*%
X6867000Y25736600D03*
X14115400Y22978100D03*
%TO.N,BUF1*%
X4316200Y25741600D03*
X1034700Y23259800D03*
%TO.N,VDIV*%
X17925000Y24000000D03*
X17156300Y25482100D03*
X11951800Y25063100D03*
X13190700Y23320400D03*
%TO.N,BUF5*%
X16558600Y20368700D03*
X14462500Y25526800D03*
%TO.N,AIN1P*%
X2777400Y16992200D03*
X7117000Y10267200D03*
%TO.N,AIN1N*%
X8025000Y9250000D03*
X1275000Y19450000D03*
%TO.N,LP2B*%
X6818000Y21563000D03*
X7252300Y17511500D03*
%TO.N,AIN2P*%
X8925000Y17325000D03*
X8375000Y12050000D03*
%TO.N,AIN2N*%
X7900000Y12350000D03*
X5400000Y19175000D03*
%TO.N,AIN3P*%
X4000000Y15200000D03*
X11129000Y16170000D03*
%TO.N,AIN3N*%
X9021100Y17946100D03*
X3334400Y14362800D03*
%TO.N,LP4A*%
X14000000Y21350000D03*
X10850000Y20225000D03*
%TO.N,LP4B*%
X13675000Y22300000D03*
X12850000Y16950000D03*
%TO.N,AIN4P*%
X5400000Y15203900D03*
X10550200Y16088900D03*
%TO.N,AIN4N*%
X6750000Y22200000D03*
X12675000Y19125000D03*
X6000000Y15250000D03*
%TO.N,LP5A*%
X15845100Y18317900D03*
X19674600Y19769800D03*
%TO.N,LP5B*%
X19293800Y18408700D03*
X17516200Y22610800D03*
%TO.N,AIN5P*%
X19583200Y19175000D03*
X18100000Y10050000D03*
%TO.N,AIN5N*%
X17775000Y19325000D03*
X16400000Y9250000D03*
%TO.N,SDA*%
X3172100Y5885700D03*
X2375000Y13100000D03*
X7775800Y22939100D03*
X5175000Y7200000D03*
X1275000Y9325000D03*
X13100000Y13250000D03*
X14250000Y19050000D03*
X800000Y16950000D03*
%TO.N,SCL*%
X9825000Y21575000D03*
X11650000Y12550000D03*
X13095200Y12647100D03*
X2225000Y12600000D03*
X2032000Y6136700D03*
X10500000Y13350000D03*
%TO.N,MCLK*%
X13076900Y11896800D03*
X2725000Y12300000D03*
X5000000Y20375000D03*
X11775000Y17875000D03*
X1100000Y16475000D03*
X1139400Y15326500D03*
%TO.N,3V3D*%
X2534700Y9547500D03*
X11966400Y7536400D03*
X12215000Y22688900D03*
X9866100Y24708500D03*
X13325800Y14349400D03*
%TO.N,BCLK*%
X13796300Y9947900D03*
X16375200Y7667500D03*
X3345900Y10550000D03*
%TO.N,WS*%
X14235900Y9537300D03*
X8200000Y5900000D03*
X19576400Y7116400D03*
X3813200Y9790600D03*
X11675000Y6325000D03*
%TO.N,CASCADE*%
X11218800Y13423000D03*
X5253200Y9457200D03*
%TO.N,INT3*%
X5700000Y9800000D03*
X7775000Y10250000D03*
%TO.N,U3_REFQ12*%
X8225000Y11550000D03*
X8975000Y12275000D03*
%TO.N,U3_REFQM*%
X5750000Y16550000D03*
X8975000Y16525000D03*
X7257400Y14929700D03*
%TO.N,U3_REFP34*%
X2825000Y15475000D03*
%TO.N,U3_REFQ34*%
X8075000Y19025000D03*
X4600000Y15175000D03*
X4338300Y19012800D03*
%TO.N,TDM_OUT*%
X11974700Y14235300D03*
X14814700Y9502100D03*
%TO.N,CASCADE_IN*%
X11655300Y14870100D03*
X12267000Y9271300D03*
%TO.N,U4_REFP12*%
X17425000Y8275000D03*
X19400000Y11350000D03*
%TO.N,U4_REFQ12*%
X18275000Y11500000D03*
X19575000Y11925000D03*
%TO.N,AIN6P*%
X17075000Y16650000D03*
X15700000Y20200000D03*
X13475000Y22875000D03*
X19025000Y11750000D03*
X7800000Y23650000D03*
%TO.N,AIN6N*%
X17043900Y22126500D03*
X18525000Y14025000D03*
X18515200Y12300000D03*
%TO.N,U4_MICBIAS34*%
X16800000Y15475000D03*
X16825000Y17875000D03*
%TO.N,AIN8N*%
X9117400Y24920000D03*
X15905700Y16548100D03*
X16400000Y14975000D03*
%TO.N,AIN8P*%
X17900000Y25350000D03*
X16000000Y15575000D03*
%TO.N,U4_REFP34*%
X15412800Y15393200D03*
X13652500Y15495300D03*
%TO.N,AIN7P*%
X19625000Y29800000D03*
X14250000Y15200000D03*
%TO.N,AIN7N*%
X13900000Y6025000D03*
X14925000Y7950000D03*
X16000000Y9800000D03*
X13933200Y14650300D03*
X19950000Y23200000D03*
X15550000Y27875000D03*
X2401400Y23710000D03*
%TO.N,5V_HAT*%
X13065200Y3998300D03*
%TO.N,MCLK_HAT*%
X744100Y9730700D03*
%TO.N,TDM_HAT*%
X9933400Y15458200D03*
%TD*%
%TA.AperFunction,Conductor*%
%TO.N,GND*%
G36*
X2226456Y37479815D02*
G01*
X2272211Y37427011D01*
X2282155Y37357853D01*
X2253130Y37294297D01*
X2232305Y37275185D01*
X2183072Y37239414D01*
X2183070Y37239412D01*
X2183069Y37239412D01*
X2060588Y37116931D01*
X2060588Y37116930D01*
X2060586Y37116928D01*
X2053604Y37107318D01*
X1958768Y36976789D01*
X1880128Y36822448D01*
X1826597Y36657698D01*
X1799500Y36486611D01*
X1799500Y36313389D01*
X1826598Y36142299D01*
X1880127Y35977555D01*
X1958768Y35823212D01*
X2060586Y35683072D01*
X2183072Y35560586D01*
X2323212Y35458768D01*
X2477555Y35380127D01*
X2642299Y35326598D01*
X2813389Y35299500D01*
X2813390Y35299500D01*
X2986610Y35299500D01*
X2986611Y35299500D01*
X3157701Y35326598D01*
X3322445Y35380127D01*
X3476788Y35458768D01*
X3616928Y35560586D01*
X3739414Y35683072D01*
X3841232Y35823212D01*
X3919873Y35977555D01*
X3973402Y36142299D01*
X4000500Y36313389D01*
X4000500Y36486611D01*
X3973402Y36657701D01*
X3919873Y36822445D01*
X3841232Y36976788D01*
X3739414Y37116928D01*
X3616928Y37239414D01*
X3567696Y37275184D01*
X3525032Y37330512D01*
X3519053Y37400126D01*
X3551659Y37461921D01*
X3612498Y37496278D01*
X3640583Y37499500D01*
X5959417Y37499500D01*
X6026456Y37479815D01*
X6072211Y37427011D01*
X6082155Y37357853D01*
X6053130Y37294297D01*
X6032305Y37275185D01*
X5983072Y37239414D01*
X5983070Y37239412D01*
X5983069Y37239412D01*
X5860588Y37116931D01*
X5860588Y37116930D01*
X5860586Y37116928D01*
X5853604Y37107318D01*
X5758768Y36976789D01*
X5680128Y36822448D01*
X5626597Y36657698D01*
X5599500Y36486611D01*
X5599500Y36313389D01*
X5626598Y36142299D01*
X5680127Y35977555D01*
X5758768Y35823212D01*
X5860586Y35683072D01*
X5983072Y35560586D01*
X6123212Y35458768D01*
X6277555Y35380127D01*
X6442299Y35326598D01*
X6613389Y35299500D01*
X6613390Y35299500D01*
X6786610Y35299500D01*
X6786611Y35299500D01*
X6957701Y35326598D01*
X7122445Y35380127D01*
X7276788Y35458768D01*
X7416928Y35560586D01*
X7539414Y35683072D01*
X7641232Y35823212D01*
X7719873Y35977555D01*
X7773402Y36142299D01*
X7800500Y36313389D01*
X7800500Y36486611D01*
X7773402Y36657701D01*
X7719873Y36822445D01*
X7641232Y36976788D01*
X7539414Y37116928D01*
X7416928Y37239414D01*
X7367696Y37275184D01*
X7325032Y37330512D01*
X7319053Y37400126D01*
X7351659Y37461921D01*
X7412498Y37496278D01*
X7440583Y37499500D01*
X9759417Y37499500D01*
X9826456Y37479815D01*
X9872211Y37427011D01*
X9882155Y37357853D01*
X9853130Y37294297D01*
X9832305Y37275185D01*
X9783072Y37239414D01*
X9783070Y37239412D01*
X9783069Y37239412D01*
X9660588Y37116931D01*
X9660588Y37116930D01*
X9660586Y37116928D01*
X9653604Y37107318D01*
X9558768Y36976789D01*
X9480128Y36822448D01*
X9426597Y36657698D01*
X9399500Y36486611D01*
X9399500Y36313389D01*
X9426598Y36142299D01*
X9480127Y35977555D01*
X9558768Y35823212D01*
X9660586Y35683072D01*
X9783072Y35560586D01*
X9923212Y35458768D01*
X10077555Y35380127D01*
X10242299Y35326598D01*
X10413389Y35299500D01*
X10413390Y35299500D01*
X10586610Y35299500D01*
X10586611Y35299500D01*
X10757701Y35326598D01*
X10922445Y35380127D01*
X11076788Y35458768D01*
X11216928Y35560586D01*
X11339414Y35683072D01*
X11441232Y35823212D01*
X11519873Y35977555D01*
X11573402Y36142299D01*
X11600500Y36313389D01*
X11600500Y36486611D01*
X11573402Y36657701D01*
X11519873Y36822445D01*
X11441232Y36976788D01*
X11339414Y37116928D01*
X11216928Y37239414D01*
X11167696Y37275184D01*
X11125032Y37330512D01*
X11119053Y37400126D01*
X11151659Y37461921D01*
X11212498Y37496278D01*
X11240583Y37499500D01*
X13559417Y37499500D01*
X13626456Y37479815D01*
X13672211Y37427011D01*
X13682155Y37357853D01*
X13653130Y37294297D01*
X13632305Y37275185D01*
X13583072Y37239414D01*
X13583070Y37239412D01*
X13583069Y37239412D01*
X13460588Y37116931D01*
X13460588Y37116930D01*
X13460586Y37116928D01*
X13453604Y37107318D01*
X13358768Y36976789D01*
X13280128Y36822448D01*
X13226597Y36657698D01*
X13199500Y36486611D01*
X13199500Y36313389D01*
X13226598Y36142299D01*
X13280127Y35977555D01*
X13358768Y35823212D01*
X13460586Y35683072D01*
X13583072Y35560586D01*
X13723212Y35458768D01*
X13877555Y35380127D01*
X14042299Y35326598D01*
X14213389Y35299500D01*
X14213390Y35299500D01*
X14386610Y35299500D01*
X14386611Y35299500D01*
X14557701Y35326598D01*
X14722445Y35380127D01*
X14876788Y35458768D01*
X15016928Y35560586D01*
X15139414Y35683072D01*
X15241232Y35823212D01*
X15319873Y35977555D01*
X15373402Y36142299D01*
X15400500Y36313389D01*
X15400500Y36486611D01*
X15373402Y36657701D01*
X15319873Y36822445D01*
X15241232Y36976788D01*
X15139414Y37116928D01*
X15016928Y37239414D01*
X14967696Y37275184D01*
X14925032Y37330512D01*
X14919053Y37400126D01*
X14951659Y37461921D01*
X15012498Y37496278D01*
X15040583Y37499500D01*
X17359417Y37499500D01*
X17426456Y37479815D01*
X17472211Y37427011D01*
X17482155Y37357853D01*
X17453130Y37294297D01*
X17432305Y37275185D01*
X17383072Y37239414D01*
X17383070Y37239412D01*
X17383069Y37239412D01*
X17260588Y37116931D01*
X17260588Y37116930D01*
X17260586Y37116928D01*
X17253604Y37107318D01*
X17158768Y36976789D01*
X17080128Y36822448D01*
X17026597Y36657698D01*
X16999500Y36486611D01*
X16999500Y36313389D01*
X17026598Y36142299D01*
X17080127Y35977555D01*
X17158768Y35823212D01*
X17260586Y35683072D01*
X17383072Y35560586D01*
X17523212Y35458768D01*
X17677555Y35380127D01*
X17842299Y35326598D01*
X18013389Y35299500D01*
X18013390Y35299500D01*
X18186610Y35299500D01*
X18186611Y35299500D01*
X18357701Y35326598D01*
X18522445Y35380127D01*
X18676788Y35458768D01*
X18816928Y35560586D01*
X18939414Y35683072D01*
X19041232Y35823212D01*
X19119873Y35977555D01*
X19173402Y36142299D01*
X19200500Y36313389D01*
X19200500Y36486611D01*
X19173402Y36657701D01*
X19119873Y36822445D01*
X19041232Y36976788D01*
X18939414Y37116928D01*
X18816928Y37239414D01*
X18767696Y37275184D01*
X18725032Y37330512D01*
X18719053Y37400126D01*
X18751659Y37461921D01*
X18812498Y37496278D01*
X18840583Y37499500D01*
X19934107Y37499500D01*
X19993038Y37499500D01*
X20006922Y37498720D01*
X20097266Y37488541D01*
X20124331Y37482364D01*
X20203540Y37454648D01*
X20228551Y37442603D01*
X20299606Y37397957D01*
X20321313Y37380645D01*
X20380644Y37321314D01*
X20397957Y37299605D01*
X20442600Y37228556D01*
X20454648Y37203538D01*
X20482362Y37124334D01*
X20488540Y37097265D01*
X20498720Y37006924D01*
X20499500Y36993039D01*
X20499500Y29068721D01*
X20479815Y29001682D01*
X20427011Y28955927D01*
X20357853Y28945983D01*
X20294297Y28975008D01*
X20256523Y29033786D01*
X20255725Y29036628D01*
X20248207Y29064687D01*
X20195480Y29156013D01*
X20120913Y29230580D01*
X20029589Y29283306D01*
X20029588Y29283307D01*
X19957151Y29302716D01*
X19897491Y29339082D01*
X19866962Y29401929D01*
X19875257Y29471304D01*
X19901562Y29510170D01*
X19945480Y29554087D01*
X19998207Y29645413D01*
X20025500Y29747273D01*
X20025500Y29852727D01*
X19998207Y29954587D01*
X19945480Y30045913D01*
X19870913Y30120480D01*
X19779587Y30173207D01*
X19677727Y30200500D01*
X19572273Y30200500D01*
X19470413Y30173207D01*
X19470410Y30173206D01*
X19379085Y30120479D01*
X19304521Y30045915D01*
X19251794Y29954590D01*
X19251793Y29954587D01*
X19224500Y29852727D01*
X19224500Y29747273D01*
X19251793Y29645413D01*
X19304520Y29554087D01*
X19379087Y29479520D01*
X19470413Y29426793D01*
X19542848Y29407385D01*
X19602508Y29371020D01*
X19633037Y29308173D01*
X19624742Y29238798D01*
X19598436Y29199930D01*
X19554521Y29156015D01*
X19501794Y29064690D01*
X19501793Y29064687D01*
X19474500Y28962827D01*
X19474500Y28857373D01*
X19501793Y28755513D01*
X19554520Y28664187D01*
X19629087Y28589620D01*
X19720413Y28536893D01*
X19822273Y28509600D01*
X19822275Y28509600D01*
X19927725Y28509600D01*
X19927727Y28509600D01*
X20029587Y28536893D01*
X20120913Y28589620D01*
X20195480Y28664187D01*
X20248207Y28755513D01*
X20255726Y28783575D01*
X20292089Y28843233D01*
X20354936Y28873763D01*
X20424312Y28865469D01*
X20478190Y28820984D01*
X20499465Y28754432D01*
X20499500Y28751480D01*
X20499500Y23512012D01*
X20479815Y23444973D01*
X20427011Y23399218D01*
X20357853Y23389274D01*
X20294297Y23418299D01*
X20276278Y23440122D01*
X20275426Y23439467D01*
X20270480Y23445913D01*
X20195914Y23520479D01*
X20195913Y23520480D01*
X20104587Y23573207D01*
X20002727Y23600500D01*
X19897273Y23600500D01*
X19795413Y23573207D01*
X19795410Y23573206D01*
X19704085Y23520479D01*
X19629521Y23445915D01*
X19576794Y23354590D01*
X19576793Y23354587D01*
X19549500Y23252727D01*
X19549500Y23147273D01*
X19576793Y23045413D01*
X19629520Y22954087D01*
X19704087Y22879520D01*
X19795413Y22826793D01*
X19897273Y22799500D01*
X19897275Y22799500D01*
X20002725Y22799500D01*
X20002727Y22799500D01*
X20104587Y22826793D01*
X20195913Y22879520D01*
X20270480Y22954087D01*
X20270482Y22954092D01*
X20275426Y22960533D01*
X20277502Y22958940D01*
X20318668Y22998199D01*
X20387274Y23011429D01*
X20452142Y22985468D01*
X20492676Y22928558D01*
X20499500Y22887989D01*
X20499500Y2999140D01*
X20479815Y2932101D01*
X20427011Y2886346D01*
X20357853Y2876402D01*
X20294297Y2905427D01*
X20272398Y2930249D01*
X20205977Y3029656D01*
X20059657Y3175976D01*
X19973626Y3233459D01*
X19887598Y3290941D01*
X19696420Y3370130D01*
X19696412Y3370132D01*
X19493469Y3410500D01*
X19493465Y3410500D01*
X19286535Y3410500D01*
X19286530Y3410500D01*
X19083587Y3370132D01*
X19083579Y3370130D01*
X18892403Y3290942D01*
X18720342Y3175976D01*
X18574024Y3029658D01*
X18459058Y2857597D01*
X18379870Y2666421D01*
X18379868Y2666413D01*
X18339500Y2463470D01*
X18339500Y2256531D01*
X18379868Y2053588D01*
X18379870Y2053580D01*
X18459059Y1862402D01*
X18491995Y1813110D01*
X18574024Y1690343D01*
X18720342Y1544025D01*
X18720345Y1544023D01*
X18892402Y1429059D01*
X19083580Y1349870D01*
X19286530Y1309501D01*
X19286534Y1309500D01*
X19286535Y1309500D01*
X19493466Y1309500D01*
X19493467Y1309501D01*
X19696420Y1349870D01*
X19887598Y1429059D01*
X20059655Y1544023D01*
X20205977Y1690345D01*
X20272398Y1789752D01*
X20326009Y1834557D01*
X20395334Y1843264D01*
X20458362Y1813110D01*
X20495082Y1753667D01*
X20499500Y1720861D01*
X20499500Y1006963D01*
X20498720Y993078D01*
X20488540Y902735D01*
X20482362Y875669D01*
X20454646Y796462D01*
X20442601Y771449D01*
X20397956Y700397D01*
X20380643Y678688D01*
X20321312Y619357D01*
X20299603Y602044D01*
X20228551Y557399D01*
X20203538Y545354D01*
X20124331Y517638D01*
X20097265Y511460D01*
X20023263Y503122D01*
X20006920Y501280D01*
X19993037Y500500D01*
X1006962Y500500D01*
X993078Y501280D01*
X980553Y502692D01*
X902735Y511460D01*
X875666Y517638D01*
X796462Y545352D01*
X771444Y557400D01*
X700395Y602043D01*
X678686Y619356D01*
X619355Y678687D01*
X602042Y700396D01*
X602041Y700397D01*
X557397Y771449D01*
X545351Y796463D01*
X517637Y875667D01*
X511459Y902734D01*
X501280Y993078D01*
X500500Y1006962D01*
X500500Y1720861D01*
X520185Y1787900D01*
X572989Y1833655D01*
X642147Y1843599D01*
X705703Y1814574D01*
X727600Y1789754D01*
X751713Y1753667D01*
X794024Y1690343D01*
X940342Y1544025D01*
X940345Y1544023D01*
X1112402Y1429059D01*
X1303580Y1349870D01*
X1506530Y1309501D01*
X1506534Y1309500D01*
X1506535Y1309500D01*
X1713466Y1309500D01*
X1713467Y1309501D01*
X1916420Y1349870D01*
X2107598Y1429059D01*
X2279655Y1544023D01*
X2425977Y1690345D01*
X2540941Y1862402D01*
X2620130Y2053580D01*
X2660500Y2256535D01*
X2660500Y2463465D01*
X2660499Y2463470D01*
X3099500Y2463470D01*
X3099500Y2256531D01*
X3139868Y2053588D01*
X3139870Y2053580D01*
X3219059Y1862402D01*
X3251995Y1813110D01*
X3334024Y1690343D01*
X3480342Y1544025D01*
X3480345Y1544023D01*
X3652402Y1429059D01*
X3843580Y1349870D01*
X4046530Y1309501D01*
X4046534Y1309500D01*
X4046535Y1309500D01*
X4253466Y1309500D01*
X4253467Y1309501D01*
X4456420Y1349870D01*
X4647598Y1429059D01*
X4819655Y1544023D01*
X4965977Y1690345D01*
X5080941Y1862402D01*
X5160130Y2053580D01*
X5200500Y2256535D01*
X5200500Y2463465D01*
X5200499Y2463470D01*
X5639500Y2463470D01*
X5639500Y2256531D01*
X5679868Y2053588D01*
X5679870Y2053580D01*
X5759059Y1862402D01*
X5791995Y1813110D01*
X5874024Y1690343D01*
X6020342Y1544025D01*
X6020345Y1544023D01*
X6192402Y1429059D01*
X6383580Y1349870D01*
X6586530Y1309501D01*
X6586534Y1309500D01*
X6586535Y1309500D01*
X6793466Y1309500D01*
X6793467Y1309501D01*
X6996420Y1349870D01*
X7187598Y1429059D01*
X7359655Y1544023D01*
X7505977Y1690345D01*
X7620941Y1862402D01*
X7700130Y2053580D01*
X7740500Y2256535D01*
X7740500Y2463465D01*
X7740499Y2463470D01*
X8179500Y2463470D01*
X8179500Y2256531D01*
X8219868Y2053588D01*
X8219870Y2053580D01*
X8299059Y1862402D01*
X8331995Y1813110D01*
X8414024Y1690343D01*
X8560342Y1544025D01*
X8560345Y1544023D01*
X8732402Y1429059D01*
X8923580Y1349870D01*
X9126530Y1309501D01*
X9126534Y1309500D01*
X9126535Y1309500D01*
X9333466Y1309500D01*
X9333467Y1309501D01*
X9536420Y1349870D01*
X9727598Y1429059D01*
X9899655Y1544023D01*
X10045977Y1690345D01*
X10160941Y1862402D01*
X10240130Y2053580D01*
X10280500Y2256535D01*
X10280500Y2463465D01*
X10280499Y2463470D01*
X10719500Y2463470D01*
X10719500Y2256531D01*
X10759868Y2053588D01*
X10759870Y2053580D01*
X10839059Y1862402D01*
X10871995Y1813110D01*
X10954024Y1690343D01*
X11100342Y1544025D01*
X11100345Y1544023D01*
X11272402Y1429059D01*
X11463580Y1349870D01*
X11666530Y1309501D01*
X11666534Y1309500D01*
X11666535Y1309500D01*
X11873466Y1309500D01*
X11873467Y1309501D01*
X12076420Y1349870D01*
X12267598Y1429059D01*
X12439655Y1544023D01*
X12585977Y1690345D01*
X12700941Y1862402D01*
X12780130Y2053580D01*
X12820500Y2256535D01*
X12820500Y2463465D01*
X12820499Y2463470D01*
X13259500Y2463470D01*
X13259500Y2256531D01*
X13299868Y2053588D01*
X13299870Y2053580D01*
X13379059Y1862402D01*
X13411995Y1813110D01*
X13494024Y1690343D01*
X13640342Y1544025D01*
X13640345Y1544023D01*
X13812402Y1429059D01*
X14003580Y1349870D01*
X14206530Y1309501D01*
X14206534Y1309500D01*
X14206535Y1309500D01*
X14413466Y1309500D01*
X14413467Y1309501D01*
X14616420Y1349870D01*
X14807598Y1429059D01*
X14979655Y1544023D01*
X15125977Y1690345D01*
X15240941Y1862402D01*
X15320130Y2053580D01*
X15360500Y2256535D01*
X15360500Y2463465D01*
X15360499Y2463470D01*
X15799500Y2463470D01*
X15799500Y2256531D01*
X15839868Y2053588D01*
X15839870Y2053580D01*
X15919059Y1862402D01*
X15951995Y1813110D01*
X16034024Y1690343D01*
X16180342Y1544025D01*
X16180345Y1544023D01*
X16352402Y1429059D01*
X16543580Y1349870D01*
X16746530Y1309501D01*
X16746534Y1309500D01*
X16746535Y1309500D01*
X16953466Y1309500D01*
X16953467Y1309501D01*
X17156420Y1349870D01*
X17347598Y1429059D01*
X17519655Y1544023D01*
X17665977Y1690345D01*
X17780941Y1862402D01*
X17860130Y2053580D01*
X17900500Y2256535D01*
X17900500Y2463465D01*
X17860130Y2666420D01*
X17780941Y2857598D01*
X17665977Y3029655D01*
X17665976Y3029656D01*
X17665975Y3029658D01*
X17519657Y3175976D01*
X17433626Y3233459D01*
X17347598Y3290941D01*
X17156420Y3370130D01*
X17156412Y3370132D01*
X16953469Y3410500D01*
X16953465Y3410500D01*
X16746535Y3410500D01*
X16746530Y3410500D01*
X16543587Y3370132D01*
X16543579Y3370130D01*
X16352403Y3290942D01*
X16180342Y3175976D01*
X16034024Y3029658D01*
X15919058Y2857597D01*
X15839870Y2666421D01*
X15839868Y2666413D01*
X15799500Y2463470D01*
X15360499Y2463470D01*
X15320130Y2666420D01*
X15240941Y2857598D01*
X15125977Y3029655D01*
X15125976Y3029656D01*
X15125975Y3029658D01*
X14979657Y3175976D01*
X14893626Y3233459D01*
X14807598Y3290941D01*
X14616420Y3370130D01*
X14616412Y3370132D01*
X14413469Y3410500D01*
X14413465Y3410500D01*
X14206535Y3410500D01*
X14206530Y3410500D01*
X14003587Y3370132D01*
X14003579Y3370130D01*
X13812403Y3290942D01*
X13640342Y3175976D01*
X13494024Y3029658D01*
X13379058Y2857597D01*
X13299870Y2666421D01*
X13299868Y2666413D01*
X13259500Y2463470D01*
X12820499Y2463470D01*
X12780130Y2666420D01*
X12700941Y2857598D01*
X12585977Y3029655D01*
X12585976Y3029656D01*
X12585975Y3029658D01*
X12439657Y3175976D01*
X12353626Y3233459D01*
X12267598Y3290941D01*
X12076420Y3370130D01*
X12076412Y3370132D01*
X11873469Y3410500D01*
X11873465Y3410500D01*
X11666535Y3410500D01*
X11666530Y3410500D01*
X11463587Y3370132D01*
X11463579Y3370130D01*
X11272403Y3290942D01*
X11100342Y3175976D01*
X10954024Y3029658D01*
X10839058Y2857597D01*
X10759870Y2666421D01*
X10759868Y2666413D01*
X10719500Y2463470D01*
X10280499Y2463470D01*
X10240130Y2666420D01*
X10160941Y2857598D01*
X10045977Y3029655D01*
X10045976Y3029656D01*
X10045975Y3029658D01*
X9899657Y3175976D01*
X9813626Y3233459D01*
X9727598Y3290941D01*
X9536420Y3370130D01*
X9536412Y3370132D01*
X9333469Y3410500D01*
X9333465Y3410500D01*
X9126535Y3410500D01*
X9126530Y3410500D01*
X8923587Y3370132D01*
X8923579Y3370130D01*
X8732403Y3290942D01*
X8560342Y3175976D01*
X8414024Y3029658D01*
X8299058Y2857597D01*
X8219870Y2666421D01*
X8219868Y2666413D01*
X8179500Y2463470D01*
X7740499Y2463470D01*
X7700130Y2666420D01*
X7620941Y2857598D01*
X7505977Y3029655D01*
X7505976Y3029656D01*
X7505975Y3029658D01*
X7359657Y3175976D01*
X7273626Y3233459D01*
X7187598Y3290941D01*
X6996420Y3370130D01*
X6996412Y3370132D01*
X6793469Y3410500D01*
X6793465Y3410500D01*
X6586535Y3410500D01*
X6586530Y3410500D01*
X6383587Y3370132D01*
X6383579Y3370130D01*
X6192403Y3290942D01*
X6020342Y3175976D01*
X5874024Y3029658D01*
X5759058Y2857597D01*
X5679870Y2666421D01*
X5679868Y2666413D01*
X5639500Y2463470D01*
X5200499Y2463470D01*
X5160130Y2666420D01*
X5080941Y2857598D01*
X4965977Y3029655D01*
X4965976Y3029656D01*
X4965975Y3029658D01*
X4819657Y3175976D01*
X4733626Y3233459D01*
X4647598Y3290941D01*
X4456420Y3370130D01*
X4456412Y3370132D01*
X4253469Y3410500D01*
X4253465Y3410500D01*
X4046535Y3410500D01*
X4046530Y3410500D01*
X3843587Y3370132D01*
X3843579Y3370130D01*
X3652403Y3290942D01*
X3480342Y3175976D01*
X3334024Y3029658D01*
X3219058Y2857597D01*
X3139870Y2666421D01*
X3139868Y2666413D01*
X3099500Y2463470D01*
X2660499Y2463470D01*
X2620130Y2666420D01*
X2540941Y2857598D01*
X2425977Y3029655D01*
X2425976Y3029656D01*
X2425975Y3029658D01*
X2279657Y3175976D01*
X2193626Y3233459D01*
X2107598Y3290941D01*
X1916420Y3370130D01*
X1916412Y3370132D01*
X1713469Y3410500D01*
X1713465Y3410500D01*
X1506535Y3410500D01*
X1506530Y3410500D01*
X1303587Y3370132D01*
X1303579Y3370130D01*
X1112403Y3290942D01*
X940342Y3175976D01*
X794022Y3029656D01*
X727602Y2930249D01*
X673990Y2885444D01*
X604665Y2876737D01*
X541638Y2906891D01*
X504918Y2966334D01*
X500500Y2999140D01*
X500500Y4260861D01*
X520185Y4327900D01*
X572989Y4373655D01*
X642147Y4383599D01*
X705703Y4354574D01*
X727600Y4329754D01*
X734933Y4318780D01*
X794024Y4230343D01*
X940342Y4084025D01*
X940345Y4084023D01*
X1112402Y3969059D01*
X1303580Y3889870D01*
X1506530Y3849501D01*
X1506534Y3849500D01*
X1506535Y3849500D01*
X1713466Y3849500D01*
X1713467Y3849501D01*
X1916420Y3889870D01*
X2107598Y3969059D01*
X2279655Y4084023D01*
X2425977Y4230345D01*
X2540941Y4402402D01*
X2620130Y4593580D01*
X2660500Y4796535D01*
X2660500Y5003465D01*
X2620130Y5206420D01*
X2540941Y5397598D01*
X2425977Y5569655D01*
X2425976Y5569656D01*
X2425975Y5569658D01*
X2316344Y5679289D01*
X2282859Y5740612D01*
X2287843Y5810304D01*
X2300932Y5835874D01*
X2307713Y5846021D01*
X2352480Y5890787D01*
X2379985Y5938427D01*
X2771600Y5938427D01*
X2771600Y5832973D01*
X2798893Y5731113D01*
X2851620Y5639787D01*
X2926187Y5565220D01*
X3017513Y5512493D01*
X3105185Y5489002D01*
X3164843Y5452639D01*
X3195373Y5389792D01*
X3187651Y5321776D01*
X3139871Y5206425D01*
X3139868Y5206413D01*
X3099500Y5003470D01*
X3099500Y4796531D01*
X3139868Y4593588D01*
X3139870Y4593580D01*
X3185888Y4482482D01*
X3219059Y4402402D01*
X3267603Y4329751D01*
X3334024Y4230343D01*
X3480342Y4084025D01*
X3480345Y4084023D01*
X3652402Y3969059D01*
X3843580Y3889870D01*
X4046530Y3849501D01*
X4046534Y3849500D01*
X4046535Y3849500D01*
X4253466Y3849500D01*
X4253467Y3849501D01*
X4456420Y3889870D01*
X4647598Y3969059D01*
X4819655Y4084023D01*
X4965977Y4230345D01*
X5080941Y4402402D01*
X5160130Y4593580D01*
X5200500Y4796535D01*
X5200500Y5003465D01*
X5200499Y5003470D01*
X5639500Y5003470D01*
X5639500Y4796531D01*
X5679868Y4593588D01*
X5679870Y4593580D01*
X5725888Y4482482D01*
X5759059Y4402402D01*
X5807603Y4329751D01*
X5874024Y4230343D01*
X6020342Y4084025D01*
X6020345Y4084023D01*
X6192402Y3969059D01*
X6383580Y3889870D01*
X6586530Y3849501D01*
X6586534Y3849500D01*
X6586535Y3849500D01*
X6793466Y3849500D01*
X6793467Y3849501D01*
X6996420Y3889870D01*
X7187598Y3969059D01*
X7359655Y4084023D01*
X7505977Y4230345D01*
X7620941Y4402402D01*
X7700130Y4593580D01*
X7740500Y4796535D01*
X7740500Y5003465D01*
X7700130Y5206420D01*
X7620941Y5397598D01*
X7505977Y5569655D01*
X7505976Y5569656D01*
X7505975Y5569658D01*
X7359657Y5715976D01*
X7187595Y5830943D01*
X7150536Y5846293D01*
X6996420Y5910130D01*
X6996412Y5910132D01*
X6793469Y5950500D01*
X6793465Y5950500D01*
X6586535Y5950500D01*
X6586530Y5950500D01*
X6383587Y5910132D01*
X6383579Y5910130D01*
X6192403Y5830942D01*
X6020342Y5715976D01*
X5874024Y5569658D01*
X5759058Y5397597D01*
X5679870Y5206421D01*
X5679868Y5206413D01*
X5639500Y5003470D01*
X5200499Y5003470D01*
X5160130Y5206420D01*
X5080941Y5397598D01*
X4965977Y5569655D01*
X4965976Y5569656D01*
X4965975Y5569658D01*
X4819657Y5715976D01*
X4733626Y5773459D01*
X4647598Y5830941D01*
X4647593Y5830943D01*
X4456420Y5910130D01*
X4456412Y5910132D01*
X4253469Y5950500D01*
X4253465Y5950500D01*
X4046535Y5950500D01*
X4046530Y5950500D01*
X3843587Y5910132D01*
X3843575Y5910129D01*
X3737126Y5866036D01*
X3667657Y5858567D01*
X3605178Y5889842D01*
X3569900Y5948502D01*
X3568768Y5952727D01*
X7799500Y5952727D01*
X7799500Y5847273D01*
X7820129Y5770286D01*
X7826793Y5745414D01*
X7826794Y5745411D01*
X7835049Y5731113D01*
X7879520Y5654087D01*
X7954087Y5579520D01*
X8045413Y5526793D01*
X8147273Y5499500D01*
X8147275Y5499500D01*
X8155689Y5499500D01*
X8222728Y5479815D01*
X8268483Y5427011D01*
X8278427Y5357853D01*
X8270250Y5328047D01*
X8219870Y5206421D01*
X8219868Y5206413D01*
X8179500Y5003470D01*
X8179500Y4796531D01*
X8219868Y4593588D01*
X8219870Y4593580D01*
X8265888Y4482482D01*
X8299059Y4402402D01*
X8347603Y4329751D01*
X8414024Y4230343D01*
X8560342Y4084025D01*
X8560345Y4084023D01*
X8732402Y3969059D01*
X8923580Y3889870D01*
X9126530Y3849501D01*
X9126534Y3849500D01*
X9126535Y3849500D01*
X9333466Y3849500D01*
X9333467Y3849501D01*
X9536420Y3889870D01*
X9727598Y3969059D01*
X9899655Y4084023D01*
X10045977Y4230345D01*
X10160941Y4402402D01*
X10240130Y4593580D01*
X10280500Y4796535D01*
X10280500Y5003465D01*
X10280499Y5003470D01*
X10719500Y5003470D01*
X10719500Y4796531D01*
X10759868Y4593588D01*
X10759870Y4593580D01*
X10805888Y4482482D01*
X10839059Y4402402D01*
X10887603Y4329751D01*
X10954024Y4230343D01*
X11100342Y4084025D01*
X11100345Y4084023D01*
X11272402Y3969059D01*
X11463580Y3889870D01*
X11666530Y3849501D01*
X11666534Y3849500D01*
X11666535Y3849500D01*
X11873466Y3849500D01*
X11873467Y3849501D01*
X12076420Y3889870D01*
X12267598Y3969059D01*
X12439655Y4084023D01*
X12439658Y4084026D01*
X12453019Y4097386D01*
X12514342Y4130871D01*
X12584034Y4125887D01*
X12639967Y4084015D01*
X12664384Y4018551D01*
X12664700Y4009705D01*
X12664700Y3945573D01*
X12691993Y3843713D01*
X12744720Y3752387D01*
X12819287Y3677820D01*
X12910613Y3625093D01*
X13012473Y3597800D01*
X13012475Y3597800D01*
X13117925Y3597800D01*
X13117927Y3597800D01*
X13219787Y3625093D01*
X13311113Y3677820D01*
X13385680Y3752387D01*
X13438407Y3843713D01*
X13465700Y3945573D01*
X13465700Y3968730D01*
X13485385Y4035769D01*
X13538189Y4081524D01*
X13607347Y4091468D01*
X13658589Y4071833D01*
X13812402Y3969059D01*
X14003580Y3889870D01*
X14206530Y3849501D01*
X14206534Y3849500D01*
X14206535Y3849500D01*
X14413466Y3849500D01*
X14413467Y3849501D01*
X14616420Y3889870D01*
X14807598Y3969059D01*
X14979655Y4084023D01*
X15125977Y4230345D01*
X15240941Y4402402D01*
X15320130Y4593580D01*
X15360500Y4796535D01*
X15360500Y5003465D01*
X15360499Y5003470D01*
X15799500Y5003470D01*
X15799500Y4796531D01*
X15839868Y4593588D01*
X15839870Y4593580D01*
X15885888Y4482482D01*
X15919059Y4402402D01*
X15967603Y4329751D01*
X16034024Y4230343D01*
X16180342Y4084025D01*
X16180345Y4084023D01*
X16352402Y3969059D01*
X16543580Y3889870D01*
X16746530Y3849501D01*
X16746534Y3849500D01*
X16746535Y3849500D01*
X16953466Y3849500D01*
X16953467Y3849501D01*
X17156420Y3889870D01*
X17347598Y3969059D01*
X17519655Y4084023D01*
X17665977Y4230345D01*
X17780941Y4402402D01*
X17860130Y4593580D01*
X17900500Y4796535D01*
X17900500Y5003465D01*
X17860130Y5206420D01*
X17780941Y5397598D01*
X17665977Y5569655D01*
X17665976Y5569656D01*
X17665975Y5569658D01*
X17519657Y5715976D01*
X17433626Y5773459D01*
X17347598Y5830941D01*
X17347593Y5830943D01*
X17156420Y5910130D01*
X17156412Y5910132D01*
X16953469Y5950500D01*
X16953465Y5950500D01*
X16746535Y5950500D01*
X16746530Y5950500D01*
X16543587Y5910132D01*
X16543579Y5910130D01*
X16352403Y5830942D01*
X16180342Y5715976D01*
X16034024Y5569658D01*
X15919058Y5397597D01*
X15839870Y5206421D01*
X15839868Y5206413D01*
X15799500Y5003470D01*
X15360499Y5003470D01*
X15320130Y5206420D01*
X15257404Y5357853D01*
X15240941Y5397599D01*
X15219265Y5430038D01*
X15198386Y5496715D01*
X15216870Y5564096D01*
X15268848Y5610786D01*
X15337818Y5621963D01*
X15354458Y5618705D01*
X15365673Y5615700D01*
X15365675Y5615700D01*
X15471125Y5615700D01*
X15471127Y5615700D01*
X15572987Y5642993D01*
X15664313Y5695720D01*
X15738880Y5770287D01*
X15791607Y5861613D01*
X15818900Y5963473D01*
X15818900Y6068927D01*
X15791607Y6170787D01*
X15738880Y6262113D01*
X15664313Y6336680D01*
X15572987Y6389407D01*
X15471127Y6416700D01*
X15365673Y6416700D01*
X15263813Y6389407D01*
X15263810Y6389406D01*
X15172485Y6336679D01*
X15097921Y6262115D01*
X15045194Y6170790D01*
X15045193Y6170787D01*
X15017900Y6068927D01*
X15017900Y5963469D01*
X15021749Y5949106D01*
X15020085Y5879256D01*
X14980922Y5821395D01*
X14916693Y5793892D01*
X14847791Y5805480D01*
X14833085Y5813912D01*
X14807598Y5830941D01*
X14616420Y5910130D01*
X14616412Y5910132D01*
X14413466Y5950501D01*
X14412333Y5950612D01*
X14411778Y5950836D01*
X14407490Y5951689D01*
X14407651Y5952503D01*
X14347549Y5976780D01*
X14307196Y6033818D01*
X14300500Y6074014D01*
X14300500Y6077725D01*
X14300500Y6077727D01*
X14273207Y6179587D01*
X14220480Y6270913D01*
X14145913Y6345480D01*
X14054587Y6398207D01*
X13952727Y6425500D01*
X13847273Y6425500D01*
X13745413Y6398207D01*
X13745410Y6398206D01*
X13654085Y6345479D01*
X13579521Y6270915D01*
X13526794Y6179590D01*
X13526793Y6179587D01*
X13499500Y6077727D01*
X13499500Y5972273D01*
X13526793Y5870413D01*
X13577310Y5782915D01*
X13593782Y5715019D01*
X13570930Y5648992D01*
X13557604Y5633237D01*
X13494023Y5569656D01*
X13379058Y5397597D01*
X13299870Y5206421D01*
X13299868Y5206413D01*
X13259500Y5003470D01*
X13259500Y4796531D01*
X13299868Y4593588D01*
X13299870Y4593580D01*
X13317113Y4551952D01*
X13324582Y4482482D01*
X13293307Y4420003D01*
X13233218Y4384351D01*
X13170459Y4384724D01*
X13117927Y4398800D01*
X13012473Y4398800D01*
X13012471Y4398800D01*
X12903247Y4369534D01*
X12833398Y4371197D01*
X12775535Y4410360D01*
X12748032Y4474589D01*
X12756595Y4536763D01*
X12780128Y4593575D01*
X12780128Y4593576D01*
X12780130Y4593580D01*
X12820500Y4796535D01*
X12820500Y5003465D01*
X12780130Y5206420D01*
X12700941Y5397598D01*
X12585977Y5569655D01*
X12585976Y5569656D01*
X12585975Y5569658D01*
X12439657Y5715976D01*
X12353626Y5773459D01*
X12267598Y5830941D01*
X12267594Y5830943D01*
X12076418Y5910131D01*
X12074034Y5910854D01*
X12072939Y5911572D01*
X12070792Y5912461D01*
X12070960Y5912869D01*
X12015598Y5949157D01*
X11987147Y6012971D01*
X11997713Y6082037D01*
X12002642Y6091493D01*
X12048207Y6170413D01*
X12075500Y6272273D01*
X12075500Y6377727D01*
X12048207Y6479587D01*
X11995480Y6570913D01*
X11920913Y6645480D01*
X11829587Y6698207D01*
X11727727Y6725500D01*
X11622273Y6725500D01*
X11520413Y6698207D01*
X11520410Y6698206D01*
X11429085Y6645479D01*
X11354521Y6570915D01*
X11301794Y6479590D01*
X11301793Y6479587D01*
X11274500Y6377727D01*
X11274500Y6272273D01*
X11301793Y6170413D01*
X11351698Y6083974D01*
X11354521Y6079086D01*
X11374709Y6058898D01*
X11408194Y5997575D01*
X11403210Y5927883D01*
X11361338Y5871950D01*
X11334482Y5856656D01*
X11272402Y5830942D01*
X11100342Y5715976D01*
X10954024Y5569658D01*
X10839058Y5397597D01*
X10759870Y5206421D01*
X10759868Y5206413D01*
X10719500Y5003470D01*
X10280499Y5003470D01*
X10240130Y5206420D01*
X10160941Y5397598D01*
X10045977Y5569655D01*
X10045976Y5569656D01*
X10045975Y5569658D01*
X9899657Y5715976D01*
X9813626Y5773459D01*
X9727598Y5830941D01*
X9727593Y5830943D01*
X9536420Y5910130D01*
X9536412Y5910132D01*
X9333469Y5950500D01*
X9333465Y5950500D01*
X9126535Y5950500D01*
X9126530Y5950500D01*
X8923587Y5910132D01*
X8923575Y5910129D01*
X8771823Y5847271D01*
X8702354Y5839802D01*
X8639875Y5871077D01*
X8604223Y5931166D01*
X8601432Y5945646D01*
X8600500Y5952720D01*
X8600500Y5952727D01*
X8573207Y6054587D01*
X8520480Y6145913D01*
X8445913Y6220480D01*
X8373799Y6262115D01*
X8354589Y6273206D01*
X8354588Y6273207D01*
X8354587Y6273207D01*
X8252727Y6300500D01*
X8147273Y6300500D01*
X8045413Y6273207D01*
X8045410Y6273206D01*
X7954085Y6220479D01*
X7879521Y6145915D01*
X7826794Y6054590D01*
X7826793Y6054587D01*
X7799500Y5952727D01*
X3568768Y5952727D01*
X3545307Y6040287D01*
X3492580Y6131613D01*
X3418013Y6206180D01*
X3326687Y6258907D01*
X3224827Y6286200D01*
X3119373Y6286200D01*
X3017513Y6258907D01*
X3017510Y6258906D01*
X2926185Y6206179D01*
X2851621Y6131615D01*
X2798894Y6040290D01*
X2798893Y6040287D01*
X2771600Y5938427D01*
X2379985Y5938427D01*
X2405207Y5982113D01*
X2432500Y6083973D01*
X2432500Y6189427D01*
X2405207Y6291287D01*
X2352480Y6382613D01*
X2277913Y6457180D01*
X2186587Y6509907D01*
X2084727Y6537200D01*
X1979273Y6537200D01*
X1877413Y6509907D01*
X1877410Y6509906D01*
X1786085Y6457179D01*
X1711521Y6382615D01*
X1658794Y6291290D01*
X1658793Y6291287D01*
X1631500Y6189427D01*
X1631500Y6075846D01*
X1628305Y6075846D01*
X1619843Y6021633D01*
X1573455Y5969384D01*
X1512517Y5951890D01*
X1512596Y5951097D01*
X1508273Y5950672D01*
X1507677Y5950500D01*
X1506530Y5950500D01*
X1303587Y5910132D01*
X1303579Y5910130D01*
X1112403Y5830942D01*
X940342Y5715976D01*
X794022Y5569656D01*
X727602Y5470249D01*
X673990Y5425444D01*
X604665Y5416737D01*
X541638Y5446891D01*
X504918Y5506334D01*
X500500Y5539140D01*
X500500Y7252727D01*
X4774500Y7252727D01*
X4774500Y7147273D01*
X4801793Y7045413D01*
X4854520Y6954087D01*
X4929087Y6879520D01*
X5020413Y6826793D01*
X5122273Y6799500D01*
X5122275Y6799500D01*
X5227725Y6799500D01*
X5227727Y6799500D01*
X5329587Y6826793D01*
X5420913Y6879520D01*
X5495480Y6954087D01*
X5548207Y7045413D01*
X5575500Y7147273D01*
X5575500Y7252727D01*
X5548207Y7354587D01*
X5495480Y7445913D01*
X5420913Y7520480D01*
X5329587Y7573207D01*
X5270172Y7589127D01*
X11565900Y7589127D01*
X11565900Y7483673D01*
X11593193Y7381813D01*
X11645920Y7290487D01*
X11720487Y7215920D01*
X11811813Y7163193D01*
X11913673Y7135900D01*
X11913675Y7135900D01*
X12019125Y7135900D01*
X12019127Y7135900D01*
X12120987Y7163193D01*
X12131265Y7169127D01*
X19175900Y7169127D01*
X19175900Y7063673D01*
X19180794Y7045411D01*
X19203193Y6961814D01*
X19203194Y6961811D01*
X19207654Y6954086D01*
X19255920Y6870487D01*
X19330487Y6795920D01*
X19421813Y6743193D01*
X19523673Y6715900D01*
X19523675Y6715900D01*
X19629125Y6715900D01*
X19629127Y6715900D01*
X19730987Y6743193D01*
X19822313Y6795920D01*
X19896880Y6870487D01*
X19949607Y6961813D01*
X19976900Y7063673D01*
X19976900Y7169127D01*
X19949607Y7270987D01*
X19896880Y7362313D01*
X19822313Y7436880D01*
X19730987Y7489607D01*
X19629127Y7516900D01*
X19523673Y7516900D01*
X19421813Y7489607D01*
X19421810Y7489606D01*
X19330485Y7436879D01*
X19255921Y7362315D01*
X19203194Y7270990D01*
X19203193Y7270987D01*
X19175900Y7169127D01*
X12131265Y7169127D01*
X12212313Y7215920D01*
X12286880Y7290487D01*
X12339607Y7381813D01*
X12366900Y7483673D01*
X12366900Y7589127D01*
X12339607Y7690987D01*
X12286880Y7782313D01*
X12212313Y7856880D01*
X12131619Y7903469D01*
X12120989Y7909606D01*
X12120988Y7909607D01*
X12120987Y7909607D01*
X12019127Y7936900D01*
X11913673Y7936900D01*
X11811813Y7909607D01*
X11811810Y7909606D01*
X11720485Y7856879D01*
X11645921Y7782315D01*
X11593194Y7690990D01*
X11593193Y7690987D01*
X11565900Y7589127D01*
X5270172Y7589127D01*
X5227727Y7600500D01*
X5122273Y7600500D01*
X5020413Y7573207D01*
X5020410Y7573206D01*
X4929085Y7520479D01*
X4854521Y7445915D01*
X4801794Y7354590D01*
X4801793Y7354587D01*
X4774500Y7252727D01*
X500500Y7252727D01*
X500500Y8002727D01*
X14524500Y8002727D01*
X14524500Y7897273D01*
X14551793Y7795413D01*
X14604520Y7704087D01*
X14679087Y7629520D01*
X14770413Y7576793D01*
X14872273Y7549500D01*
X14872275Y7549500D01*
X14977725Y7549500D01*
X14977727Y7549500D01*
X15079587Y7576793D01*
X15170913Y7629520D01*
X15245480Y7704087D01*
X15254798Y7720227D01*
X15974700Y7720227D01*
X15974700Y7614773D01*
X16001993Y7512913D01*
X16054720Y7421587D01*
X16129287Y7347020D01*
X16220613Y7294293D01*
X16322473Y7267000D01*
X16322475Y7267000D01*
X16427925Y7267000D01*
X16427927Y7267000D01*
X16529787Y7294293D01*
X16621113Y7347020D01*
X16695680Y7421587D01*
X16748407Y7512913D01*
X16775700Y7614773D01*
X16775700Y7720227D01*
X16748407Y7822087D01*
X16695680Y7913413D01*
X16621113Y7987980D01*
X16549915Y8029086D01*
X16529789Y8040706D01*
X16529788Y8040707D01*
X16529787Y8040707D01*
X16427927Y8068000D01*
X16322473Y8068000D01*
X16220613Y8040707D01*
X16220610Y8040706D01*
X16129285Y7987979D01*
X16054721Y7913415D01*
X16001994Y7822090D01*
X16001993Y7822087D01*
X15974700Y7720227D01*
X15254798Y7720227D01*
X15298207Y7795413D01*
X15325500Y7897273D01*
X15325500Y8002727D01*
X15298207Y8104587D01*
X15245480Y8195913D01*
X15170913Y8270480D01*
X15079587Y8323207D01*
X15062718Y8327727D01*
X17024500Y8327727D01*
X17024500Y8222273D01*
X17051793Y8120413D01*
X17104520Y8029087D01*
X17179087Y7954520D01*
X17270413Y7901793D01*
X17372273Y7874500D01*
X17372275Y7874500D01*
X17477725Y7874500D01*
X17477727Y7874500D01*
X17579587Y7901793D01*
X17670913Y7954520D01*
X17745480Y8029087D01*
X17798207Y8120413D01*
X17825500Y8222273D01*
X17825500Y8327727D01*
X17798207Y8429587D01*
X17745480Y8520913D01*
X17670913Y8595480D01*
X17579587Y8648207D01*
X17477727Y8675500D01*
X17372273Y8675500D01*
X17270413Y8648207D01*
X17270410Y8648206D01*
X17179085Y8595479D01*
X17104521Y8520915D01*
X17051794Y8429590D01*
X17051793Y8429587D01*
X17024500Y8327727D01*
X15062718Y8327727D01*
X14977727Y8350500D01*
X14872273Y8350500D01*
X14770413Y8323207D01*
X14770410Y8323206D01*
X14679085Y8270479D01*
X14604521Y8195915D01*
X14551794Y8104590D01*
X14551793Y8104587D01*
X14524500Y8002727D01*
X500500Y8002727D01*
X500500Y9219745D01*
X520185Y9286784D01*
X572989Y9332539D01*
X636498Y9343163D01*
X646692Y9342172D01*
X691373Y9330200D01*
X769841Y9330200D01*
X775828Y9329618D01*
X802885Y9318732D01*
X830869Y9310515D01*
X834915Y9305846D01*
X840648Y9303539D01*
X857526Y9279751D01*
X876624Y9257711D01*
X880177Y9247827D01*
X881079Y9246556D01*
X881144Y9245139D01*
X883604Y9238296D01*
X901793Y9170413D01*
X954520Y9079087D01*
X1029087Y9004520D01*
X1120413Y8951793D01*
X1222273Y8924500D01*
X1222275Y8924500D01*
X1327725Y8924500D01*
X1327727Y8924500D01*
X1429587Y8951793D01*
X1520913Y9004520D01*
X1595480Y9079087D01*
X1648207Y9170413D01*
X1675500Y9272273D01*
X1675500Y9377727D01*
X1648207Y9479587D01*
X1595480Y9570913D01*
X1566166Y9600227D01*
X2134200Y9600227D01*
X2134200Y9494773D01*
X2157214Y9408885D01*
X2161493Y9392914D01*
X2161494Y9392911D01*
X2167383Y9382711D01*
X2214220Y9301587D01*
X2288787Y9227020D01*
X2380113Y9174293D01*
X2481973Y9147000D01*
X2481975Y9147000D01*
X2587425Y9147000D01*
X2587427Y9147000D01*
X2689287Y9174293D01*
X2780613Y9227020D01*
X2855180Y9301587D01*
X2907907Y9392913D01*
X2935200Y9494773D01*
X2935200Y9600227D01*
X2907907Y9702087D01*
X2855180Y9793413D01*
X2780613Y9867980D01*
X2689287Y9920707D01*
X2587427Y9948000D01*
X2481973Y9948000D01*
X2380113Y9920707D01*
X2380110Y9920706D01*
X2288785Y9867979D01*
X2214221Y9793415D01*
X2161494Y9702090D01*
X2161493Y9702087D01*
X2134200Y9600227D01*
X1566166Y9600227D01*
X1520913Y9645480D01*
X1429587Y9698207D01*
X1327727Y9725500D01*
X1255270Y9725500D01*
X1188231Y9745185D01*
X1142476Y9797989D01*
X1135495Y9817407D01*
X1128550Y9843327D01*
X1117307Y9885287D01*
X1064580Y9976613D01*
X990013Y10051180D01*
X901145Y10102488D01*
X898689Y10103906D01*
X898688Y10103907D01*
X898687Y10103907D01*
X796827Y10131200D01*
X691373Y10131200D01*
X691371Y10131200D01*
X656592Y10121881D01*
X586742Y10123544D01*
X528880Y10162708D01*
X501377Y10226937D01*
X500500Y10241656D01*
X500500Y10602727D01*
X2945400Y10602727D01*
X2945400Y10497273D01*
X2972693Y10395413D01*
X3025420Y10304087D01*
X3099987Y10229520D01*
X3191313Y10176793D01*
X3293173Y10149500D01*
X3293175Y10149500D01*
X3343179Y10149500D01*
X3410218Y10129815D01*
X3455973Y10077011D01*
X3465917Y10007853D01*
X3450566Y9963500D01*
X3439994Y9945190D01*
X3439993Y9945187D01*
X3412700Y9843327D01*
X3412700Y9737873D01*
X3437718Y9644506D01*
X3439993Y9636014D01*
X3439994Y9636011D01*
X3447387Y9623206D01*
X3492720Y9544687D01*
X3567287Y9470120D01*
X3658613Y9417393D01*
X3748905Y9393200D01*
X3808564Y9356837D01*
X3836586Y9305519D01*
X3837000Y9303974D01*
X3837000Y9303973D01*
X3864293Y9202113D01*
X3917020Y9110787D01*
X3991587Y9036220D01*
X4082913Y8983493D01*
X4184773Y8956200D01*
X4184775Y8956200D01*
X4290225Y8956200D01*
X4290227Y8956200D01*
X4392087Y8983493D01*
X4483413Y9036220D01*
X4557980Y9110787D01*
X4610707Y9202113D01*
X4638000Y9303973D01*
X4638000Y9303977D01*
X4639039Y9307854D01*
X4675403Y9367514D01*
X4738250Y9398044D01*
X4807626Y9389750D01*
X4861504Y9345265D01*
X4878587Y9307859D01*
X4879546Y9304281D01*
X4879993Y9302612D01*
X4879994Y9302611D01*
X4932720Y9211287D01*
X5007287Y9136720D01*
X5098613Y9083993D01*
X5200473Y9056700D01*
X5200475Y9056700D01*
X5305925Y9056700D01*
X5305927Y9056700D01*
X5407787Y9083993D01*
X5499113Y9136720D01*
X5573680Y9211287D01*
X5626407Y9302613D01*
X5626438Y9302727D01*
X7624500Y9302727D01*
X7624500Y9197273D01*
X7651793Y9095413D01*
X7704520Y9004087D01*
X7779087Y8929520D01*
X7870413Y8876793D01*
X7972273Y8849500D01*
X7972275Y8849500D01*
X8077725Y8849500D01*
X8077727Y8849500D01*
X8179587Y8876793D01*
X8270913Y8929520D01*
X8345480Y9004087D01*
X8398207Y9095413D01*
X8425500Y9197273D01*
X8425500Y9302727D01*
X8398207Y9404587D01*
X8345480Y9495913D01*
X8270913Y9570480D01*
X8179587Y9623207D01*
X8077727Y9650500D01*
X7972273Y9650500D01*
X7870413Y9623207D01*
X7846221Y9609241D01*
X7846221Y9609240D01*
X7779085Y9570479D01*
X7704521Y9495915D01*
X7651794Y9404590D01*
X7651793Y9404587D01*
X7624500Y9302727D01*
X5626438Y9302727D01*
X5627741Y9307595D01*
X5664106Y9367254D01*
X5726953Y9397783D01*
X5747516Y9399500D01*
X5752725Y9399500D01*
X5752727Y9399500D01*
X5854587Y9426793D01*
X5945913Y9479520D01*
X6020480Y9554087D01*
X6073207Y9645413D01*
X6089904Y9707727D01*
X8850000Y9707727D01*
X8850000Y9602273D01*
X8877293Y9500413D01*
X8930020Y9409087D01*
X9004587Y9334520D01*
X9095913Y9281793D01*
X9197773Y9254500D01*
X9197775Y9254500D01*
X9303225Y9254500D01*
X9303227Y9254500D01*
X9405087Y9281793D01*
X9478239Y9324027D01*
X11866500Y9324027D01*
X11866500Y9218573D01*
X11893793Y9116713D01*
X11946520Y9025387D01*
X12021087Y8950820D01*
X12112413Y8898093D01*
X12214273Y8870800D01*
X12214275Y8870800D01*
X12319725Y8870800D01*
X12319727Y8870800D01*
X12421587Y8898093D01*
X12512913Y8950820D01*
X12587480Y9025387D01*
X12640207Y9116713D01*
X12667500Y9218573D01*
X12667500Y9324027D01*
X12640207Y9425887D01*
X12587480Y9517213D01*
X12512913Y9591780D01*
X12421587Y9644507D01*
X12319727Y9671800D01*
X12214273Y9671800D01*
X12112413Y9644507D01*
X12112410Y9644506D01*
X12021085Y9591779D01*
X11946521Y9517215D01*
X11893794Y9425890D01*
X11893793Y9425887D01*
X11866500Y9324027D01*
X9478239Y9324027D01*
X9496413Y9334520D01*
X9570980Y9409087D01*
X9623707Y9500413D01*
X9651000Y9602273D01*
X9651000Y9707727D01*
X9623707Y9809587D01*
X9570980Y9900913D01*
X9496413Y9975480D01*
X9452857Y10000627D01*
X13395800Y10000627D01*
X13395800Y9895173D01*
X13423093Y9793313D01*
X13475820Y9701987D01*
X13550387Y9627420D01*
X13641713Y9574693D01*
X13743573Y9547400D01*
X13743575Y9547400D01*
X13751423Y9545297D01*
X13750766Y9542848D01*
X13803055Y9519718D01*
X13841529Y9461395D01*
X13842746Y9457155D01*
X13844832Y9449373D01*
X13862693Y9382712D01*
X13862694Y9382711D01*
X13915420Y9291387D01*
X13989987Y9216820D01*
X14081313Y9164093D01*
X14183173Y9136800D01*
X14183175Y9136800D01*
X14288625Y9136800D01*
X14288627Y9136800D01*
X14390487Y9164093D01*
X14433515Y9188936D01*
X14501409Y9205408D01*
X14561191Y9184719D01*
X14561749Y9185684D01*
X14566758Y9182792D01*
X14567437Y9182557D01*
X14568406Y9181841D01*
X14568784Y9181623D01*
X14568787Y9181620D01*
X14660113Y9128893D01*
X14761973Y9101600D01*
X14761975Y9101600D01*
X14867425Y9101600D01*
X14867427Y9101600D01*
X14969287Y9128893D01*
X15060613Y9181620D01*
X15135180Y9256187D01*
X15187907Y9347513D01*
X15215200Y9449373D01*
X15215200Y9554827D01*
X15187907Y9656687D01*
X15135180Y9748013D01*
X15060613Y9822580D01*
X15008397Y9852727D01*
X15599500Y9852727D01*
X15599500Y9747273D01*
X15626776Y9645479D01*
X15626793Y9645414D01*
X15626794Y9645411D01*
X15632220Y9636013D01*
X15679520Y9554087D01*
X15754087Y9479520D01*
X15845413Y9426793D01*
X15907593Y9410132D01*
X15967253Y9373769D01*
X15997783Y9310922D01*
X15999500Y9290358D01*
X15999500Y9197273D01*
X16026793Y9095413D01*
X16079520Y9004087D01*
X16154087Y8929520D01*
X16245413Y8876793D01*
X16347273Y8849500D01*
X16347275Y8849500D01*
X16452725Y8849500D01*
X16452727Y8849500D01*
X16554587Y8876793D01*
X16645913Y8929520D01*
X16720480Y9004087D01*
X16773207Y9095413D01*
X16800500Y9197273D01*
X16800500Y9302727D01*
X16773207Y9404587D01*
X16720480Y9495913D01*
X16645913Y9570480D01*
X16554589Y9623206D01*
X16554588Y9623207D01*
X16506790Y9636014D01*
X16492405Y9639869D01*
X16432746Y9676233D01*
X16402217Y9739080D01*
X16400500Y9759643D01*
X16400500Y9852725D01*
X16400500Y9852727D01*
X16373207Y9954587D01*
X16320480Y10045913D01*
X16263666Y10102727D01*
X17699500Y10102727D01*
X17699500Y9997273D01*
X17725320Y9900913D01*
X17726793Y9895414D01*
X17726794Y9895411D01*
X17732639Y9885287D01*
X17779520Y9804087D01*
X17854087Y9729520D01*
X17945413Y9676793D01*
X18047273Y9649500D01*
X18047275Y9649500D01*
X18152725Y9649500D01*
X18152727Y9649500D01*
X18254587Y9676793D01*
X18345913Y9729520D01*
X18420480Y9804087D01*
X18473207Y9895413D01*
X18500500Y9997273D01*
X18500500Y10102727D01*
X18473207Y10204587D01*
X18420480Y10295913D01*
X18345913Y10370480D01*
X18257047Y10421787D01*
X18254589Y10423206D01*
X18254588Y10423207D01*
X18254587Y10423207D01*
X18152727Y10450500D01*
X18047273Y10450500D01*
X17945413Y10423207D01*
X17945410Y10423206D01*
X17854085Y10370479D01*
X17779521Y10295915D01*
X17726794Y10204590D01*
X17726793Y10204587D01*
X17699500Y10102727D01*
X16263666Y10102727D01*
X16245913Y10120480D01*
X16154587Y10173207D01*
X16052727Y10200500D01*
X15947273Y10200500D01*
X15845413Y10173207D01*
X15845410Y10173206D01*
X15754085Y10120479D01*
X15679521Y10045915D01*
X15626794Y9954590D01*
X15626793Y9954587D01*
X15599500Y9852727D01*
X15008397Y9852727D01*
X14984193Y9866701D01*
X14969289Y9875306D01*
X14969288Y9875307D01*
X14969287Y9875307D01*
X14867427Y9902600D01*
X14761973Y9902600D01*
X14660113Y9875307D01*
X14660110Y9875306D01*
X14617087Y9850466D01*
X14549187Y9833993D01*
X14489409Y9854684D01*
X14488851Y9853716D01*
X14483833Y9856613D01*
X14483160Y9856846D01*
X14482197Y9857558D01*
X14481813Y9857780D01*
X14407101Y9900915D01*
X14390489Y9910506D01*
X14390488Y9910507D01*
X14390487Y9910507D01*
X14288627Y9937800D01*
X14288626Y9937800D01*
X14280777Y9939903D01*
X14281432Y9942349D01*
X14229122Y9965502D01*
X14190662Y10023834D01*
X14189459Y10028023D01*
X14169507Y10102487D01*
X14116780Y10193813D01*
X14042213Y10268380D01*
X13950887Y10321107D01*
X13849027Y10348400D01*
X13743573Y10348400D01*
X13641713Y10321107D01*
X13641710Y10321106D01*
X13550385Y10268379D01*
X13475821Y10193815D01*
X13423094Y10102490D01*
X13423093Y10102487D01*
X13395800Y10000627D01*
X9452857Y10000627D01*
X9405087Y10028207D01*
X9303227Y10055500D01*
X9197773Y10055500D01*
X9095913Y10028207D01*
X9095910Y10028206D01*
X9004585Y9975479D01*
X8930021Y9900915D01*
X8877294Y9809590D01*
X8877293Y9809587D01*
X8850000Y9707727D01*
X6089904Y9707727D01*
X6100500Y9747273D01*
X6100500Y9852727D01*
X6073207Y9954587D01*
X6020480Y10045913D01*
X5945913Y10120480D01*
X5854587Y10173207D01*
X5752727Y10200500D01*
X5647273Y10200500D01*
X5545413Y10173207D01*
X5545410Y10173206D01*
X5454085Y10120479D01*
X5379521Y10045915D01*
X5326794Y9954590D01*
X5326793Y9954587D01*
X5325459Y9949607D01*
X5289094Y9889946D01*
X5226247Y9859417D01*
X5205684Y9857700D01*
X5200473Y9857700D01*
X5098613Y9830407D01*
X5098610Y9830406D01*
X5007285Y9777679D01*
X4932721Y9703115D01*
X4879994Y9611790D01*
X4879993Y9611789D01*
X4851660Y9506046D01*
X4815295Y9446386D01*
X4752448Y9415857D01*
X4683072Y9424152D01*
X4629194Y9468637D01*
X4612109Y9506053D01*
X4610707Y9511286D01*
X4610705Y9511290D01*
X4557980Y9602613D01*
X4483413Y9677180D01*
X4399720Y9725500D01*
X4392089Y9729906D01*
X4392088Y9729907D01*
X4392087Y9729907D01*
X4301793Y9754101D01*
X4242134Y9790465D01*
X4214113Y9841782D01*
X4213700Y9843324D01*
X4213700Y9843327D01*
X4186407Y9945187D01*
X4133680Y10036513D01*
X4059113Y10111080D01*
X3967787Y10163807D01*
X3865927Y10191100D01*
X3815921Y10191100D01*
X3810096Y10192811D01*
X3804134Y10191661D01*
X3776955Y10202542D01*
X3748882Y10210785D01*
X3744907Y10215372D01*
X3739269Y10217629D01*
X3722287Y10241477D01*
X3703127Y10263589D01*
X3702262Y10269598D01*
X3698741Y10274544D01*
X3697348Y10303780D01*
X3695026Y10319927D01*
X6716500Y10319927D01*
X6716500Y10214473D01*
X6741686Y10120479D01*
X6743793Y10112614D01*
X6743794Y10112611D01*
X6749639Y10102488D01*
X6796520Y10021287D01*
X6871087Y9946720D01*
X6962413Y9893993D01*
X7064273Y9866700D01*
X7064275Y9866700D01*
X7169725Y9866700D01*
X7169727Y9866700D01*
X7271587Y9893993D01*
X7362913Y9946720D01*
X7362914Y9946722D01*
X7369951Y9950784D01*
X7370941Y9949070D01*
X7426092Y9970395D01*
X7494538Y9956362D01*
X7524100Y9934507D01*
X7529087Y9929520D01*
X7620413Y9876793D01*
X7722273Y9849500D01*
X7722275Y9849500D01*
X7784680Y9849500D01*
X7827727Y9849500D01*
X7929587Y9876793D01*
X8020913Y9929520D01*
X8095480Y10004087D01*
X8148207Y10095413D01*
X8175500Y10197273D01*
X8175500Y10302727D01*
X8148207Y10404587D01*
X8095480Y10495913D01*
X8020913Y10570480D01*
X7929587Y10623207D01*
X7827727Y10650500D01*
X7722273Y10650500D01*
X7620413Y10623207D01*
X7620410Y10623206D01*
X7584937Y10602725D01*
X7529087Y10570480D01*
X7529085Y10570479D01*
X7522049Y10566416D01*
X7521061Y10568128D01*
X7465877Y10546803D01*
X7397434Y10560853D01*
X7367899Y10582694D01*
X7362914Y10587679D01*
X7362913Y10587680D01*
X7271587Y10640407D01*
X7169727Y10667700D01*
X7064273Y10667700D01*
X6962413Y10640407D01*
X6962410Y10640406D01*
X6871085Y10587679D01*
X6796521Y10513115D01*
X6743794Y10421790D01*
X6743793Y10421787D01*
X6716500Y10319927D01*
X3695026Y10319927D01*
X3693183Y10332747D01*
X3695631Y10339821D01*
X3695416Y10344334D01*
X3708534Y10377100D01*
X3716013Y10390054D01*
X3716066Y10390147D01*
X3719107Y10395413D01*
X3746400Y10497273D01*
X3746400Y10602727D01*
X3719107Y10704587D01*
X3666380Y10795913D01*
X3591813Y10870480D01*
X3500487Y10923207D01*
X3398627Y10950500D01*
X3293173Y10950500D01*
X3191313Y10923207D01*
X3191310Y10923206D01*
X3099985Y10870479D01*
X3025421Y10795915D01*
X2972694Y10704590D01*
X2972693Y10704587D01*
X2945400Y10602727D01*
X500500Y10602727D01*
X500500Y12652727D01*
X1824500Y12652727D01*
X1824500Y12547273D01*
X1851793Y12445413D01*
X1904520Y12354087D01*
X1979087Y12279520D01*
X2070413Y12226793D01*
X2172273Y12199500D01*
X2172275Y12199500D01*
X2248975Y12199500D01*
X2316014Y12179815D01*
X2356360Y12137502D01*
X2404520Y12054087D01*
X2479087Y11979520D01*
X2570413Y11926793D01*
X2672273Y11899500D01*
X2672275Y11899500D01*
X2777725Y11899500D01*
X2777727Y11899500D01*
X2879587Y11926793D01*
X2970913Y11979520D01*
X3045480Y12054087D01*
X3098207Y12145413D01*
X3125500Y12247273D01*
X3125500Y12352727D01*
X3112103Y12402727D01*
X7499500Y12402727D01*
X7499500Y12297273D01*
X7526793Y12195413D01*
X7579520Y12104087D01*
X7654087Y12029520D01*
X7745413Y11976793D01*
X7817552Y11957464D01*
X7877210Y11921101D01*
X7907740Y11858254D01*
X7899446Y11788878D01*
X7892844Y11775690D01*
X7851794Y11704590D01*
X7851793Y11704587D01*
X7824500Y11602727D01*
X7824500Y11497273D01*
X7850299Y11400991D01*
X7851793Y11395414D01*
X7851794Y11395411D01*
X7862543Y11376793D01*
X7904520Y11304087D01*
X7979087Y11229520D01*
X8070413Y11176793D01*
X8172273Y11149500D01*
X8172275Y11149500D01*
X8277725Y11149500D01*
X8277727Y11149500D01*
X8379587Y11176793D01*
X8470913Y11229520D01*
X8545480Y11304087D01*
X8598207Y11395413D01*
X8625500Y11497273D01*
X8625500Y11602727D01*
X8616265Y11637193D01*
X8616400Y11642886D01*
X8613880Y11647997D01*
X8617221Y11677428D01*
X8617926Y11707039D01*
X8621288Y11713241D01*
X8621763Y11717420D01*
X8631005Y11731164D01*
X8639953Y11747666D01*
X8643910Y11752518D01*
X8695480Y11804087D01*
X8718493Y11843948D01*
X8724797Y11851675D01*
X8745711Y11866013D01*
X8764061Y11883509D01*
X8774042Y11885433D01*
X8782426Y11891180D01*
X8807768Y11891934D01*
X8832668Y11896733D01*
X8851981Y11893249D01*
X8852265Y11893257D01*
X8852406Y11893172D01*
X8852961Y11893072D01*
X8922273Y11874500D01*
X8922276Y11874500D01*
X9027725Y11874500D01*
X9027727Y11874500D01*
X9129587Y11901793D01*
X9212265Y11949527D01*
X12676400Y11949527D01*
X12676400Y11844073D01*
X12703693Y11742213D01*
X12756420Y11650887D01*
X12830987Y11576320D01*
X12922313Y11523593D01*
X13024173Y11496300D01*
X13024175Y11496300D01*
X13129625Y11496300D01*
X13129627Y11496300D01*
X13231487Y11523593D01*
X13281949Y11552727D01*
X17874500Y11552727D01*
X17874500Y11447273D01*
X17901793Y11345413D01*
X17954520Y11254087D01*
X18029087Y11179520D01*
X18120413Y11126793D01*
X18222273Y11099500D01*
X18222275Y11099500D01*
X18327725Y11099500D01*
X18327727Y11099500D01*
X18429587Y11126793D01*
X18520913Y11179520D01*
X18595480Y11254087D01*
X18648207Y11345413D01*
X18648207Y11345414D01*
X18652271Y11352452D01*
X18653546Y11351716D01*
X18655696Y11359972D01*
X18674908Y11377688D01*
X18691302Y11398034D01*
X18700182Y11400991D01*
X18707063Y11407335D01*
X18732796Y11411850D01*
X18757593Y11420106D01*
X18768492Y11418113D01*
X18775881Y11419409D01*
X18794006Y11413448D01*
X18810036Y11410516D01*
X18817247Y11407489D01*
X18870413Y11376793D01*
X18925521Y11362027D01*
X18933288Y11358766D01*
X18954111Y11341820D01*
X18977037Y11327846D01*
X18981640Y11319416D01*
X18987480Y11314663D01*
X18992341Y11299818D01*
X19005058Y11276530D01*
X19026793Y11195413D01*
X19079520Y11104087D01*
X19154087Y11029520D01*
X19245413Y10976793D01*
X19347273Y10949500D01*
X19347275Y10949500D01*
X19452725Y10949500D01*
X19452727Y10949500D01*
X19554587Y10976793D01*
X19645913Y11029520D01*
X19720480Y11104087D01*
X19773207Y11195413D01*
X19800500Y11297273D01*
X19800500Y11402727D01*
X19780576Y11477086D01*
X19782239Y11546934D01*
X19816453Y11597486D01*
X19815166Y11598773D01*
X19853583Y11637190D01*
X19895480Y11679087D01*
X19948207Y11770413D01*
X19975500Y11872273D01*
X19975500Y11977727D01*
X19948207Y12079587D01*
X19895480Y12170913D01*
X19820913Y12245480D01*
X19729587Y12298207D01*
X19627727Y12325500D01*
X19522273Y12325500D01*
X19420413Y12298207D01*
X19420410Y12298206D01*
X19329087Y12245480D01*
X19251682Y12168075D01*
X19247291Y12165678D01*
X19244559Y12161489D01*
X19216928Y12149100D01*
X19190358Y12134591D01*
X19184126Y12134390D01*
X19180806Y12132901D01*
X19166308Y12133815D01*
X19145512Y12133143D01*
X19138634Y12134181D01*
X19077727Y12150500D01*
X19030403Y12150500D01*
X19021211Y12151886D01*
X18997617Y12162857D01*
X18972661Y12170185D01*
X18966454Y12177348D01*
X18957856Y12181346D01*
X18943938Y12203333D01*
X18926906Y12222989D01*
X18924502Y12234037D01*
X18920486Y12240382D01*
X18920566Y12252130D01*
X18915700Y12274500D01*
X18915700Y12352725D01*
X18915700Y12352727D01*
X18888407Y12454587D01*
X18835680Y12545913D01*
X18761113Y12620480D01*
X18674514Y12670478D01*
X18669789Y12673206D01*
X18669788Y12673207D01*
X18669787Y12673207D01*
X18567927Y12700500D01*
X18462473Y12700500D01*
X18360613Y12673207D01*
X18360610Y12673206D01*
X18269285Y12620479D01*
X18194721Y12545915D01*
X18141994Y12454590D01*
X18141993Y12454587D01*
X18114700Y12352727D01*
X18114700Y12247273D01*
X18137686Y12161489D01*
X18141993Y12145414D01*
X18141994Y12145411D01*
X18194405Y12054633D01*
X18210878Y11986733D01*
X18188026Y11920706D01*
X18133104Y11877515D01*
X18121450Y11873637D01*
X18120410Y11873206D01*
X18029085Y11820479D01*
X17954521Y11745915D01*
X17901794Y11654590D01*
X17901793Y11654587D01*
X17874500Y11552727D01*
X13281949Y11552727D01*
X13322813Y11576320D01*
X13397380Y11650887D01*
X13450107Y11742213D01*
X13477400Y11844073D01*
X13477400Y11949527D01*
X13450107Y12051387D01*
X13397380Y12142713D01*
X13364974Y12175119D01*
X13331489Y12236442D01*
X13336473Y12306134D01*
X13364974Y12350481D01*
X13383274Y12368781D01*
X13415680Y12401187D01*
X13468407Y12492513D01*
X13495700Y12594373D01*
X13495700Y12699827D01*
X13468407Y12801687D01*
X13421808Y12882398D01*
X13405337Y12950293D01*
X13421808Y13006389D01*
X13473207Y13095413D01*
X13500500Y13197273D01*
X13500500Y13302727D01*
X13473207Y13404587D01*
X13420480Y13495913D01*
X13345913Y13570480D01*
X13254587Y13623207D01*
X13152727Y13650500D01*
X13047273Y13650500D01*
X12945413Y13623207D01*
X12945410Y13623206D01*
X12854085Y13570479D01*
X12779521Y13495915D01*
X12726794Y13404590D01*
X12726793Y13404587D01*
X12699500Y13302727D01*
X12699500Y13197273D01*
X12724890Y13102518D01*
X12726793Y13095414D01*
X12726794Y13095411D01*
X12738727Y13074742D01*
X12768889Y13022500D01*
X12773389Y13014707D01*
X12789862Y12946807D01*
X12773389Y12890709D01*
X12767273Y12880114D01*
X12721994Y12801690D01*
X12721993Y12801687D01*
X12694700Y12699827D01*
X12694700Y12594373D01*
X12721993Y12492513D01*
X12758323Y12429587D01*
X12774721Y12401186D01*
X12807126Y12368781D01*
X12840611Y12307458D01*
X12835627Y12237766D01*
X12807126Y12193419D01*
X12756421Y12142715D01*
X12703694Y12051390D01*
X12703693Y12051387D01*
X12676400Y11949527D01*
X9212265Y11949527D01*
X9220913Y11954520D01*
X9295480Y12029087D01*
X9348207Y12120413D01*
X9375500Y12222273D01*
X9375500Y12327727D01*
X9348207Y12429587D01*
X9295480Y12520913D01*
X9220913Y12595480D01*
X9129587Y12648207D01*
X9027727Y12675500D01*
X8922273Y12675500D01*
X8820413Y12648207D01*
X8820410Y12648206D01*
X8729087Y12595480D01*
X8703159Y12569552D01*
X8641835Y12536068D01*
X8572144Y12541054D01*
X8516211Y12582926D01*
X8491795Y12648391D01*
X8506648Y12716664D01*
X8508026Y12719121D01*
X8523207Y12745413D01*
X8550500Y12847273D01*
X8550500Y12952727D01*
X8523207Y13054587D01*
X8470480Y13145913D01*
X8395913Y13220480D01*
X8312894Y13268411D01*
X8304589Y13273206D01*
X8304588Y13273207D01*
X8304587Y13273207D01*
X8202727Y13300500D01*
X8097273Y13300500D01*
X7995413Y13273207D01*
X7995410Y13273206D01*
X7904085Y13220479D01*
X7829521Y13145915D01*
X7776794Y13054590D01*
X7776793Y13054587D01*
X7749500Y12952727D01*
X7749500Y12847273D01*
X7749864Y12845913D01*
X7753116Y12833779D01*
X7751453Y12763929D01*
X7712290Y12706067D01*
X7695344Y12694300D01*
X7680288Y12685607D01*
X7658811Y12673207D01*
X7654084Y12670478D01*
X7579521Y12595915D01*
X7526794Y12504590D01*
X7526793Y12504587D01*
X7499500Y12402727D01*
X3112103Y12402727D01*
X3098207Y12454587D01*
X3045480Y12545913D01*
X2970913Y12620480D01*
X2884314Y12670478D01*
X2879589Y12673206D01*
X2879588Y12673207D01*
X2879587Y12673207D01*
X2785796Y12698338D01*
X2726137Y12734702D01*
X2695608Y12797549D01*
X2703903Y12866924D01*
X2710494Y12880093D01*
X2748207Y12945413D01*
X2775500Y13047273D01*
X2775500Y13152727D01*
X2748207Y13254587D01*
X2695480Y13345913D01*
X2620913Y13420480D01*
X2529587Y13473207D01*
X2427727Y13500500D01*
X2322273Y13500500D01*
X2220413Y13473207D01*
X2220410Y13473206D01*
X2129085Y13420479D01*
X2054521Y13345915D01*
X2001794Y13254590D01*
X2001793Y13254587D01*
X1974500Y13152727D01*
X1974500Y13047274D01*
X1983735Y13012805D01*
X1982070Y12942955D01*
X1951641Y12893035D01*
X1904521Y12845915D01*
X1851794Y12754590D01*
X1851793Y12754587D01*
X1824500Y12652727D01*
X500500Y12652727D01*
X500500Y14415527D01*
X2933900Y14415527D01*
X2933900Y14310073D01*
X2961193Y14208213D01*
X3013920Y14116887D01*
X3088487Y14042320D01*
X3179813Y13989593D01*
X3281673Y13962300D01*
X3281675Y13962300D01*
X3387125Y13962300D01*
X3387127Y13962300D01*
X3488987Y13989593D01*
X3580313Y14042320D01*
X3615720Y14077727D01*
X7499500Y14077727D01*
X7499500Y13972273D01*
X7514895Y13914820D01*
X7526793Y13870414D01*
X7526794Y13870411D01*
X7540922Y13845941D01*
X7579520Y13779087D01*
X7654087Y13704520D01*
X7745413Y13651793D01*
X7847273Y13624500D01*
X7847275Y13624500D01*
X7952725Y13624500D01*
X7952727Y13624500D01*
X8054587Y13651793D01*
X8056205Y13652727D01*
X8899500Y13652727D01*
X8899500Y13547273D01*
X8926793Y13445413D01*
X8979520Y13354087D01*
X9054087Y13279520D01*
X9145413Y13226793D01*
X9247273Y13199500D01*
X9247275Y13199500D01*
X9352725Y13199500D01*
X9352727Y13199500D01*
X9454587Y13226793D01*
X9545913Y13279520D01*
X9620480Y13354087D01*
X9648562Y13402727D01*
X10099500Y13402727D01*
X10099500Y13297273D01*
X10126295Y13197274D01*
X10126793Y13195414D01*
X10126794Y13195411D01*
X10137374Y13177086D01*
X10179520Y13104087D01*
X10254087Y13029520D01*
X10345413Y12976793D01*
X10447273Y12949500D01*
X10447275Y12949500D01*
X10552725Y12949500D01*
X10552727Y12949500D01*
X10654587Y12976793D01*
X10745913Y13029520D01*
X10808873Y13092481D01*
X10870192Y13125963D01*
X10939884Y13120979D01*
X10972038Y13103173D01*
X10972879Y13102528D01*
X10972887Y13102520D01*
X11064213Y13049793D01*
X11166073Y13022500D01*
X11166075Y13022500D01*
X11256745Y13022500D01*
X11323784Y13002815D01*
X11369539Y12950011D01*
X11379483Y12880853D01*
X11350458Y12817297D01*
X11344426Y12810819D01*
X11329521Y12795915D01*
X11276794Y12704590D01*
X11276793Y12704587D01*
X11249500Y12602727D01*
X11249500Y12497273D01*
X11274834Y12402727D01*
X11276793Y12395414D01*
X11276794Y12395411D01*
X11286407Y12378761D01*
X11329520Y12304087D01*
X11404087Y12229520D01*
X11495413Y12176793D01*
X11597273Y12149500D01*
X11597275Y12149500D01*
X11702725Y12149500D01*
X11702727Y12149500D01*
X11804587Y12176793D01*
X11895913Y12229520D01*
X11970480Y12304087D01*
X12023207Y12395413D01*
X12050500Y12497273D01*
X12050500Y12602727D01*
X12023207Y12704587D01*
X11970480Y12795913D01*
X11895913Y12870480D01*
X11829059Y12909078D01*
X11804589Y12923206D01*
X11804588Y12923207D01*
X11804587Y12923207D01*
X11702727Y12950500D01*
X11612055Y12950500D01*
X11545016Y12970185D01*
X11499261Y13022989D01*
X11489317Y13092147D01*
X11518342Y13155703D01*
X11524374Y13162181D01*
X11539280Y13177087D01*
X11592007Y13268413D01*
X11619300Y13370273D01*
X11619300Y13475727D01*
X11592007Y13577587D01*
X11539280Y13668913D01*
X11464713Y13743480D01*
X11373387Y13796207D01*
X11271527Y13823500D01*
X11166073Y13823500D01*
X11064213Y13796207D01*
X11064210Y13796206D01*
X10972887Y13743480D01*
X10909929Y13680522D01*
X10848605Y13647038D01*
X10778914Y13652023D01*
X10746763Y13669827D01*
X10745914Y13670479D01*
X10745913Y13670480D01*
X10686954Y13704520D01*
X10654589Y13723206D01*
X10654588Y13723207D01*
X10654587Y13723207D01*
X10552727Y13750500D01*
X10447273Y13750500D01*
X10345413Y13723207D01*
X10345410Y13723206D01*
X10254085Y13670479D01*
X10179521Y13595915D01*
X10126794Y13504590D01*
X10126793Y13504587D01*
X10099500Y13402727D01*
X9648562Y13402727D01*
X9673207Y13445413D01*
X9700500Y13547273D01*
X9700500Y13652727D01*
X9673207Y13754587D01*
X9620480Y13845913D01*
X9545913Y13920480D01*
X9456203Y13972274D01*
X9454589Y13973206D01*
X9454588Y13973207D01*
X9454587Y13973207D01*
X9352727Y14000500D01*
X9247273Y14000500D01*
X9145413Y13973207D01*
X9145410Y13973206D01*
X9054085Y13920479D01*
X8979521Y13845915D01*
X8926794Y13754590D01*
X8926793Y13754587D01*
X8899500Y13652727D01*
X8056205Y13652727D01*
X8145913Y13704520D01*
X8220480Y13779087D01*
X8273207Y13870413D01*
X8300500Y13972273D01*
X8300500Y14077727D01*
X8273207Y14179587D01*
X8220480Y14270913D01*
X8145913Y14345480D01*
X8068998Y14389887D01*
X8054589Y14398206D01*
X8054588Y14398207D01*
X8054587Y14398207D01*
X7952727Y14425500D01*
X7847273Y14425500D01*
X7745413Y14398207D01*
X7745410Y14398206D01*
X7654085Y14345479D01*
X7579521Y14270915D01*
X7526794Y14179590D01*
X7526793Y14179587D01*
X7499500Y14077727D01*
X3615720Y14077727D01*
X3654880Y14116887D01*
X3707607Y14208213D01*
X3734900Y14310073D01*
X3734900Y14415527D01*
X3707607Y14517387D01*
X3654880Y14608713D01*
X3580313Y14683280D01*
X3488987Y14736007D01*
X3387127Y14763300D01*
X3281673Y14763300D01*
X3179813Y14736007D01*
X3179810Y14736006D01*
X3088485Y14683279D01*
X3013921Y14608715D01*
X2961194Y14517390D01*
X2961193Y14517387D01*
X2933900Y14415527D01*
X500500Y14415527D01*
X500500Y15379227D01*
X738900Y15379227D01*
X738900Y15273773D01*
X765201Y15175615D01*
X766193Y15171914D01*
X766194Y15171911D01*
X776234Y15154522D01*
X818920Y15080587D01*
X893487Y15006020D01*
X984813Y14953293D01*
X1086673Y14926000D01*
X1086675Y14926000D01*
X1192125Y14926000D01*
X1192127Y14926000D01*
X1293987Y14953293D01*
X1385313Y15006020D01*
X1459880Y15080587D01*
X1512607Y15171913D01*
X1539900Y15273773D01*
X1539900Y15379227D01*
X1512607Y15481087D01*
X1485679Y15527727D01*
X2424500Y15527727D01*
X2424500Y15422273D01*
X2451793Y15320413D01*
X2504520Y15229087D01*
X2579087Y15154520D01*
X2670413Y15101793D01*
X2772273Y15074500D01*
X2772275Y15074500D01*
X2877725Y15074500D01*
X2877727Y15074500D01*
X2979587Y15101793D01*
X3070913Y15154520D01*
X3145480Y15229087D01*
X3159129Y15252727D01*
X3599500Y15252727D01*
X3599500Y15147273D01*
X3626793Y15045413D01*
X3679520Y14954087D01*
X3754087Y14879520D01*
X3845413Y14826793D01*
X3947273Y14799500D01*
X3947275Y14799500D01*
X4052725Y14799500D01*
X4052727Y14799500D01*
X4154587Y14826793D01*
X4217298Y14863000D01*
X4285193Y14879472D01*
X4346799Y14858152D01*
X4347049Y14858584D01*
X4349295Y14857288D01*
X4351220Y14856621D01*
X4353964Y14854592D01*
X4354084Y14854523D01*
X4354087Y14854520D01*
X4445413Y14801793D01*
X4547273Y14774500D01*
X4547275Y14774500D01*
X4652725Y14774500D01*
X4652727Y14774500D01*
X4754587Y14801793D01*
X4845913Y14854520D01*
X4920480Y14929087D01*
X4920480Y14929088D01*
X4926227Y14934834D01*
X4928621Y14932440D01*
X4972294Y14964407D01*
X5042035Y14968643D01*
X5102059Y14935448D01*
X5154087Y14883420D01*
X5245413Y14830693D01*
X5347273Y14803400D01*
X5347275Y14803400D01*
X5452725Y14803400D01*
X5452727Y14803400D01*
X5554587Y14830693D01*
X5645913Y14883420D01*
X5647449Y14884957D01*
X5649065Y14885840D01*
X5652363Y14888369D01*
X5652757Y14887856D01*
X5708768Y14918444D01*
X5778460Y14913465D01*
X5797132Y14904668D01*
X5845413Y14876793D01*
X5947273Y14849500D01*
X5947275Y14849500D01*
X6052725Y14849500D01*
X6052727Y14849500D01*
X6154587Y14876793D01*
X6245913Y14929520D01*
X6298820Y14982427D01*
X6856900Y14982427D01*
X6856900Y14876973D01*
X6883622Y14777246D01*
X6884193Y14775114D01*
X6884194Y14775111D01*
X6894289Y14757626D01*
X6936920Y14683787D01*
X7011487Y14609220D01*
X7102813Y14556493D01*
X7204673Y14529200D01*
X7204675Y14529200D01*
X7310125Y14529200D01*
X7310127Y14529200D01*
X7411987Y14556493D01*
X7503313Y14609220D01*
X7577880Y14683787D01*
X7630607Y14775113D01*
X7657900Y14876973D01*
X7657900Y14922827D01*
X11254800Y14922827D01*
X11254800Y14817373D01*
X11282093Y14715513D01*
X11334820Y14624187D01*
X11409387Y14549620D01*
X11500713Y14496893D01*
X11501720Y14496624D01*
X11502473Y14496165D01*
X11508220Y14493784D01*
X11507848Y14492888D01*
X11561379Y14460258D01*
X11591908Y14397411D01*
X11589400Y14344757D01*
X11574200Y14288029D01*
X11574200Y14288027D01*
X11574200Y14182573D01*
X11601493Y14080713D01*
X11654220Y13989387D01*
X11728787Y13914820D01*
X11820113Y13862093D01*
X11921973Y13834800D01*
X11921975Y13834800D01*
X12027425Y13834800D01*
X12027427Y13834800D01*
X12129287Y13862093D01*
X12220613Y13914820D01*
X12295180Y13989387D01*
X12347907Y14080713D01*
X12375200Y14182573D01*
X12375200Y14288027D01*
X12347907Y14389887D01*
X12340840Y14402127D01*
X12925300Y14402127D01*
X12925300Y14296673D01*
X12952593Y14194813D01*
X13005320Y14103487D01*
X13079887Y14028920D01*
X13171213Y13976193D01*
X13273073Y13948900D01*
X13273075Y13948900D01*
X13378525Y13948900D01*
X13378527Y13948900D01*
X13480387Y13976193D01*
X13571713Y14028920D01*
X13620520Y14077727D01*
X18124500Y14077727D01*
X18124500Y13972273D01*
X18139895Y13914820D01*
X18151793Y13870414D01*
X18151794Y13870411D01*
X18165922Y13845941D01*
X18204520Y13779087D01*
X18279087Y13704520D01*
X18370413Y13651793D01*
X18472273Y13624500D01*
X18472275Y13624500D01*
X18577725Y13624500D01*
X18577727Y13624500D01*
X18679587Y13651793D01*
X18770913Y13704520D01*
X18845480Y13779087D01*
X18898207Y13870413D01*
X18925500Y13972273D01*
X18925500Y14077727D01*
X18898207Y14179587D01*
X18845480Y14270913D01*
X18770913Y14345480D01*
X18693998Y14389887D01*
X18679589Y14398206D01*
X18679588Y14398207D01*
X18679587Y14398207D01*
X18577727Y14425500D01*
X18472273Y14425500D01*
X18370413Y14398207D01*
X18370410Y14398206D01*
X18279085Y14345479D01*
X18204521Y14270915D01*
X18151794Y14179590D01*
X18151793Y14179587D01*
X18124500Y14077727D01*
X13620520Y14077727D01*
X13646280Y14103487D01*
X13699007Y14194813D01*
X13699045Y14194956D01*
X13703152Y14202080D01*
X13722674Y14220721D01*
X13739547Y14241791D01*
X13747567Y14244489D01*
X13753686Y14250330D01*
X13780185Y14255457D01*
X13805773Y14264061D01*
X13817735Y14262722D01*
X13822283Y14263601D01*
X13827113Y14261671D01*
X13842672Y14259929D01*
X13880473Y14249800D01*
X13880475Y14249800D01*
X13985925Y14249800D01*
X13985927Y14249800D01*
X14087787Y14277093D01*
X14179113Y14329820D01*
X14253680Y14404387D01*
X14306407Y14495713D01*
X14333700Y14597573D01*
X14333700Y14703027D01*
X14333700Y14711154D01*
X14336355Y14711154D01*
X14345088Y14767228D01*
X14391458Y14819493D01*
X14397591Y14822655D01*
X14397548Y14822729D01*
X14411342Y14830693D01*
X14495913Y14879520D01*
X14570480Y14954087D01*
X14623207Y15045413D01*
X14650500Y15147273D01*
X14650500Y15252727D01*
X14623207Y15354587D01*
X14570480Y15445913D01*
X14570466Y15445927D01*
X15012300Y15445927D01*
X15012300Y15340473D01*
X15038336Y15243307D01*
X15039593Y15238614D01*
X15039594Y15238611D01*
X15040685Y15236722D01*
X15092320Y15147287D01*
X15166887Y15072720D01*
X15258213Y15019993D01*
X15360073Y14992700D01*
X15360075Y14992700D01*
X15465525Y14992700D01*
X15465527Y14992700D01*
X15567387Y15019993D01*
X15658713Y15072720D01*
X15733280Y15147287D01*
X15733285Y15147298D01*
X15736656Y15151688D01*
X15752800Y15163477D01*
X15765528Y15178891D01*
X15780440Y15183659D01*
X15793084Y15192890D01*
X15813037Y15194079D01*
X15832080Y15200166D01*
X15859728Y15196861D01*
X15862830Y15197045D01*
X15867103Y15195981D01*
X15912920Y15183705D01*
X15972579Y15147342D01*
X16003109Y15084495D01*
X16000603Y15031846D01*
X15999500Y15027732D01*
X15999500Y15027727D01*
X15999500Y14922273D01*
X16026193Y14822655D01*
X16026793Y14820414D01*
X16026794Y14820411D01*
X16038867Y14799501D01*
X16079520Y14729087D01*
X16154087Y14654520D01*
X16245413Y14601793D01*
X16347273Y14574500D01*
X16347275Y14574500D01*
X16452725Y14574500D01*
X16452727Y14574500D01*
X16554587Y14601793D01*
X16645913Y14654520D01*
X16720480Y14729087D01*
X16773207Y14820413D01*
X16800500Y14922273D01*
X16800500Y14965358D01*
X16820185Y15032397D01*
X16872989Y15078152D01*
X16892401Y15085131D01*
X16954587Y15101793D01*
X17045913Y15154520D01*
X17120480Y15229087D01*
X17173207Y15320413D01*
X17200500Y15422273D01*
X17200500Y15527727D01*
X17173207Y15629587D01*
X17120480Y15720913D01*
X17045913Y15795480D01*
X16954587Y15848207D01*
X16852727Y15875500D01*
X16747273Y15875500D01*
X16645413Y15848207D01*
X16645410Y15848206D01*
X16554087Y15795480D01*
X16529562Y15770955D01*
X16468238Y15737471D01*
X16398547Y15742457D01*
X16342614Y15784329D01*
X16334500Y15796629D01*
X16320480Y15820913D01*
X16245913Y15895480D01*
X16154589Y15948206D01*
X16154588Y15948207D01*
X16130939Y15954544D01*
X16111166Y15959842D01*
X16051507Y15996207D01*
X16020978Y16059054D01*
X16029273Y16128429D01*
X16073759Y16182307D01*
X16081247Y16186995D01*
X16151613Y16227620D01*
X16226180Y16302187D01*
X16278907Y16393513D01*
X16306200Y16495373D01*
X16306200Y16600827D01*
X16287541Y16670461D01*
X16285318Y16678761D01*
X16285318Y16678763D01*
X16278908Y16702683D01*
X16278907Y16702687D01*
X16278884Y16702727D01*
X16674500Y16702727D01*
X16674500Y16597273D01*
X16701295Y16497274D01*
X16701793Y16495414D01*
X16701794Y16495411D01*
X16713862Y16474509D01*
X16754520Y16404087D01*
X16829087Y16329520D01*
X16920413Y16276793D01*
X17022273Y16249500D01*
X17022275Y16249500D01*
X17127725Y16249500D01*
X17127727Y16249500D01*
X17229587Y16276793D01*
X17320913Y16329520D01*
X17395480Y16404087D01*
X17448207Y16495413D01*
X17475500Y16597273D01*
X17475500Y16702727D01*
X17448207Y16804587D01*
X17395480Y16895913D01*
X17320913Y16970480D01*
X17229587Y17023207D01*
X17127727Y17050500D01*
X17022273Y17050500D01*
X16920413Y17023207D01*
X16920410Y17023206D01*
X16829085Y16970479D01*
X16754521Y16895915D01*
X16701794Y16804590D01*
X16701793Y16804587D01*
X16674500Y16702727D01*
X16278884Y16702727D01*
X16226180Y16794013D01*
X16151613Y16868580D01*
X16060287Y16921307D01*
X15958427Y16948600D01*
X15852973Y16948600D01*
X15751113Y16921307D01*
X15751110Y16921306D01*
X15659785Y16868579D01*
X15585221Y16794015D01*
X15532494Y16702690D01*
X15532493Y16702687D01*
X15505200Y16600827D01*
X15505200Y16495373D01*
X15532493Y16393513D01*
X15585220Y16302187D01*
X15659787Y16227620D01*
X15751113Y16174893D01*
X15794531Y16163260D01*
X15854191Y16126896D01*
X15884721Y16064049D01*
X15876427Y15994673D01*
X15841081Y15947614D01*
X15833227Y15941172D01*
X15754087Y15895480D01*
X15679520Y15820913D01*
X15673129Y15809844D01*
X15656410Y15796129D01*
X15636859Y15787831D01*
X15619703Y15775306D01*
X15605339Y15774452D01*
X15592094Y15768830D01*
X15571158Y15772420D01*
X15549956Y15771159D01*
X15545674Y15772225D01*
X15500280Y15784388D01*
X15465527Y15793700D01*
X15360073Y15793700D01*
X15258213Y15766407D01*
X15258210Y15766406D01*
X15166885Y15713679D01*
X15092321Y15639115D01*
X15039594Y15547790D01*
X15039593Y15547787D01*
X15012300Y15445927D01*
X14570466Y15445927D01*
X14495913Y15520480D01*
X14417882Y15565531D01*
X14404589Y15573206D01*
X14404588Y15573207D01*
X14404587Y15573207D01*
X14302727Y15600500D01*
X14197273Y15600500D01*
X14165289Y15591930D01*
X14095439Y15593595D01*
X14037577Y15632759D01*
X14025811Y15649706D01*
X14025707Y15649886D01*
X14025707Y15649887D01*
X13972980Y15741213D01*
X13898413Y15815780D01*
X13807087Y15868507D01*
X13705227Y15895800D01*
X13599773Y15895800D01*
X13497913Y15868507D01*
X13497910Y15868506D01*
X13406585Y15815779D01*
X13332021Y15741215D01*
X13279294Y15649890D01*
X13279293Y15649887D01*
X13252000Y15548027D01*
X13252000Y15442573D01*
X13268974Y15379227D01*
X13279293Y15340714D01*
X13279294Y15340711D01*
X13285363Y15330200D01*
X13332020Y15249387D01*
X13406587Y15174820D01*
X13497913Y15122093D01*
X13559150Y15105685D01*
X13618808Y15069322D01*
X13649338Y15006475D01*
X13641044Y14937099D01*
X13632334Y14920395D01*
X13624807Y14908301D01*
X13612720Y14896213D01*
X13559993Y14804887D01*
X13559646Y14803593D01*
X13553696Y14794031D01*
X13534883Y14777246D01*
X13519044Y14757626D01*
X13509256Y14754379D01*
X13501562Y14747513D01*
X13476661Y14743563D01*
X13452730Y14735622D01*
X13437528Y14737355D01*
X13432556Y14736566D01*
X13428387Y14738397D01*
X13416326Y14739772D01*
X13378527Y14749900D01*
X13273073Y14749900D01*
X13171213Y14722607D01*
X13171210Y14722606D01*
X13079885Y14669879D01*
X13005321Y14595315D01*
X12952594Y14503990D01*
X12952593Y14503987D01*
X12925300Y14402127D01*
X12340840Y14402127D01*
X12295180Y14481213D01*
X12220613Y14555780D01*
X12129287Y14608507D01*
X12129285Y14608508D01*
X12129279Y14608510D01*
X12128271Y14608780D01*
X12127516Y14609240D01*
X12121780Y14611616D01*
X12122150Y14612512D01*
X12068613Y14645150D01*
X12038089Y14707999D01*
X12040598Y14760641D01*
X12055800Y14817373D01*
X12055800Y14922827D01*
X12028507Y15024687D01*
X11975780Y15116013D01*
X11901213Y15190580D01*
X11809887Y15243307D01*
X11708027Y15270600D01*
X11602573Y15270600D01*
X11500713Y15243307D01*
X11500710Y15243306D01*
X11409385Y15190579D01*
X11334821Y15116015D01*
X11282094Y15024690D01*
X11282093Y15024687D01*
X11254800Y14922827D01*
X7657900Y14922827D01*
X7657900Y14982427D01*
X7630607Y15084287D01*
X7577880Y15175613D01*
X7503313Y15250180D01*
X7411987Y15302907D01*
X7310127Y15330200D01*
X7204673Y15330200D01*
X7102813Y15302907D01*
X7102810Y15302906D01*
X7011485Y15250179D01*
X6936921Y15175615D01*
X6884194Y15084290D01*
X6884193Y15084287D01*
X6856900Y14982427D01*
X6298820Y14982427D01*
X6320480Y15004087D01*
X6373207Y15095413D01*
X6400500Y15197273D01*
X6400500Y15302727D01*
X6373207Y15404587D01*
X6320480Y15495913D01*
X6305466Y15510927D01*
X9532900Y15510927D01*
X9532900Y15405473D01*
X9555692Y15320414D01*
X9560193Y15303614D01*
X9560194Y15303611D01*
X9560706Y15302725D01*
X9612920Y15212287D01*
X9687487Y15137720D01*
X9778813Y15084993D01*
X9880673Y15057700D01*
X9880675Y15057700D01*
X9986125Y15057700D01*
X9986127Y15057700D01*
X10087987Y15084993D01*
X10179313Y15137720D01*
X10253880Y15212287D01*
X10306607Y15303613D01*
X10333900Y15405473D01*
X10333900Y15510927D01*
X10325603Y15541892D01*
X10327264Y15611740D01*
X10366426Y15669603D01*
X10430654Y15697108D01*
X10477468Y15693761D01*
X10497473Y15688400D01*
X10497475Y15688400D01*
X10602925Y15688400D01*
X10602927Y15688400D01*
X10704787Y15715693D01*
X10796113Y15768420D01*
X10812082Y15784390D01*
X10873402Y15817875D01*
X10943094Y15812892D01*
X10961761Y15804097D01*
X10972462Y15797920D01*
X10974413Y15796793D01*
X11076273Y15769500D01*
X11076275Y15769500D01*
X11181725Y15769500D01*
X11181727Y15769500D01*
X11283587Y15796793D01*
X11374913Y15849520D01*
X11449480Y15924087D01*
X11502207Y16015413D01*
X11529500Y16117273D01*
X11529500Y16222727D01*
X11502207Y16324587D01*
X11449480Y16415913D01*
X11374913Y16490480D01*
X11283587Y16543207D01*
X11181727Y16570500D01*
X11076273Y16570500D01*
X10974413Y16543207D01*
X10974410Y16543206D01*
X10883085Y16490479D01*
X10867115Y16474509D01*
X10805791Y16441025D01*
X10736100Y16446011D01*
X10717440Y16454803D01*
X10704793Y16462105D01*
X10704787Y16462107D01*
X10602927Y16489400D01*
X10497473Y16489400D01*
X10395613Y16462107D01*
X10395610Y16462106D01*
X10304285Y16409379D01*
X10229721Y16334815D01*
X10176994Y16243490D01*
X10176993Y16243487D01*
X10149700Y16141627D01*
X10149700Y16036173D01*
X10155262Y16015414D01*
X10157997Y16005209D01*
X10156334Y15935359D01*
X10117171Y15877497D01*
X10052943Y15849993D01*
X10006132Y15853340D01*
X9996208Y15855999D01*
X9986127Y15858700D01*
X9880673Y15858700D01*
X9778813Y15831407D01*
X9778810Y15831406D01*
X9687485Y15778679D01*
X9612921Y15704115D01*
X9560194Y15612790D01*
X9560193Y15612787D01*
X9532900Y15510927D01*
X6305466Y15510927D01*
X6245913Y15570480D01*
X6179059Y15609078D01*
X6154589Y15623206D01*
X6154588Y15623207D01*
X6154587Y15623207D01*
X6052727Y15650500D01*
X5947273Y15650500D01*
X5845413Y15623207D01*
X5845410Y15623206D01*
X5754083Y15570478D01*
X5752540Y15568934D01*
X5750917Y15568049D01*
X5747637Y15565531D01*
X5747244Y15566043D01*
X5691215Y15535453D01*
X5621523Y15540442D01*
X5602865Y15549234D01*
X5554589Y15577106D01*
X5554588Y15577107D01*
X5554587Y15577107D01*
X5452727Y15604400D01*
X5347273Y15604400D01*
X5245413Y15577107D01*
X5245410Y15577106D01*
X5154085Y15524379D01*
X5073773Y15444066D01*
X5071402Y15446437D01*
X5027494Y15414418D01*
X4957745Y15410308D01*
X4897940Y15443453D01*
X4845914Y15495479D01*
X4845913Y15495480D01*
X4776678Y15535453D01*
X4754589Y15548206D01*
X4754588Y15548207D01*
X4754587Y15548207D01*
X4652727Y15575500D01*
X4547273Y15575500D01*
X4445413Y15548207D01*
X4445410Y15548206D01*
X4382704Y15512002D01*
X4314804Y15495529D01*
X4253201Y15516851D01*
X4252951Y15516416D01*
X4250696Y15517718D01*
X4248777Y15518382D01*
X4246035Y15520409D01*
X4245914Y15520479D01*
X4245913Y15520480D01*
X4167882Y15565531D01*
X4154589Y15573206D01*
X4154588Y15573207D01*
X4154587Y15573207D01*
X4052727Y15600500D01*
X3947273Y15600500D01*
X3845413Y15573207D01*
X3845410Y15573206D01*
X3754085Y15520479D01*
X3679521Y15445915D01*
X3626794Y15354590D01*
X3626793Y15354587D01*
X3599500Y15252727D01*
X3159129Y15252727D01*
X3198207Y15320413D01*
X3225500Y15422273D01*
X3225500Y15527727D01*
X3198207Y15629587D01*
X3145480Y15720913D01*
X3070913Y15795480D01*
X2979587Y15848207D01*
X2877727Y15875500D01*
X2772273Y15875500D01*
X2670413Y15848207D01*
X2670410Y15848206D01*
X2579085Y15795479D01*
X2504521Y15720915D01*
X2451794Y15629590D01*
X2451793Y15629587D01*
X2424500Y15527727D01*
X1485679Y15527727D01*
X1459880Y15572413D01*
X1385313Y15646980D01*
X1293987Y15699707D01*
X1192127Y15727000D01*
X1086673Y15727000D01*
X984813Y15699707D01*
X984810Y15699706D01*
X893485Y15646979D01*
X818921Y15572415D01*
X766194Y15481090D01*
X766193Y15481087D01*
X738900Y15379227D01*
X500500Y15379227D01*
X500500Y16249591D01*
X520185Y16316630D01*
X572989Y16362385D01*
X642147Y16372329D01*
X705703Y16343304D01*
X731884Y16311594D01*
X779520Y16229087D01*
X854087Y16154520D01*
X945413Y16101793D01*
X1047273Y16074500D01*
X1047275Y16074500D01*
X1152725Y16074500D01*
X1152727Y16074500D01*
X1254587Y16101793D01*
X1345913Y16154520D01*
X1420480Y16229087D01*
X1473207Y16320413D01*
X1500500Y16422273D01*
X1500500Y16527727D01*
X1473207Y16629587D01*
X1420480Y16720913D01*
X1345913Y16795480D01*
X1262498Y16843640D01*
X1258042Y16848313D01*
X1251954Y16850462D01*
X1234227Y16873290D01*
X1214284Y16894207D01*
X1212074Y16901820D01*
X1209102Y16905647D01*
X1205600Y16924119D01*
X1200991Y16939997D01*
X1200500Y16945495D01*
X1200500Y17002727D01*
X1189193Y17044927D01*
X2376900Y17044927D01*
X2376900Y16939473D01*
X2404193Y16837613D01*
X2456920Y16746287D01*
X2531487Y16671720D01*
X2622813Y16618993D01*
X2724673Y16591700D01*
X2724675Y16591700D01*
X2830125Y16591700D01*
X2830127Y16591700D01*
X2871281Y16602727D01*
X5349500Y16602727D01*
X5349500Y16497273D01*
X5376793Y16395413D01*
X5429520Y16304087D01*
X5504087Y16229520D01*
X5595413Y16176793D01*
X5697273Y16149500D01*
X5697275Y16149500D01*
X5802725Y16149500D01*
X5802727Y16149500D01*
X5904587Y16176793D01*
X5995913Y16229520D01*
X6070480Y16304087D01*
X6123207Y16395413D01*
X6150500Y16497273D01*
X6150500Y16602727D01*
X6123207Y16704587D01*
X6070480Y16795913D01*
X5995913Y16870480D01*
X5907878Y16921307D01*
X5904589Y16923206D01*
X5904588Y16923207D01*
X5904587Y16923207D01*
X5802727Y16950500D01*
X5697273Y16950500D01*
X5595413Y16923207D01*
X5595410Y16923206D01*
X5504085Y16870479D01*
X5429521Y16795915D01*
X5376794Y16704590D01*
X5376793Y16704587D01*
X5349500Y16602727D01*
X2871281Y16602727D01*
X2931987Y16618993D01*
X3023313Y16671720D01*
X3097880Y16746287D01*
X3150607Y16837613D01*
X3177900Y16939473D01*
X3177900Y17044927D01*
X3150607Y17146787D01*
X3097880Y17238113D01*
X3023313Y17312680D01*
X2931987Y17365407D01*
X2830127Y17392700D01*
X2724673Y17392700D01*
X2622813Y17365407D01*
X2622810Y17365406D01*
X2531485Y17312679D01*
X2456921Y17238115D01*
X2404194Y17146790D01*
X2404193Y17146787D01*
X2376900Y17044927D01*
X1189193Y17044927D01*
X1173207Y17104587D01*
X1120480Y17195913D01*
X1045913Y17270480D01*
X954587Y17323207D01*
X852727Y17350500D01*
X747273Y17350500D01*
X747271Y17350500D01*
X656592Y17326203D01*
X586743Y17327866D01*
X528880Y17367029D01*
X501377Y17431258D01*
X500500Y17445978D01*
X500500Y17564227D01*
X6851800Y17564227D01*
X6851800Y17458773D01*
X6879093Y17356915D01*
X6879093Y17356914D01*
X6879094Y17356911D01*
X6893222Y17332441D01*
X6931820Y17265587D01*
X7006387Y17191020D01*
X7097713Y17138293D01*
X7199573Y17111000D01*
X7199575Y17111000D01*
X7305025Y17111000D01*
X7305027Y17111000D01*
X7406887Y17138293D01*
X7498213Y17191020D01*
X7572780Y17265587D01*
X7625507Y17356913D01*
X7631084Y17377727D01*
X8524500Y17377727D01*
X8524500Y17272273D01*
X8551793Y17170413D01*
X8604520Y17079087D01*
X8679087Y17004520D01*
X8679093Y17004517D01*
X8685189Y16999839D01*
X8726393Y16943412D01*
X8730550Y16873666D01*
X8697387Y16813781D01*
X8654521Y16770915D01*
X8601794Y16679590D01*
X8601793Y16679587D01*
X8574500Y16577727D01*
X8574500Y16472273D01*
X8601793Y16370413D01*
X8654520Y16279087D01*
X8729087Y16204520D01*
X8820413Y16151793D01*
X8922273Y16124500D01*
X8922275Y16124500D01*
X9027725Y16124500D01*
X9027727Y16124500D01*
X9129587Y16151793D01*
X9220913Y16204520D01*
X9295480Y16279087D01*
X9348207Y16370413D01*
X9375500Y16472273D01*
X9375500Y16577727D01*
X9348207Y16679587D01*
X9295480Y16770913D01*
X9220913Y16845480D01*
X9220910Y16845482D01*
X9214809Y16850163D01*
X9205711Y16862623D01*
X9193110Y16871525D01*
X9185526Y16890265D01*
X9173605Y16906591D01*
X9172687Y16921992D01*
X9166900Y16936293D01*
X9170652Y16956159D01*
X9169450Y16976337D01*
X9177191Y16990782D01*
X9179447Y17002727D01*
X12449500Y17002727D01*
X12449500Y16897273D01*
X12476793Y16795413D01*
X12529520Y16704087D01*
X12604087Y16629520D01*
X12695413Y16576793D01*
X12797273Y16549500D01*
X12797275Y16549500D01*
X12902725Y16549500D01*
X12902727Y16549500D01*
X13004587Y16576793D01*
X13095913Y16629520D01*
X13170480Y16704087D01*
X13223207Y16795413D01*
X13250500Y16897273D01*
X13250500Y17002727D01*
X13223207Y17104587D01*
X13170480Y17195913D01*
X13095913Y17270480D01*
X13004587Y17323207D01*
X12902727Y17350500D01*
X12797273Y17350500D01*
X12695413Y17323207D01*
X12695410Y17323206D01*
X12604085Y17270479D01*
X12529521Y17195915D01*
X12476794Y17104590D01*
X12476793Y17104587D01*
X12449500Y17002727D01*
X9179447Y17002727D01*
X9179867Y17004948D01*
X9198548Y17030632D01*
X9200232Y17033774D01*
X9201379Y17034987D01*
X9245480Y17079087D01*
X9298207Y17170413D01*
X9325500Y17272273D01*
X9325500Y17377727D01*
X9298207Y17479587D01*
X9280910Y17509546D01*
X9264438Y17577443D01*
X9287290Y17643470D01*
X9300612Y17659220D01*
X9341580Y17700187D01*
X9394307Y17791513D01*
X9421600Y17893373D01*
X9421600Y17927727D01*
X11374500Y17927727D01*
X11374500Y17822273D01*
X11401793Y17720413D01*
X11454520Y17629087D01*
X11529087Y17554520D01*
X11620413Y17501793D01*
X11722273Y17474500D01*
X11722275Y17474500D01*
X11827725Y17474500D01*
X11827727Y17474500D01*
X11929587Y17501793D01*
X12020913Y17554520D01*
X12095480Y17629087D01*
X12148207Y17720413D01*
X12175500Y17822273D01*
X12175500Y17927727D01*
X12148207Y18029587D01*
X12095480Y18120913D01*
X12020913Y18195480D01*
X11929587Y18248207D01*
X11827727Y18275500D01*
X11722273Y18275500D01*
X11620413Y18248207D01*
X11620410Y18248206D01*
X11529085Y18195479D01*
X11454521Y18120915D01*
X11401794Y18029590D01*
X11401793Y18029587D01*
X11374500Y17927727D01*
X9421600Y17927727D01*
X9421600Y17998827D01*
X9394307Y18100687D01*
X9341580Y18192013D01*
X9267013Y18266580D01*
X9175687Y18319307D01*
X9073827Y18346600D01*
X8968373Y18346600D01*
X8866513Y18319307D01*
X8866510Y18319306D01*
X8775185Y18266579D01*
X8700621Y18192015D01*
X8647894Y18100690D01*
X8647893Y18100687D01*
X8620600Y17998827D01*
X8620600Y17893373D01*
X8639651Y17822275D01*
X8647893Y17791514D01*
X8647894Y17791511D01*
X8665188Y17761557D01*
X8681661Y17693657D01*
X8658808Y17627630D01*
X8645483Y17611877D01*
X8604521Y17570915D01*
X8551794Y17479590D01*
X8551793Y17479587D01*
X8524500Y17377727D01*
X7631084Y17377727D01*
X7652800Y17458773D01*
X7652800Y17564227D01*
X7625507Y17666087D01*
X7572780Y17757413D01*
X7498213Y17831980D01*
X7406887Y17884707D01*
X7305027Y17912000D01*
X7199573Y17912000D01*
X7097713Y17884707D01*
X7097710Y17884706D01*
X7006385Y17831979D01*
X6931821Y17757415D01*
X6879094Y17666090D01*
X6879093Y17666087D01*
X6851800Y17564227D01*
X500500Y17564227D01*
X500500Y18370627D01*
X15444600Y18370627D01*
X15444600Y18265173D01*
X15471893Y18163313D01*
X15524620Y18071987D01*
X15599187Y17997420D01*
X15690513Y17944693D01*
X15792373Y17917400D01*
X15792375Y17917400D01*
X15897825Y17917400D01*
X15897827Y17917400D01*
X15936368Y17927727D01*
X16424500Y17927727D01*
X16424500Y17822273D01*
X16451793Y17720413D01*
X16504520Y17629087D01*
X16579087Y17554520D01*
X16670413Y17501793D01*
X16772273Y17474500D01*
X16772275Y17474500D01*
X16877725Y17474500D01*
X16877727Y17474500D01*
X16979587Y17501793D01*
X17070913Y17554520D01*
X17145480Y17629087D01*
X17198207Y17720413D01*
X17225500Y17822273D01*
X17225500Y17927727D01*
X17198207Y18029587D01*
X17145480Y18120913D01*
X17070913Y18195480D01*
X16979587Y18248207D01*
X16877727Y18275500D01*
X16772273Y18275500D01*
X16670413Y18248207D01*
X16670410Y18248206D01*
X16579085Y18195479D01*
X16504521Y18120915D01*
X16451794Y18029590D01*
X16451793Y18029587D01*
X16424500Y17927727D01*
X15936368Y17927727D01*
X15999687Y17944693D01*
X16091013Y17997420D01*
X16165580Y18071987D01*
X16218307Y18163313D01*
X16245600Y18265173D01*
X16245600Y18370627D01*
X16221270Y18461427D01*
X18893300Y18461427D01*
X18893300Y18355973D01*
X18920593Y18254113D01*
X18973320Y18162787D01*
X19047887Y18088220D01*
X19139213Y18035493D01*
X19241073Y18008200D01*
X19241075Y18008200D01*
X19346525Y18008200D01*
X19346527Y18008200D01*
X19448387Y18035493D01*
X19539713Y18088220D01*
X19614280Y18162787D01*
X19667007Y18254113D01*
X19694300Y18355973D01*
X19694300Y18461427D01*
X19667007Y18563287D01*
X19638035Y18613467D01*
X19621563Y18681366D01*
X19644415Y18747393D01*
X19699337Y18790584D01*
X19713312Y18795236D01*
X19737787Y18801793D01*
X19829113Y18854520D01*
X19903680Y18929087D01*
X19956407Y19020413D01*
X19983700Y19122273D01*
X19983700Y19227727D01*
X19956407Y19329587D01*
X19947017Y19345851D01*
X19930544Y19413748D01*
X19953395Y19479775D01*
X19966713Y19495521D01*
X19995080Y19523887D01*
X20047807Y19615213D01*
X20075100Y19717073D01*
X20075100Y19822527D01*
X20047807Y19924387D01*
X19995080Y20015713D01*
X19920513Y20090280D01*
X19829187Y20143007D01*
X19727327Y20170300D01*
X19621873Y20170300D01*
X19520013Y20143007D01*
X19520010Y20143006D01*
X19428685Y20090279D01*
X19354121Y20015715D01*
X19301394Y19924390D01*
X19301393Y19924387D01*
X19274100Y19822527D01*
X19274100Y19717073D01*
X19301393Y19615213D01*
X19310782Y19598950D01*
X19327255Y19531051D01*
X19304403Y19465024D01*
X19291078Y19449271D01*
X19262720Y19420913D01*
X19209994Y19329590D01*
X19209993Y19329587D01*
X19182700Y19227727D01*
X19182700Y19122273D01*
X19202200Y19049500D01*
X19209993Y19020414D01*
X19209994Y19020411D01*
X19238963Y18970235D01*
X19255436Y18902334D01*
X19232583Y18836308D01*
X19177662Y18793117D01*
X19163671Y18788461D01*
X19139217Y18781909D01*
X19139210Y18781906D01*
X19047885Y18729179D01*
X18973321Y18654615D01*
X18920594Y18563290D01*
X18920593Y18563287D01*
X18893300Y18461427D01*
X16221270Y18461427D01*
X16218307Y18472487D01*
X16165580Y18563813D01*
X16091013Y18638380D01*
X15999687Y18691107D01*
X15897827Y18718400D01*
X15792373Y18718400D01*
X15690513Y18691107D01*
X15690510Y18691106D01*
X15599185Y18638379D01*
X15524621Y18563815D01*
X15471894Y18472490D01*
X15471894Y18472489D01*
X15471893Y18472487D01*
X15444600Y18370627D01*
X500500Y18370627D01*
X500500Y19502727D01*
X874500Y19502727D01*
X874500Y19397273D01*
X901793Y19295413D01*
X954520Y19204087D01*
X1029087Y19129520D01*
X1120413Y19076793D01*
X1222273Y19049500D01*
X1222275Y19049500D01*
X1327725Y19049500D01*
X1327727Y19049500D01*
X1387541Y19065527D01*
X3937800Y19065527D01*
X3937800Y18960073D01*
X3965093Y18858213D01*
X4017820Y18766887D01*
X4092387Y18692320D01*
X4183713Y18639593D01*
X4285573Y18612300D01*
X4285575Y18612300D01*
X4391025Y18612300D01*
X4391027Y18612300D01*
X4492887Y18639593D01*
X4584213Y18692320D01*
X4658780Y18766887D01*
X4711507Y18858213D01*
X4738800Y18960073D01*
X4738800Y19065527D01*
X4711507Y19167387D01*
X4676670Y19227727D01*
X4999500Y19227727D01*
X4999500Y19122273D01*
X5026793Y19020413D01*
X5079520Y18929087D01*
X5154087Y18854520D01*
X5245413Y18801793D01*
X5347273Y18774500D01*
X5347275Y18774500D01*
X5452725Y18774500D01*
X5452727Y18774500D01*
X5554587Y18801793D01*
X5645913Y18854520D01*
X5720480Y18929087D01*
X5773207Y19020413D01*
X5788564Y19077727D01*
X7674500Y19077727D01*
X7674500Y18972273D01*
X7701793Y18870413D01*
X7754520Y18779087D01*
X7829087Y18704520D01*
X7920413Y18651793D01*
X8022273Y18624500D01*
X8022275Y18624500D01*
X8127725Y18624500D01*
X8127727Y18624500D01*
X8229587Y18651793D01*
X8320913Y18704520D01*
X8395480Y18779087D01*
X8448207Y18870413D01*
X8475500Y18972273D01*
X8475500Y19077727D01*
X8448705Y19177727D01*
X12274500Y19177727D01*
X12274500Y19072273D01*
X12301793Y18970413D01*
X12354520Y18879087D01*
X12429087Y18804520D01*
X12520413Y18751793D01*
X12622273Y18724500D01*
X12622275Y18724500D01*
X12727725Y18724500D01*
X12727727Y18724500D01*
X12829587Y18751793D01*
X12920913Y18804520D01*
X12995480Y18879087D01*
X13048207Y18970413D01*
X13075500Y19072273D01*
X13075500Y19102727D01*
X13849500Y19102727D01*
X13849500Y18997273D01*
X13876793Y18895413D01*
X13929520Y18804087D01*
X14004087Y18729520D01*
X14095413Y18676793D01*
X14197273Y18649500D01*
X14197275Y18649500D01*
X14302725Y18649500D01*
X14302727Y18649500D01*
X14404587Y18676793D01*
X14495913Y18729520D01*
X14570480Y18804087D01*
X14623207Y18895413D01*
X14650500Y18997273D01*
X14650500Y19102727D01*
X14623207Y19204587D01*
X14570480Y19295913D01*
X14495913Y19370480D01*
X14483361Y19377727D01*
X17374500Y19377727D01*
X17374500Y19272273D01*
X17401793Y19170413D01*
X17454520Y19079087D01*
X17529087Y19004520D01*
X17620413Y18951793D01*
X17722273Y18924500D01*
X17722275Y18924500D01*
X17827725Y18924500D01*
X17827727Y18924500D01*
X17929587Y18951793D01*
X18020913Y19004520D01*
X18095480Y19079087D01*
X18148207Y19170413D01*
X18175500Y19272273D01*
X18175500Y19377727D01*
X18148207Y19479587D01*
X18095480Y19570913D01*
X18020913Y19645480D01*
X17954059Y19684078D01*
X17929589Y19698206D01*
X17929588Y19698207D01*
X17929587Y19698207D01*
X17827727Y19725500D01*
X17722273Y19725500D01*
X17620413Y19698207D01*
X17620410Y19698206D01*
X17529085Y19645479D01*
X17454521Y19570915D01*
X17401794Y19479590D01*
X17401793Y19479587D01*
X17374500Y19377727D01*
X14483361Y19377727D01*
X14429059Y19409078D01*
X14404589Y19423206D01*
X14404588Y19423207D01*
X14404587Y19423207D01*
X14302727Y19450500D01*
X14197273Y19450500D01*
X14095413Y19423207D01*
X14095410Y19423206D01*
X14004085Y19370479D01*
X13929521Y19295915D01*
X13876794Y19204590D01*
X13876793Y19204587D01*
X13849500Y19102727D01*
X13075500Y19102727D01*
X13075500Y19177727D01*
X13048207Y19279587D01*
X12995480Y19370913D01*
X12920913Y19445480D01*
X12834312Y19495479D01*
X12829589Y19498206D01*
X12829588Y19498207D01*
X12829587Y19498207D01*
X12727727Y19525500D01*
X12622273Y19525500D01*
X12520413Y19498207D01*
X12520410Y19498206D01*
X12429085Y19445479D01*
X12354521Y19370915D01*
X12301794Y19279590D01*
X12301793Y19279587D01*
X12274500Y19177727D01*
X8448705Y19177727D01*
X8448207Y19179587D01*
X8395480Y19270913D01*
X8320913Y19345480D01*
X8231203Y19397274D01*
X8229589Y19398206D01*
X8229588Y19398207D01*
X8229587Y19398207D01*
X8127727Y19425500D01*
X8022273Y19425500D01*
X7920413Y19398207D01*
X7920410Y19398206D01*
X7829085Y19345479D01*
X7754521Y19270915D01*
X7701794Y19179590D01*
X7701794Y19179589D01*
X7701793Y19179587D01*
X7674500Y19077727D01*
X5788564Y19077727D01*
X5800500Y19122273D01*
X5800500Y19227727D01*
X5773207Y19329587D01*
X5720480Y19420913D01*
X5645913Y19495480D01*
X5554587Y19548207D01*
X5452727Y19575500D01*
X5347273Y19575500D01*
X5245413Y19548207D01*
X5245410Y19548206D01*
X5154085Y19495479D01*
X5079521Y19420915D01*
X5026794Y19329590D01*
X5026793Y19329587D01*
X4999500Y19227727D01*
X4676670Y19227727D01*
X4658780Y19258713D01*
X4584213Y19333280D01*
X4507232Y19377725D01*
X4492889Y19386006D01*
X4492888Y19386007D01*
X4492887Y19386007D01*
X4391027Y19413300D01*
X4285573Y19413300D01*
X4183713Y19386007D01*
X4183710Y19386006D01*
X4092385Y19333279D01*
X4017821Y19258715D01*
X3965094Y19167390D01*
X3965093Y19167387D01*
X3937800Y19065527D01*
X1387541Y19065527D01*
X1429587Y19076793D01*
X1520913Y19129520D01*
X1595480Y19204087D01*
X1648207Y19295413D01*
X1675500Y19397273D01*
X1675500Y19502727D01*
X1648207Y19604587D01*
X1595480Y19695913D01*
X1520913Y19770480D01*
X1454059Y19809078D01*
X1429589Y19823206D01*
X1429588Y19823207D01*
X1429587Y19823207D01*
X1327727Y19850500D01*
X1222273Y19850500D01*
X1120413Y19823207D01*
X1120410Y19823206D01*
X1029085Y19770479D01*
X954521Y19695915D01*
X901794Y19604590D01*
X901793Y19604587D01*
X874500Y19502727D01*
X500500Y19502727D01*
X500500Y20427727D01*
X4599500Y20427727D01*
X4599500Y20322273D01*
X4626793Y20220413D01*
X4679520Y20129087D01*
X4754087Y20054520D01*
X4845413Y20001793D01*
X4947273Y19974500D01*
X4947275Y19974500D01*
X5052725Y19974500D01*
X5052727Y19974500D01*
X5154587Y20001793D01*
X5245913Y20054520D01*
X5320480Y20129087D01*
X5373207Y20220413D01*
X5400500Y20322273D01*
X5400500Y20327527D01*
X8114300Y20327527D01*
X8114300Y20222073D01*
X8141593Y20120213D01*
X8194320Y20028887D01*
X8268887Y19954320D01*
X8360213Y19901593D01*
X8462073Y19874300D01*
X8462075Y19874300D01*
X8567525Y19874300D01*
X8567527Y19874300D01*
X8669387Y19901593D01*
X8760713Y19954320D01*
X8835280Y20028887D01*
X8888007Y20120213D01*
X8915300Y20222073D01*
X8915300Y20277727D01*
X10449500Y20277727D01*
X10449500Y20172273D01*
X10476793Y20070413D01*
X10529520Y19979087D01*
X10604087Y19904520D01*
X10695413Y19851793D01*
X10797273Y19824500D01*
X10797275Y19824500D01*
X10902725Y19824500D01*
X10902727Y19824500D01*
X11004587Y19851793D01*
X11095913Y19904520D01*
X11170480Y19979087D01*
X11223207Y20070413D01*
X11250500Y20172273D01*
X11250500Y20252727D01*
X15299500Y20252727D01*
X15299500Y20147273D01*
X15326793Y20045413D01*
X15379520Y19954087D01*
X15454087Y19879520D01*
X15545413Y19826793D01*
X15647273Y19799500D01*
X15647275Y19799500D01*
X15752725Y19799500D01*
X15752727Y19799500D01*
X15854587Y19826793D01*
X15945913Y19879520D01*
X16020480Y19954087D01*
X16073207Y20045413D01*
X16073207Y20045414D01*
X16077271Y20052452D01*
X16078404Y20051798D01*
X16116988Y20099683D01*
X16183281Y20121752D01*
X16250982Y20104476D01*
X16275395Y20085512D01*
X16312687Y20048220D01*
X16404013Y19995493D01*
X16505873Y19968200D01*
X16505875Y19968200D01*
X16611325Y19968200D01*
X16611327Y19968200D01*
X16713187Y19995493D01*
X16804513Y20048220D01*
X16879080Y20122787D01*
X16931807Y20214113D01*
X16959100Y20315973D01*
X16959100Y20421427D01*
X16931807Y20523287D01*
X16879080Y20614613D01*
X16804513Y20689180D01*
X16713187Y20741907D01*
X16611327Y20769200D01*
X16505873Y20769200D01*
X16404013Y20741907D01*
X16404010Y20741906D01*
X16312685Y20689179D01*
X16238121Y20614615D01*
X16181329Y20516248D01*
X16180198Y20516901D01*
X16141594Y20469006D01*
X16075297Y20446949D01*
X16007600Y20464235D01*
X15983204Y20483189D01*
X15945914Y20520479D01*
X15945913Y20520480D01*
X15854587Y20573207D01*
X15752727Y20600500D01*
X15647273Y20600500D01*
X15545413Y20573207D01*
X15545410Y20573206D01*
X15454085Y20520479D01*
X15379521Y20445915D01*
X15326794Y20354590D01*
X15326793Y20354587D01*
X15299500Y20252727D01*
X11250500Y20252727D01*
X11250500Y20277727D01*
X11223207Y20379587D01*
X11170480Y20470913D01*
X11095913Y20545480D01*
X11029059Y20584078D01*
X11004589Y20598206D01*
X11004588Y20598207D01*
X11004587Y20598207D01*
X10902727Y20625500D01*
X10797273Y20625500D01*
X10695413Y20598207D01*
X10695410Y20598206D01*
X10604085Y20545479D01*
X10529521Y20470915D01*
X10476794Y20379590D01*
X10476793Y20379587D01*
X10449500Y20277727D01*
X8915300Y20277727D01*
X8915300Y20327527D01*
X8888007Y20429387D01*
X8835280Y20520713D01*
X8760713Y20595280D01*
X8669387Y20648007D01*
X8567527Y20675300D01*
X8462073Y20675300D01*
X8360213Y20648007D01*
X8360210Y20648006D01*
X8268885Y20595279D01*
X8194321Y20520715D01*
X8141594Y20429390D01*
X8141593Y20429387D01*
X8114300Y20327527D01*
X5400500Y20327527D01*
X5400500Y20427727D01*
X5373207Y20529587D01*
X5320480Y20620913D01*
X5245913Y20695480D01*
X5154587Y20748207D01*
X5052727Y20775500D01*
X4947273Y20775500D01*
X4845413Y20748207D01*
X4845410Y20748206D01*
X4754085Y20695479D01*
X4679521Y20620915D01*
X4626794Y20529590D01*
X4626793Y20529587D01*
X4599500Y20427727D01*
X500500Y20427727D01*
X500500Y22252727D01*
X6349500Y22252727D01*
X6349500Y22147273D01*
X6376793Y22045413D01*
X6419229Y21971911D01*
X6429521Y21954086D01*
X6458487Y21925120D01*
X6491972Y21863797D01*
X6486988Y21794105D01*
X6478194Y21775440D01*
X6444793Y21717588D01*
X6444793Y21717587D01*
X6417500Y21615727D01*
X6417500Y21510273D01*
X6444793Y21408413D01*
X6497520Y21317087D01*
X6572087Y21242520D01*
X6663413Y21189793D01*
X6765273Y21162500D01*
X6765275Y21162500D01*
X6870725Y21162500D01*
X6870727Y21162500D01*
X6972587Y21189793D01*
X7063913Y21242520D01*
X7138480Y21317087D01*
X7191207Y21408413D01*
X7218500Y21510273D01*
X7218500Y21615727D01*
X7215285Y21627727D01*
X9424500Y21627727D01*
X9424500Y21522273D01*
X9451793Y21420413D01*
X9504520Y21329087D01*
X9579087Y21254520D01*
X9670413Y21201793D01*
X9772273Y21174500D01*
X9772275Y21174500D01*
X9877725Y21174500D01*
X9877727Y21174500D01*
X9979587Y21201793D01*
X10070913Y21254520D01*
X10145480Y21329087D01*
X10198207Y21420413D01*
X10225500Y21522273D01*
X10225500Y21627727D01*
X10198207Y21729587D01*
X10145480Y21820913D01*
X10070913Y21895480D01*
X9979587Y21948207D01*
X9877727Y21975500D01*
X9772273Y21975500D01*
X9670413Y21948207D01*
X9670410Y21948206D01*
X9579085Y21895479D01*
X9504521Y21820915D01*
X9451794Y21729590D01*
X9451793Y21729587D01*
X9424500Y21627727D01*
X7215285Y21627727D01*
X7191207Y21717587D01*
X7138480Y21808913D01*
X7109512Y21837881D01*
X7076027Y21899204D01*
X7081011Y21968896D01*
X7089800Y21987551D01*
X7123207Y22045413D01*
X7150500Y22147273D01*
X7150500Y22252727D01*
X7138233Y22298509D01*
X7139896Y22368358D01*
X7179059Y22426220D01*
X7195989Y22437976D01*
X7222913Y22453520D01*
X7297480Y22528087D01*
X7334885Y22592876D01*
X7385451Y22641089D01*
X7454058Y22654313D01*
X7518923Y22628345D01*
X7529826Y22618667D01*
X7529883Y22618623D01*
X7529885Y22618622D01*
X7529887Y22618620D01*
X7621213Y22565893D01*
X7723073Y22538600D01*
X7723075Y22538600D01*
X7828525Y22538600D01*
X7828527Y22538600D01*
X7930387Y22565893D01*
X8021713Y22618620D01*
X8096280Y22693187D01*
X8124247Y22741627D01*
X11814500Y22741627D01*
X11814500Y22636173D01*
X11840645Y22538600D01*
X11841793Y22534314D01*
X11841794Y22534311D01*
X11846015Y22527000D01*
X11894520Y22442987D01*
X11969087Y22368420D01*
X12060413Y22315693D01*
X12162273Y22288400D01*
X12162275Y22288400D01*
X12267725Y22288400D01*
X12267727Y22288400D01*
X12369587Y22315693D01*
X12460913Y22368420D01*
X12535480Y22442987D01*
X12588207Y22534313D01*
X12615500Y22636173D01*
X12615500Y22741627D01*
X12588207Y22843487D01*
X12535480Y22934813D01*
X12460913Y23009380D01*
X12369587Y23062107D01*
X12267727Y23089400D01*
X12162273Y23089400D01*
X12060413Y23062107D01*
X12060410Y23062106D01*
X11969085Y23009379D01*
X11894521Y22934815D01*
X11841794Y22843490D01*
X11841793Y22843487D01*
X11814500Y22741627D01*
X8124247Y22741627D01*
X8149007Y22784513D01*
X8176300Y22886373D01*
X8176300Y22991827D01*
X8149007Y23093687D01*
X8096280Y23185013D01*
X8096279Y23185014D01*
X8096278Y23185016D01*
X8086521Y23194773D01*
X8086063Y23195611D01*
X8085233Y23196080D01*
X8069343Y23226233D01*
X8053038Y23256097D01*
X8053106Y23257048D01*
X8052661Y23257892D01*
X8055595Y23291831D01*
X8058025Y23325788D01*
X8058623Y23326866D01*
X8058679Y23327503D01*
X8060683Y23330572D01*
X8076051Y23358225D01*
X8080902Y23364510D01*
X8089519Y23373127D01*
X12790200Y23373127D01*
X12790200Y23267673D01*
X12817493Y23165813D01*
X12870220Y23074487D01*
X12944787Y22999920D01*
X13012500Y22960826D01*
X13060715Y22910261D01*
X13074500Y22853440D01*
X13074500Y22822273D01*
X13101793Y22720413D01*
X13154520Y22629087D01*
X13229087Y22554520D01*
X13232844Y22552351D01*
X13235379Y22549692D01*
X13235533Y22549574D01*
X13235514Y22549551D01*
X13281058Y22501784D01*
X13294279Y22433177D01*
X13290616Y22412875D01*
X13274500Y22352727D01*
X13274500Y22247273D01*
X13301793Y22145413D01*
X13354520Y22054087D01*
X13429087Y21979520D01*
X13520413Y21926793D01*
X13622273Y21899500D01*
X13622275Y21899500D01*
X13687988Y21899500D01*
X13755027Y21879815D01*
X13800782Y21827011D01*
X13810726Y21757853D01*
X13781701Y21694297D01*
X13759878Y21676279D01*
X13760533Y21675426D01*
X13754087Y21670481D01*
X13679521Y21595915D01*
X13626794Y21504590D01*
X13626793Y21504587D01*
X13599500Y21402727D01*
X13599500Y21297273D01*
X13625084Y21201794D01*
X13626793Y21195414D01*
X13626794Y21195411D01*
X13630037Y21189794D01*
X13679520Y21104087D01*
X13754087Y21029520D01*
X13845413Y20976793D01*
X13947273Y20949500D01*
X13947275Y20949500D01*
X14052725Y20949500D01*
X14052727Y20949500D01*
X14154587Y20976793D01*
X14245913Y21029520D01*
X14320480Y21104087D01*
X14373207Y21195413D01*
X14400500Y21297273D01*
X14400500Y21402727D01*
X14373207Y21504587D01*
X14320480Y21595913D01*
X14245913Y21670480D01*
X14164321Y21717587D01*
X14154589Y21723206D01*
X14154588Y21723207D01*
X14154587Y21723207D01*
X14052727Y21750500D01*
X13987012Y21750500D01*
X13919973Y21770185D01*
X13874218Y21822989D01*
X13864274Y21892147D01*
X13891392Y21951527D01*
X15268700Y21951527D01*
X15268700Y21846073D01*
X15295993Y21744213D01*
X15348720Y21652887D01*
X15423287Y21578320D01*
X15514613Y21525593D01*
X15616473Y21498300D01*
X15616475Y21498300D01*
X15721925Y21498300D01*
X15721927Y21498300D01*
X15823787Y21525593D01*
X15915113Y21578320D01*
X15989680Y21652887D01*
X16042407Y21744213D01*
X16069700Y21846073D01*
X16069700Y21951527D01*
X16042407Y22053387D01*
X15989680Y22144713D01*
X15955166Y22179227D01*
X16643400Y22179227D01*
X16643400Y22073773D01*
X16670693Y21971913D01*
X16723420Y21880587D01*
X16797987Y21806020D01*
X16889313Y21753293D01*
X16991173Y21726000D01*
X16991175Y21726000D01*
X17096625Y21726000D01*
X17096627Y21726000D01*
X17198487Y21753293D01*
X17289813Y21806020D01*
X17364380Y21880587D01*
X17417107Y21971913D01*
X17444400Y22073773D01*
X17444400Y22086300D01*
X17464085Y22153339D01*
X17516889Y22199094D01*
X17560940Y22208678D01*
X17560867Y22209239D01*
X17567595Y22210125D01*
X17568400Y22210300D01*
X17568925Y22210300D01*
X17568927Y22210300D01*
X17670787Y22237593D01*
X17762113Y22290320D01*
X17836680Y22364887D01*
X17889407Y22456213D01*
X17916700Y22558073D01*
X17916700Y22663527D01*
X17889407Y22765387D01*
X17836680Y22856713D01*
X17762113Y22931280D01*
X17670787Y22984007D01*
X17568927Y23011300D01*
X17463473Y23011300D01*
X17361613Y22984007D01*
X17361610Y22984006D01*
X17270285Y22931279D01*
X17195721Y22856715D01*
X17142994Y22765390D01*
X17142993Y22765387D01*
X17115700Y22663527D01*
X17115700Y22651000D01*
X17096015Y22583961D01*
X17043211Y22538206D01*
X16999159Y22528623D01*
X16999233Y22528061D01*
X16992504Y22527176D01*
X16991700Y22527000D01*
X16991173Y22527000D01*
X16889313Y22499707D01*
X16889310Y22499706D01*
X16797985Y22446979D01*
X16723421Y22372415D01*
X16670694Y22281090D01*
X16670693Y22281087D01*
X16643400Y22179227D01*
X15955166Y22179227D01*
X15915113Y22219280D01*
X15823787Y22272007D01*
X15721927Y22299300D01*
X15616473Y22299300D01*
X15514613Y22272007D01*
X15514610Y22272006D01*
X15423285Y22219279D01*
X15348721Y22144715D01*
X15295994Y22053390D01*
X15295993Y22053387D01*
X15268700Y21951527D01*
X13891392Y21951527D01*
X13893299Y21955703D01*
X13901487Y21964286D01*
X13912197Y21974488D01*
X13920913Y21979520D01*
X13995480Y22054087D01*
X14048207Y22145413D01*
X14075500Y22247273D01*
X14075500Y22352727D01*
X14057050Y22421585D01*
X14058713Y22491433D01*
X14097876Y22549295D01*
X14160644Y22576616D01*
X14168115Y22577600D01*
X14168127Y22577600D01*
X14269987Y22604893D01*
X14361313Y22657620D01*
X14435880Y22732187D01*
X14488607Y22823513D01*
X14515900Y22925373D01*
X14515900Y23030827D01*
X14488607Y23132687D01*
X14435880Y23224013D01*
X14361313Y23298580D01*
X14269987Y23351307D01*
X14168127Y23378600D01*
X14062673Y23378600D01*
X13960813Y23351307D01*
X13960810Y23351306D01*
X13869487Y23298580D01*
X13817020Y23246114D01*
X13792577Y23232768D01*
X13769895Y23216616D01*
X13762337Y23216257D01*
X13755696Y23212630D01*
X13727918Y23214618D01*
X13700104Y23213293D01*
X13690024Y23217329D01*
X13686004Y23217616D01*
X13667342Y23226409D01*
X13653197Y23234576D01*
X13604984Y23285142D01*
X13591200Y23341961D01*
X13591200Y23373125D01*
X13591200Y23373127D01*
X13563907Y23474987D01*
X13511180Y23566313D01*
X13436613Y23640880D01*
X13345287Y23693607D01*
X13243427Y23720900D01*
X13137973Y23720900D01*
X13036113Y23693607D01*
X13036110Y23693606D01*
X12944785Y23640879D01*
X12870221Y23566315D01*
X12817494Y23474990D01*
X12817493Y23474987D01*
X12790200Y23373127D01*
X8089519Y23373127D01*
X8120480Y23404087D01*
X8173207Y23495413D01*
X8200500Y23597273D01*
X8200500Y23702727D01*
X8173207Y23804587D01*
X8120480Y23895913D01*
X8045913Y23970480D01*
X8009910Y23991266D01*
X8007386Y23992891D01*
X7986411Y24017133D01*
X7964284Y24040339D01*
X7963486Y24043628D01*
X7961669Y24045728D01*
X7960667Y24052727D01*
X17524500Y24052727D01*
X17524500Y23947273D01*
X17551793Y23845413D01*
X17604520Y23754087D01*
X17679087Y23679520D01*
X17770413Y23626793D01*
X17872273Y23599500D01*
X17872275Y23599500D01*
X17977725Y23599500D01*
X17977727Y23599500D01*
X18079587Y23626793D01*
X18170913Y23679520D01*
X18245480Y23754087D01*
X18298207Y23845413D01*
X18325500Y23947273D01*
X18325500Y24052727D01*
X18298207Y24154587D01*
X18245480Y24245913D01*
X18170913Y24320480D01*
X18079587Y24373207D01*
X17977727Y24400500D01*
X17872273Y24400500D01*
X17770413Y24373207D01*
X17770410Y24373206D01*
X17679085Y24320479D01*
X17604521Y24245915D01*
X17551794Y24154590D01*
X17551793Y24154587D01*
X17524500Y24052727D01*
X7960667Y24052727D01*
X7959789Y24058865D01*
X7950500Y24097158D01*
X7950500Y24152725D01*
X7950500Y24152727D01*
X7923207Y24254587D01*
X7870480Y24345913D01*
X7795913Y24420480D01*
X7704587Y24473207D01*
X7602727Y24500500D01*
X7497273Y24500500D01*
X7395413Y24473207D01*
X7395410Y24473206D01*
X7304085Y24420479D01*
X7229521Y24345915D01*
X7176794Y24254590D01*
X7176793Y24254587D01*
X7149500Y24152727D01*
X7149500Y24047273D01*
X7176793Y23945413D01*
X7229520Y23854087D01*
X7304087Y23779520D01*
X7337501Y23760228D01*
X7385715Y23709664D01*
X7399500Y23652843D01*
X7399500Y23597273D01*
X7426793Y23495413D01*
X7473573Y23414387D01*
X7479521Y23404086D01*
X7489276Y23394331D01*
X7522761Y23333008D01*
X7517777Y23263316D01*
X7501657Y23233413D01*
X7496024Y23225718D01*
X7455320Y23185013D01*
X7414559Y23114413D01*
X7410590Y23108990D01*
X7387963Y23091669D01*
X7367346Y23072011D01*
X7360582Y23070708D01*
X7355111Y23066519D01*
X7326712Y23064181D01*
X7298739Y23058789D01*
X7292343Y23061350D01*
X7285477Y23060784D01*
X7260321Y23074170D01*
X7233875Y23084758D01*
X7224070Y23093460D01*
X7223796Y23093606D01*
X7223687Y23093801D01*
X7222974Y23094433D01*
X7222916Y23094478D01*
X7131589Y23147206D01*
X7131588Y23147207D01*
X7131587Y23147207D01*
X7029727Y23174500D01*
X6924273Y23174500D01*
X6822413Y23147207D01*
X6822410Y23147206D01*
X6731085Y23094479D01*
X6656521Y23019915D01*
X6603794Y22928590D01*
X6603793Y22928587D01*
X6576500Y22826727D01*
X6576500Y22721272D01*
X6588766Y22675493D01*
X6587103Y22605643D01*
X6547939Y22547781D01*
X6530995Y22536016D01*
X6504085Y22520479D01*
X6429521Y22445915D01*
X6376794Y22354590D01*
X6376793Y22354587D01*
X6349500Y22252727D01*
X500500Y22252727D01*
X500500Y22928245D01*
X520185Y22995284D01*
X572989Y23041039D01*
X642147Y23050983D01*
X705703Y23021958D01*
X712181Y23015926D01*
X714220Y23013887D01*
X788787Y22939320D01*
X880113Y22886593D01*
X981973Y22859300D01*
X981975Y22859300D01*
X1087425Y22859300D01*
X1087427Y22859300D01*
X1189287Y22886593D01*
X1191944Y22888127D01*
X3300800Y22888127D01*
X3300800Y22782673D01*
X3328093Y22680813D01*
X3380820Y22589487D01*
X3455387Y22514920D01*
X3546713Y22462193D01*
X3648573Y22434900D01*
X3648575Y22434900D01*
X3754025Y22434900D01*
X3754027Y22434900D01*
X3855887Y22462193D01*
X3947213Y22514920D01*
X4021780Y22589487D01*
X4074507Y22680813D01*
X4101800Y22782673D01*
X4101800Y22888127D01*
X4074507Y22989987D01*
X4021780Y23081313D01*
X3947213Y23155880D01*
X3855887Y23208607D01*
X3754027Y23235900D01*
X3648573Y23235900D01*
X3546713Y23208607D01*
X3546710Y23208606D01*
X3455385Y23155879D01*
X3380821Y23081315D01*
X3328094Y22989990D01*
X3328093Y22989987D01*
X3300800Y22888127D01*
X1191944Y22888127D01*
X1280613Y22939320D01*
X1355180Y23013887D01*
X1407907Y23105213D01*
X1435200Y23207073D01*
X1435200Y23312527D01*
X1407907Y23414387D01*
X1355180Y23505713D01*
X1280613Y23580280D01*
X1189287Y23633007D01*
X1087427Y23660300D01*
X981973Y23660300D01*
X880113Y23633007D01*
X880110Y23633006D01*
X788785Y23580279D01*
X712181Y23503674D01*
X650858Y23470189D01*
X581166Y23475173D01*
X525233Y23517045D01*
X500816Y23582509D01*
X500500Y23591355D01*
X500500Y23762727D01*
X2000900Y23762727D01*
X2000900Y23657273D01*
X2028193Y23555413D01*
X2080920Y23464087D01*
X2155487Y23389520D01*
X2246813Y23336793D01*
X2348673Y23309500D01*
X2348675Y23309500D01*
X2454125Y23309500D01*
X2454127Y23309500D01*
X2555987Y23336793D01*
X2647313Y23389520D01*
X2721880Y23464087D01*
X2774607Y23555413D01*
X2801900Y23657273D01*
X2801900Y23762727D01*
X2774607Y23864587D01*
X2721880Y23955913D01*
X2647313Y24030480D01*
X2555987Y24083207D01*
X2454127Y24110500D01*
X2348673Y24110500D01*
X2246813Y24083207D01*
X2246810Y24083206D01*
X2155485Y24030479D01*
X2080921Y23955915D01*
X2028194Y23864590D01*
X2028193Y23864587D01*
X2000900Y23762727D01*
X500500Y23762727D01*
X500500Y24972727D01*
X8716900Y24972727D01*
X8716900Y24867273D01*
X8744193Y24765413D01*
X8796920Y24674087D01*
X8871487Y24599520D01*
X8962813Y24546793D01*
X9064673Y24519500D01*
X9064675Y24519500D01*
X9170125Y24519500D01*
X9170127Y24519500D01*
X9271987Y24546793D01*
X9333363Y24582229D01*
X9401261Y24598702D01*
X9467288Y24575850D01*
X9502748Y24536843D01*
X9545620Y24462587D01*
X9620187Y24388020D01*
X9711513Y24335293D01*
X9813373Y24308000D01*
X9813375Y24308000D01*
X9918825Y24308000D01*
X9918827Y24308000D01*
X10020687Y24335293D01*
X10112013Y24388020D01*
X10186580Y24462587D01*
X10239307Y24553913D01*
X10266600Y24655773D01*
X10266600Y24761227D01*
X10239307Y24863087D01*
X10186580Y24954413D01*
X10112013Y25028980D01*
X10033014Y25074590D01*
X10020689Y25081706D01*
X10020688Y25081707D01*
X10020687Y25081707D01*
X9918827Y25109000D01*
X9813373Y25109000D01*
X9711513Y25081707D01*
X9711510Y25081706D01*
X9650137Y25046272D01*
X9582236Y25029799D01*
X9516209Y25052652D01*
X9480750Y25091659D01*
X9473576Y25104085D01*
X9466797Y25115827D01*
X11551300Y25115827D01*
X11551300Y25010373D01*
X11578593Y24908513D01*
X11631320Y24817187D01*
X11705887Y24742620D01*
X11797213Y24689893D01*
X11899073Y24662600D01*
X11899075Y24662600D01*
X12004525Y24662600D01*
X12004527Y24662600D01*
X12106387Y24689893D01*
X12197713Y24742620D01*
X12272280Y24817187D01*
X12325007Y24908513D01*
X12352300Y25010373D01*
X12352300Y25115827D01*
X12325007Y25217687D01*
X12272280Y25309013D01*
X12197713Y25383580D01*
X12106387Y25436307D01*
X12004527Y25463600D01*
X11899073Y25463600D01*
X11797213Y25436307D01*
X11797210Y25436306D01*
X11705885Y25383579D01*
X11631321Y25309015D01*
X11578594Y25217690D01*
X11578593Y25217687D01*
X11551300Y25115827D01*
X9466797Y25115827D01*
X9437880Y25165913D01*
X9363313Y25240480D01*
X9271987Y25293207D01*
X9170127Y25320500D01*
X9064673Y25320500D01*
X8962813Y25293207D01*
X8962810Y25293206D01*
X8871485Y25240479D01*
X8796921Y25165915D01*
X8744194Y25074590D01*
X8744193Y25074587D01*
X8716900Y24972727D01*
X500500Y24972727D01*
X500500Y25753427D01*
X2090800Y25753427D01*
X2090800Y25647973D01*
X2117140Y25549672D01*
X2118093Y25546114D01*
X2118094Y25546111D01*
X2118782Y25544920D01*
X2170820Y25454787D01*
X2245387Y25380220D01*
X2336713Y25327493D01*
X2438573Y25300200D01*
X2438575Y25300200D01*
X2544025Y25300200D01*
X2544027Y25300200D01*
X2645887Y25327493D01*
X2737213Y25380220D01*
X2811780Y25454787D01*
X2864507Y25546113D01*
X2891800Y25647973D01*
X2891800Y25753427D01*
X2864507Y25855287D01*
X2811780Y25946613D01*
X2737213Y26021180D01*
X2670359Y26059778D01*
X2645889Y26073906D01*
X2645888Y26073907D01*
X2645887Y26073907D01*
X2544027Y26101200D01*
X2438573Y26101200D01*
X2336713Y26073907D01*
X2336710Y26073906D01*
X2245385Y26021179D01*
X2170821Y25946615D01*
X2118094Y25855290D01*
X2118093Y25855287D01*
X2090800Y25753427D01*
X500500Y25753427D01*
X500500Y26334027D01*
X3623800Y26334027D01*
X3623800Y26228573D01*
X3635240Y26185880D01*
X3651093Y26126714D01*
X3651094Y26126711D01*
X3665222Y26102241D01*
X3703820Y26035387D01*
X3778387Y25960820D01*
X3854617Y25916809D01*
X3902833Y25866242D01*
X3915126Y25802454D01*
X3915700Y25802454D01*
X3915700Y25799478D01*
X3916055Y25797635D01*
X3915700Y25794505D01*
X3915700Y25794327D01*
X3915700Y25688873D01*
X3942993Y25587013D01*
X3995720Y25495687D01*
X4070287Y25421120D01*
X4161613Y25368393D01*
X4263473Y25341100D01*
X4263475Y25341100D01*
X4368925Y25341100D01*
X4368927Y25341100D01*
X4470787Y25368393D01*
X4562113Y25421120D01*
X4636680Y25495687D01*
X4689407Y25587013D01*
X4716700Y25688873D01*
X4716700Y25789327D01*
X6466500Y25789327D01*
X6466500Y25683873D01*
X6493793Y25582013D01*
X6546520Y25490687D01*
X6621087Y25416120D01*
X6712413Y25363393D01*
X6814273Y25336100D01*
X6814275Y25336100D01*
X6919725Y25336100D01*
X6919727Y25336100D01*
X7021587Y25363393D01*
X7112913Y25416120D01*
X7187480Y25490687D01*
X7187485Y25490698D01*
X7190367Y25494451D01*
X7246794Y25535655D01*
X7316540Y25539812D01*
X7350742Y25526355D01*
X7409913Y25492193D01*
X7511773Y25464900D01*
X7511775Y25464900D01*
X7617225Y25464900D01*
X7617227Y25464900D01*
X7719087Y25492193D01*
X7810413Y25544920D01*
X7845020Y25579527D01*
X14062000Y25579527D01*
X14062000Y25474073D01*
X14089293Y25372213D01*
X14142020Y25280887D01*
X14216587Y25206320D01*
X14307913Y25153593D01*
X14409773Y25126300D01*
X14409775Y25126300D01*
X14515225Y25126300D01*
X14515227Y25126300D01*
X14617087Y25153593D01*
X14708413Y25206320D01*
X14782980Y25280887D01*
X14835707Y25372213D01*
X14863000Y25474073D01*
X14863000Y25534827D01*
X16755800Y25534827D01*
X16755800Y25429373D01*
X16779453Y25341100D01*
X16783093Y25327514D01*
X16783094Y25327511D01*
X16787142Y25320500D01*
X16835820Y25236187D01*
X16910387Y25161620D01*
X17001713Y25108893D01*
X17103573Y25081600D01*
X17103575Y25081600D01*
X17209025Y25081600D01*
X17209027Y25081600D01*
X17310887Y25108893D01*
X17402213Y25161620D01*
X17402217Y25161625D01*
X17402892Y25162014D01*
X17470792Y25178487D01*
X17536819Y25155635D01*
X17572277Y25116633D01*
X17579520Y25104087D01*
X17654087Y25029520D01*
X17745413Y24976793D01*
X17847273Y24949500D01*
X17847275Y24949500D01*
X17952725Y24949500D01*
X17952727Y24949500D01*
X18054587Y24976793D01*
X18145913Y25029520D01*
X18220480Y25104087D01*
X18273207Y25195413D01*
X18300500Y25297273D01*
X18300500Y25402727D01*
X18273207Y25504587D01*
X18220480Y25595913D01*
X18145913Y25670480D01*
X18054587Y25723207D01*
X17952727Y25750500D01*
X17847273Y25750500D01*
X17745413Y25723207D01*
X17745410Y25723206D01*
X17653406Y25670087D01*
X17585506Y25653614D01*
X17519479Y25676467D01*
X17484021Y25715471D01*
X17476780Y25728013D01*
X17402213Y25802580D01*
X17310922Y25855287D01*
X17310889Y25855306D01*
X17310888Y25855307D01*
X17310887Y25855307D01*
X17209027Y25882600D01*
X17103573Y25882600D01*
X17001713Y25855307D01*
X17001710Y25855306D01*
X16910385Y25802579D01*
X16835821Y25728015D01*
X16783094Y25636690D01*
X16783093Y25636687D01*
X16755800Y25534827D01*
X14863000Y25534827D01*
X14863000Y25579527D01*
X14835707Y25681387D01*
X14782980Y25772713D01*
X14708413Y25847280D01*
X14632359Y25891190D01*
X14617089Y25900006D01*
X14617088Y25900007D01*
X14617087Y25900007D01*
X14515227Y25927300D01*
X14409773Y25927300D01*
X14307913Y25900007D01*
X14307910Y25900006D01*
X14216585Y25847279D01*
X14142021Y25772715D01*
X14089294Y25681390D01*
X14089293Y25681387D01*
X14062000Y25579527D01*
X7845020Y25579527D01*
X7884980Y25619487D01*
X7896386Y25639243D01*
X7902398Y25649655D01*
X7920718Y25681387D01*
X7937707Y25710813D01*
X7965000Y25812673D01*
X7965000Y25918127D01*
X7937707Y26019987D01*
X7884980Y26111313D01*
X7810413Y26185880D01*
X7736763Y26228402D01*
X7719089Y26238606D01*
X7719088Y26238607D01*
X7719087Y26238607D01*
X7617227Y26265900D01*
X7511773Y26265900D01*
X7409913Y26238607D01*
X7409910Y26238606D01*
X7318585Y26185879D01*
X7244018Y26111312D01*
X7241124Y26107540D01*
X7184693Y26066341D01*
X7114946Y26062192D01*
X7080754Y26075647D01*
X7021589Y26109806D01*
X7021588Y26109807D01*
X7021587Y26109807D01*
X6919727Y26137100D01*
X6814273Y26137100D01*
X6712413Y26109807D01*
X6712410Y26109806D01*
X6621085Y26057079D01*
X6546521Y25982515D01*
X6493794Y25891190D01*
X6493793Y25891187D01*
X6466500Y25789327D01*
X4716700Y25789327D01*
X4716700Y25794327D01*
X4689407Y25896187D01*
X4636680Y25987513D01*
X4562113Y26062080D01*
X4485879Y26106094D01*
X4437666Y26156660D01*
X4425373Y26220446D01*
X4424800Y26220446D01*
X4424800Y26223420D01*
X4424444Y26225267D01*
X4424800Y26228402D01*
X4424800Y26334025D01*
X4424800Y26334027D01*
X4397507Y26435887D01*
X4344780Y26527213D01*
X4270213Y26601780D01*
X4178887Y26654507D01*
X4077027Y26681800D01*
X3971573Y26681800D01*
X3869713Y26654507D01*
X3869710Y26654506D01*
X3778385Y26601779D01*
X3703821Y26527215D01*
X3651094Y26435890D01*
X3651093Y26435887D01*
X3623800Y26334027D01*
X500500Y26334027D01*
X500500Y27703327D01*
X3921300Y27703327D01*
X3921300Y27597873D01*
X3948433Y27496613D01*
X3948593Y27496014D01*
X3948594Y27496011D01*
X3962722Y27471541D01*
X4001320Y27404687D01*
X4075887Y27330120D01*
X4167213Y27277393D01*
X4269073Y27250100D01*
X4269075Y27250100D01*
X4374525Y27250100D01*
X4374527Y27250100D01*
X4476387Y27277393D01*
X4567713Y27330120D01*
X4567716Y27330124D01*
X4569971Y27331425D01*
X4637872Y27347898D01*
X4693970Y27331426D01*
X4784613Y27279093D01*
X4886473Y27251800D01*
X4886475Y27251800D01*
X4991925Y27251800D01*
X4991927Y27251800D01*
X5093787Y27279093D01*
X5185113Y27331820D01*
X5259680Y27406387D01*
X5312407Y27497713D01*
X5339700Y27599573D01*
X5339700Y27699727D01*
X7654500Y27699727D01*
X7654500Y27594273D01*
X7681793Y27492413D01*
X7734520Y27401087D01*
X7809087Y27326520D01*
X7900413Y27273793D01*
X8002273Y27246500D01*
X8002275Y27246500D01*
X8107725Y27246500D01*
X8107727Y27246500D01*
X8209587Y27273793D01*
X8300913Y27326520D01*
X8375480Y27401087D01*
X8428207Y27492413D01*
X8428207Y27492414D01*
X8432271Y27499452D01*
X8434639Y27498085D01*
X8470067Y27542061D01*
X8536358Y27564135D01*
X8604060Y27546866D01*
X8648187Y27502217D01*
X8684520Y27439287D01*
X8759087Y27364720D01*
X8850413Y27311993D01*
X8952273Y27284700D01*
X8952275Y27284700D01*
X9057725Y27284700D01*
X9057727Y27284700D01*
X9159587Y27311993D01*
X9250913Y27364720D01*
X9325480Y27439287D01*
X9378207Y27530613D01*
X9405500Y27632473D01*
X9405500Y27737927D01*
X9378207Y27839787D01*
X9341349Y27903627D01*
X11622500Y27903627D01*
X11622500Y27798173D01*
X11649793Y27696313D01*
X11702520Y27604987D01*
X11777087Y27530420D01*
X11868413Y27477693D01*
X11970273Y27450400D01*
X11970275Y27450400D01*
X12075725Y27450400D01*
X12075727Y27450400D01*
X12177587Y27477693D01*
X12268913Y27530420D01*
X12343480Y27604987D01*
X12343482Y27604992D01*
X12348773Y27610282D01*
X12410096Y27643767D01*
X12479788Y27638783D01*
X12535722Y27596912D01*
X12556229Y27554697D01*
X12571498Y27497713D01*
X12571794Y27496611D01*
X12574217Y27492414D01*
X12624520Y27405287D01*
X12699087Y27330720D01*
X12790413Y27277993D01*
X12892273Y27250700D01*
X12892275Y27250700D01*
X12997725Y27250700D01*
X12997727Y27250700D01*
X13099587Y27277993D01*
X13190913Y27330720D01*
X13265480Y27405287D01*
X13318207Y27496613D01*
X13345500Y27598473D01*
X13345500Y27703927D01*
X13318207Y27805787D01*
X13265480Y27897113D01*
X13234866Y27927727D01*
X15149500Y27927727D01*
X15149500Y27822273D01*
X15176793Y27720413D01*
X15229520Y27629087D01*
X15304087Y27554520D01*
X15395413Y27501793D01*
X15497273Y27474500D01*
X15497275Y27474500D01*
X15602725Y27474500D01*
X15602727Y27474500D01*
X15704587Y27501793D01*
X15795913Y27554520D01*
X15870480Y27629087D01*
X15923207Y27720413D01*
X15950500Y27822273D01*
X15950500Y27927727D01*
X15923207Y28029587D01*
X15870480Y28120913D01*
X15795913Y28195480D01*
X15704587Y28248207D01*
X15602727Y28275500D01*
X15497273Y28275500D01*
X15395413Y28248207D01*
X15395410Y28248206D01*
X15304085Y28195479D01*
X15229521Y28120915D01*
X15176794Y28029590D01*
X15176793Y28029587D01*
X15149500Y27927727D01*
X13234866Y27927727D01*
X13190913Y27971680D01*
X13113454Y28016401D01*
X13099589Y28024406D01*
X13099588Y28024407D01*
X13099587Y28024407D01*
X12997727Y28051700D01*
X12892273Y28051700D01*
X12790413Y28024407D01*
X12790410Y28024406D01*
X12699087Y27971680D01*
X12619225Y27891818D01*
X12557901Y27858334D01*
X12488210Y27863318D01*
X12432276Y27905190D01*
X12411769Y27947407D01*
X12406391Y27967479D01*
X12396207Y28005487D01*
X12343480Y28096813D01*
X12268913Y28171380D01*
X12177587Y28224107D01*
X12075727Y28251400D01*
X11970273Y28251400D01*
X11868413Y28224107D01*
X11868410Y28224106D01*
X11777085Y28171379D01*
X11702521Y28096815D01*
X11649794Y28005490D01*
X11649793Y28005487D01*
X11622500Y27903627D01*
X9341349Y27903627D01*
X9325480Y27931113D01*
X9250913Y28005680D01*
X9159587Y28058407D01*
X9057727Y28085700D01*
X8952273Y28085700D01*
X8850413Y28058407D01*
X8850410Y28058406D01*
X8759085Y28005679D01*
X8684521Y27931115D01*
X8627729Y27832748D01*
X8625367Y27834112D01*
X8589887Y27790109D01*
X8523587Y27768064D01*
X8455892Y27785363D01*
X8411812Y27829984D01*
X8375480Y27892913D01*
X8300913Y27967480D01*
X8209587Y28020207D01*
X8107727Y28047500D01*
X8002273Y28047500D01*
X7900413Y28020207D01*
X7900410Y28020206D01*
X7809085Y27967479D01*
X7734521Y27892915D01*
X7681794Y27801590D01*
X7681793Y27801587D01*
X7654500Y27699727D01*
X5339700Y27699727D01*
X5339700Y27705027D01*
X5312407Y27806887D01*
X5259680Y27898213D01*
X5185113Y27972780D01*
X5096733Y28023806D01*
X5093789Y28025506D01*
X5093788Y28025507D01*
X5093787Y28025507D01*
X4991927Y28052800D01*
X4886473Y28052800D01*
X4784613Y28025507D01*
X4784612Y28025507D01*
X4691026Y27971475D01*
X4623126Y27955003D01*
X4567027Y27971476D01*
X4564768Y27972780D01*
X4507784Y28005680D01*
X4476389Y28023806D01*
X4476388Y28023807D01*
X4476387Y28023807D01*
X4374527Y28051100D01*
X4269073Y28051100D01*
X4167213Y28023807D01*
X4167210Y28023806D01*
X4075885Y27971079D01*
X4001321Y27896515D01*
X3948594Y27805190D01*
X3948593Y27805187D01*
X3921300Y27703327D01*
X500500Y27703327D01*
X500500Y28469627D01*
X6299500Y28469627D01*
X6299500Y28364173D01*
X6326793Y28262313D01*
X6379520Y28170987D01*
X6454087Y28096420D01*
X6545413Y28043693D01*
X6647273Y28016400D01*
X6647275Y28016400D01*
X6752725Y28016400D01*
X6752727Y28016400D01*
X6854587Y28043693D01*
X6945913Y28096420D01*
X7020480Y28170987D01*
X7073207Y28262313D01*
X7100500Y28364173D01*
X7100500Y28469627D01*
X7073207Y28571487D01*
X7020480Y28662813D01*
X6945913Y28737380D01*
X6854587Y28790107D01*
X6752727Y28817400D01*
X6647273Y28817400D01*
X6545413Y28790107D01*
X6545410Y28790106D01*
X6454085Y28737379D01*
X6379521Y28662815D01*
X6326794Y28571490D01*
X6326793Y28571487D01*
X6299500Y28469627D01*
X500500Y28469627D01*
X500500Y30393727D01*
X9474000Y30393727D01*
X9474000Y30288273D01*
X9501293Y30186413D01*
X9554020Y30095087D01*
X9628587Y30020520D01*
X9719913Y29967793D01*
X9821773Y29940500D01*
X9821775Y29940500D01*
X9927225Y29940500D01*
X9927227Y29940500D01*
X10029087Y29967793D01*
X10120413Y30020520D01*
X10194980Y30095087D01*
X10247707Y30186413D01*
X10275000Y30288273D01*
X10275000Y30385027D01*
X13269000Y30385027D01*
X13269000Y30279573D01*
X13293963Y30186411D01*
X13296293Y30177714D01*
X13296294Y30177711D01*
X13298895Y30173206D01*
X13349020Y30086387D01*
X13423587Y30011820D01*
X13514913Y29959093D01*
X13616773Y29931800D01*
X13616775Y29931800D01*
X13722225Y29931800D01*
X13722227Y29931800D01*
X13824087Y29959093D01*
X13915413Y30011820D01*
X13989980Y30086387D01*
X14042707Y30177713D01*
X14070000Y30279573D01*
X14070000Y30385027D01*
X14042707Y30486887D01*
X13989980Y30578213D01*
X13915413Y30652780D01*
X13824087Y30705507D01*
X13722227Y30732800D01*
X13616773Y30732800D01*
X13514913Y30705507D01*
X13514910Y30705506D01*
X13423585Y30652779D01*
X13349021Y30578215D01*
X13296294Y30486890D01*
X13296293Y30486887D01*
X13269000Y30385027D01*
X10275000Y30385027D01*
X10275000Y30393727D01*
X10247707Y30495587D01*
X10194980Y30586913D01*
X10120413Y30661480D01*
X10029087Y30714207D01*
X9927227Y30741500D01*
X9821773Y30741500D01*
X9719913Y30714207D01*
X9719910Y30714206D01*
X9628585Y30661479D01*
X9554021Y30586915D01*
X9501294Y30495590D01*
X9501293Y30495587D01*
X9474000Y30393727D01*
X500500Y30393727D01*
X500500Y36993041D01*
X501280Y37006923D01*
X501320Y37007283D01*
X511459Y37097271D01*
X517636Y37124334D01*
X545353Y37203543D01*
X557393Y37228547D01*
X602046Y37299611D01*
X619351Y37321310D01*
X678690Y37380649D01*
X700389Y37397954D01*
X771453Y37442607D01*
X796457Y37454647D01*
X875668Y37482365D01*
X902729Y37488541D01*
X978753Y37497107D01*
X993078Y37498720D01*
X1006960Y37499500D01*
X1065892Y37499500D01*
X2159417Y37499500D01*
X2226456Y37479815D01*
G37*
%TD.AperFunction*%
%TD*%
M02*
