%TF.GenerationSoftware,KiCad,Pcbnew,9.0.9-9.0.9~ubuntu24.04.1*%
%TF.CreationDate,2026-10-06T04:13:59+09:00*%
%TF.ProjectId,sticks3-piezo-hat,73746963-6b73-4332-9d70-69657a6f2d68,rev?*%
%TF.SameCoordinates,Original*%
%TF.FileFunction,Copper,L1,Top*%
%TF.FilePolarity,Positive*%
%FSLAX46Y46*%
G04 Gerber Fmt 4.6, Leading zero omitted, Abs format (unit mm)*
G04 Created by KiCad (PCBNEW 9.0.9-9.0.9~ubuntu24.04.1) date 2026-10-06 04:13:59*
%MOMM*%
%LPD*%
G01*
G04 APERTURE LIST*
G04 Aperture macros list*
%AMRoundRect*
0 Rectangle with rounded corners*
0 $1 Rounding radius*
0 $2 $3 $4 $5 $6 $7 $8 $9 X,Y pos of 4 corners*
0 Add a 4 corners polygon primitive as box body*
4,1,4,$2,$3,$4,$5,$6,$7,$8,$9,$2,$3,0*
0 Add four circle primitives for the rounded corners*
1,1,$1+$1,$2,$3*
1,1,$1+$1,$4,$5*
1,1,$1+$1,$6,$7*
1,1,$1+$1,$8,$9*
0 Add four rect primitives between the rounded corners*
20,1,$1+$1,$2,$3,$4,$5,0*
20,1,$1+$1,$4,$5,$6,$7,0*
20,1,$1+$1,$6,$7,$8,$9,0*
20,1,$1+$1,$8,$9,$2,$3,0*%
%AMFreePoly0*
4,1,14,0.314644,0.085355,0.385355,0.014644,0.400000,-0.020711,0.400000,-0.050000,0.385355,-0.085355,0.350000,-0.100000,-0.350000,-0.100000,-0.385355,-0.085355,-0.400000,-0.050000,-0.400000,0.050000,-0.385355,0.085355,-0.350000,0.100000,0.279289,0.100000,0.314644,0.085355,0.314644,0.085355,$1*%
%AMFreePoly1*
4,1,14,0.385355,0.085355,0.400000,0.050000,0.400000,0.020711,0.385355,-0.014644,0.314644,-0.085355,0.279289,-0.100000,-0.350000,-0.100000,-0.385355,-0.085355,-0.400000,-0.050000,-0.400000,0.050000,-0.385355,0.085355,-0.350000,0.100000,0.350000,0.100000,0.385355,0.085355,0.385355,0.085355,$1*%
%AMFreePoly2*
4,1,14,0.085355,0.385355,0.100000,0.350000,0.100000,-0.350000,0.085355,-0.385355,0.050000,-0.400000,-0.050000,-0.400000,-0.085355,-0.385355,-0.100000,-0.350000,-0.100000,0.279289,-0.085355,0.314644,-0.014644,0.385355,0.020711,0.400000,0.050000,0.400000,0.085355,0.385355,0.085355,0.385355,$1*%
%AMFreePoly3*
4,1,14,0.014644,0.385355,0.085355,0.314644,0.100000,0.279289,0.100000,-0.350000,0.085355,-0.385355,0.050000,-0.400000,-0.050000,-0.400000,-0.085355,-0.385355,-0.100000,-0.350000,-0.100000,0.350000,-0.085355,0.385355,-0.050000,0.400000,-0.020711,0.400000,0.014644,0.385355,0.014644,0.385355,$1*%
%AMFreePoly4*
4,1,14,0.385355,0.085355,0.400000,0.050000,0.400000,-0.050000,0.385355,-0.085355,0.350000,-0.100000,-0.279289,-0.100000,-0.314644,-0.085355,-0.385355,-0.014644,-0.400000,0.020711,-0.400000,0.050000,-0.385355,0.085355,-0.350000,0.100000,0.350000,0.100000,0.385355,0.085355,0.385355,0.085355,$1*%
%AMFreePoly5*
4,1,14,0.385355,0.085355,0.400000,0.050000,0.400000,-0.050000,0.385355,-0.085355,0.350000,-0.100000,-0.350000,-0.100000,-0.385355,-0.085355,-0.400000,-0.050000,-0.400000,-0.020711,-0.385355,0.014644,-0.314644,0.085355,-0.279289,0.100000,0.350000,0.100000,0.385355,0.085355,0.385355,0.085355,$1*%
%AMFreePoly6*
4,1,14,0.085355,0.385355,0.100000,0.350000,0.100000,-0.279289,0.085355,-0.314644,0.014644,-0.385355,-0.020711,-0.400000,-0.050000,-0.400000,-0.085355,-0.385355,-0.100000,-0.350000,-0.100000,0.350000,-0.085355,0.385355,-0.050000,0.400000,0.050000,0.400000,0.085355,0.385355,0.085355,0.385355,$1*%
%AMFreePoly7*
4,1,14,0.085355,0.385355,0.100000,0.350000,0.100000,-0.350000,0.085355,-0.385355,0.050000,-0.400000,0.020711,-0.400000,-0.014644,-0.385355,-0.085355,-0.314644,-0.100000,-0.279289,-0.100000,0.350000,-0.085355,0.385355,-0.050000,0.400000,0.050000,0.400000,0.085355,0.385355,0.085355,0.385355,$1*%
G04 Aperture macros list end*
%TA.AperFunction,SMDPad,CuDef*%
%ADD10RoundRect,0.140000X-0.140000X-0.170000X0.140000X-0.170000X0.140000X0.170000X-0.140000X0.170000X0*%
%TD*%
%TA.AperFunction,SMDPad,CuDef*%
%ADD11RoundRect,0.225000X0.250000X-0.225000X0.250000X0.225000X-0.250000X0.225000X-0.250000X-0.225000X0*%
%TD*%
%TA.AperFunction,SMDPad,CuDef*%
%ADD12RoundRect,0.135000X0.185000X-0.135000X0.185000X0.135000X-0.185000X0.135000X-0.185000X-0.135000X0*%
%TD*%
%TA.AperFunction,SMDPad,CuDef*%
%ADD13RoundRect,0.125000X0.125000X-0.487500X0.125000X0.487500X-0.125000X0.487500X-0.125000X-0.487500X0*%
%TD*%
%TA.AperFunction,SMDPad,CuDef*%
%ADD14RoundRect,0.140000X0.170000X-0.140000X0.170000X0.140000X-0.170000X0.140000X-0.170000X-0.140000X0*%
%TD*%
%TA.AperFunction,SMDPad,CuDef*%
%ADD15RoundRect,0.200000X0.275000X-0.200000X0.275000X0.200000X-0.275000X0.200000X-0.275000X-0.200000X0*%
%TD*%
%TA.AperFunction,SMDPad,CuDef*%
%ADD16RoundRect,0.200000X-0.200000X-0.275000X0.200000X-0.275000X0.200000X0.275000X-0.200000X0.275000X0*%
%TD*%
%TA.AperFunction,SMDPad,CuDef*%
%ADD17RoundRect,0.135000X-0.135000X-0.185000X0.135000X-0.185000X0.135000X0.185000X-0.135000X0.185000X0*%
%TD*%
%TA.AperFunction,ComponentPad*%
%ADD18C,1.800000*%
%TD*%
%TA.AperFunction,SMDPad,CuDef*%
%ADD19RoundRect,0.225000X-0.225000X-0.250000X0.225000X-0.250000X0.225000X0.250000X-0.225000X0.250000X0*%
%TD*%
%TA.AperFunction,SMDPad,CuDef*%
%ADD20RoundRect,0.062500X-0.356250X-0.062500X0.356250X-0.062500X0.356250X0.062500X-0.356250X0.062500X0*%
%TD*%
%TA.AperFunction,SMDPad,CuDef*%
%ADD21RoundRect,0.062500X-0.062500X-0.356250X0.062500X-0.356250X0.062500X0.356250X-0.062500X0.356250X0*%
%TD*%
%TA.AperFunction,HeatsinkPad*%
%ADD22R,1.675000X1.675000*%
%TD*%
%TA.AperFunction,SMDPad,CuDef*%
%ADD23FreePoly0,0.000000*%
%TD*%
%TA.AperFunction,SMDPad,CuDef*%
%ADD24RoundRect,0.050000X-0.350000X-0.050000X0.350000X-0.050000X0.350000X0.050000X-0.350000X0.050000X0*%
%TD*%
%TA.AperFunction,SMDPad,CuDef*%
%ADD25FreePoly1,0.000000*%
%TD*%
%TA.AperFunction,SMDPad,CuDef*%
%ADD26FreePoly2,0.000000*%
%TD*%
%TA.AperFunction,SMDPad,CuDef*%
%ADD27RoundRect,0.050000X-0.050000X-0.350000X0.050000X-0.350000X0.050000X0.350000X-0.050000X0.350000X0*%
%TD*%
%TA.AperFunction,SMDPad,CuDef*%
%ADD28FreePoly3,0.000000*%
%TD*%
%TA.AperFunction,SMDPad,CuDef*%
%ADD29FreePoly4,0.000000*%
%TD*%
%TA.AperFunction,SMDPad,CuDef*%
%ADD30FreePoly5,0.000000*%
%TD*%
%TA.AperFunction,SMDPad,CuDef*%
%ADD31FreePoly6,0.000000*%
%TD*%
%TA.AperFunction,SMDPad,CuDef*%
%ADD32FreePoly7,0.000000*%
%TD*%
%TA.AperFunction,HeatsinkPad*%
%ADD33R,2.700000X2.700000*%
%TD*%
%TA.AperFunction,SMDPad,CuDef*%
%ADD34RoundRect,0.150000X-0.512500X-0.150000X0.512500X-0.150000X0.512500X0.150000X-0.512500X0.150000X0*%
%TD*%
%TA.AperFunction,ComponentPad*%
%ADD35R,1.700000X1.700000*%
%TD*%
%TA.AperFunction,ComponentPad*%
%ADD36C,1.700000*%
%TD*%
%TA.AperFunction,ViaPad*%
%ADD37C,0.400000*%
%TD*%
%TA.AperFunction,Conductor*%
%ADD38C,0.127000*%
%TD*%
%TA.AperFunction,Conductor*%
%ADD39C,0.100000*%
%TD*%
G04 APERTURE END LIST*
D10*
%TO.P,C23,1*%
%TO.N,U3_REFP12*%
X8870000Y11600000D03*
%TO.P,C23,2*%
%TO.N,GND*%
X9830000Y11600000D03*
%TD*%
D11*
%TO.P,C51,1*%
%TO.N,5V_HAT*%
X12550000Y6825000D03*
%TO.P,C51,2*%
%TO.N,GND*%
X12550000Y8375000D03*
%TD*%
D12*
%TO.P,R24,1*%
%TO.N,BUF5*%
X18450000Y20390000D03*
%TO.P,R24,2*%
%TO.N,LP5A*%
X18450000Y21410000D03*
%TD*%
D10*
%TO.P,C4,1*%
%TO.N,LP1B*%
X1970000Y21900000D03*
%TO.P,C4,2*%
%TO.N,GND*%
X2930000Y21900000D03*
%TD*%
D11*
%TO.P,C21,1*%
%TO.N,LP5B*%
X18750000Y17625000D03*
%TO.P,C21,2*%
%TO.N,AIN5P*%
X18750000Y19175000D03*
%TD*%
D13*
%TO.P,D3,1*%
%TO.N,GND*%
X9850000Y28362500D03*
%TO.P,D3,2*%
%TO.N,3V3A*%
X11150000Y28362500D03*
%TO.P,D3,3*%
%TO.N,HI3*%
X10500000Y30237500D03*
%TD*%
D10*
%TO.P,C3,1*%
%TO.N,LP1A*%
X3470000Y20900000D03*
%TO.P,C3,2*%
%TO.N,GND*%
X4430000Y20900000D03*
%TD*%
D14*
%TO.P,C19,1*%
%TO.N,LP5A*%
X19450000Y20420000D03*
%TO.P,C19,2*%
%TO.N,GND*%
X19450000Y21380000D03*
%TD*%
D10*
%TO.P,C27,1*%
%TO.N,U3_MICBIAS34*%
X5970000Y18300000D03*
%TO.P,C27,2*%
%TO.N,GND*%
X6930000Y18300000D03*
%TD*%
%TO.P,C7,1*%
%TO.N,LP2A*%
X7270000Y21000000D03*
%TO.P,C7,2*%
%TO.N,GND*%
X8230000Y21000000D03*
%TD*%
D14*
%TO.P,C2,1*%
%TO.N,3V3A*%
X11450000Y23520000D03*
%TO.P,C2,2*%
%TO.N,GND*%
X11450000Y24480000D03*
%TD*%
D10*
%TO.P,C42,1*%
%TO.N,3V3A*%
X18870000Y8200000D03*
%TO.P,C42,2*%
%TO.N,GND*%
X19830000Y8200000D03*
%TD*%
D15*
%TO.P,R29,1*%
%TO.N,VDIV*%
X12750000Y24075000D03*
%TO.P,R29,2*%
%TO.N,GND*%
X12750000Y25725000D03*
%TD*%
D11*
%TO.P,C9,1*%
%TO.N,LP2B*%
X8150000Y16625000D03*
%TO.P,C9,2*%
%TO.N,AIN2P*%
X8150000Y18175000D03*
%TD*%
D16*
%TO.P,R10,1*%
%TO.N,PZ4*%
X13475000Y32100000D03*
%TO.P,R10,2*%
%TO.N,HI4*%
X15125000Y32100000D03*
%TD*%
%TO.P,R1,1*%
%TO.N,PZ1*%
X2075000Y32100000D03*
%TO.P,R1,2*%
%TO.N,HI1*%
X3725000Y32100000D03*
%TD*%
D11*
%TO.P,C5,1*%
%TO.N,LP1B*%
X2250000Y16225000D03*
%TO.P,C5,2*%
%TO.N,AIN1P*%
X2250000Y17775000D03*
%TD*%
D10*
%TO.P,C20,1*%
%TO.N,LP5B*%
X18470000Y22400000D03*
%TO.P,C20,2*%
%TO.N,GND*%
X19430000Y22400000D03*
%TD*%
D17*
%TO.P,R23,1*%
%TO.N,LP4A*%
X11240000Y19900000D03*
%TO.P,R23,2*%
%TO.N,LP4B*%
X12260000Y19900000D03*
%TD*%
D18*
%TO.P,J4,1*%
%TO.N,PZ4*%
X14300000Y36400000D03*
%TO.P,J4,2*%
%TO.N,GND*%
X14300000Y33900000D03*
%TD*%
D10*
%TO.P,C34,1*%
%TO.N,U4_REFP12*%
X17070000Y9300000D03*
%TO.P,C34,2*%
%TO.N,GND*%
X18030000Y9300000D03*
%TD*%
D12*
%TO.P,R36,1*%
%TO.N,CASCADE*%
X10750000Y13990000D03*
%TO.P,R36,2*%
%TO.N,CASCADE_IN*%
X10750000Y15010000D03*
%TD*%
D19*
%TO.P,C13,1*%
%TO.N,LP3B*%
X9775000Y17000000D03*
%TO.P,C13,2*%
%TO.N,AIN3P*%
X11325000Y17000000D03*
%TD*%
D20*
%TO.P,U1,1*%
%TO.N,HI1*%
X4093750Y25000000D03*
%TO.P,U1,2*%
%TO.N,3V3A*%
X4093750Y24500000D03*
%TO.P,U1,3*%
%TO.N,HI2*%
X4093750Y24000000D03*
%TO.P,U1,4*%
%TO.N,BUF2*%
X4093750Y23500000D03*
D21*
%TO.P,U1,5*%
X4800000Y22793750D03*
%TO.P,U1,6*%
%TO.N,N/C*%
X5300000Y22793750D03*
%TO.P,U1,7*%
X5800000Y22793750D03*
%TO.P,U1,8*%
%TO.N,BUF3*%
X6300000Y22793750D03*
D20*
%TO.P,U1,9*%
X7006250Y23500000D03*
%TO.P,U1,10*%
%TO.N,HI3*%
X7006250Y24000000D03*
%TO.P,U1,11*%
%TO.N,GND*%
X7006250Y24500000D03*
%TO.P,U1,12*%
%TO.N,HI4*%
X7006250Y25000000D03*
D21*
%TO.P,U1,13*%
%TO.N,BUF4*%
X6300000Y25706250D03*
%TO.P,U1,14*%
X5800000Y25706250D03*
%TO.P,U1,15*%
%TO.N,BUF1*%
X5300000Y25706250D03*
%TO.P,U1,16*%
X4800000Y25706250D03*
D22*
%TO.P,U1,17*%
%TO.N,GND*%
X5550000Y24250000D03*
%TD*%
D18*
%TO.P,J2,1*%
%TO.N,PZ2*%
X6700000Y36400000D03*
%TO.P,J2,2*%
%TO.N,GND*%
X6700000Y33900000D03*
%TD*%
D10*
%TO.P,C40,1*%
%TO.N,U4_REFQ34*%
X14070000Y18300000D03*
%TO.P,C40,2*%
%TO.N,GND*%
X15030000Y18300000D03*
%TD*%
D17*
%TO.P,R16,1*%
%TO.N,BUF1*%
X1540000Y20900000D03*
%TO.P,R16,2*%
%TO.N,LP1A*%
X2560000Y20900000D03*
%TD*%
D20*
%TO.P,U2,1*%
%TO.N,HI5*%
X14243750Y25000000D03*
%TO.P,U2,2*%
%TO.N,3V3A*%
X14243750Y24500000D03*
%TO.P,U2,3*%
%TO.N,VDIV*%
X14243750Y24000000D03*
%TO.P,U2,4*%
%TO.N,VMID*%
X14243750Y23500000D03*
D21*
%TO.P,U2,5*%
X14950000Y22793750D03*
%TO.P,U2,6*%
%TO.N,N/C*%
X15450000Y22793750D03*
%TO.P,U2,7*%
X15950000Y22793750D03*
%TO.P,U2,8*%
%TO.N,SPARE_C*%
X16450000Y22793750D03*
D20*
%TO.P,U2,9*%
X17156250Y23500000D03*
%TO.P,U2,10*%
%TO.N,VDIV*%
X17156250Y24000000D03*
%TO.P,U2,11*%
%TO.N,GND*%
X17156250Y24500000D03*
%TO.P,U2,12*%
%TO.N,VDIV*%
X17156250Y25000000D03*
D21*
%TO.P,U2,13*%
%TO.N,SPARE_D*%
X16450000Y25706250D03*
%TO.P,U2,14*%
X15950000Y25706250D03*
%TO.P,U2,15*%
%TO.N,BUF5*%
X15450000Y25706250D03*
%TO.P,U2,16*%
X14950000Y25706250D03*
D22*
%TO.P,U2,17*%
%TO.N,GND*%
X15700000Y24250000D03*
%TD*%
D14*
%TO.P,C44,1*%
%TO.N,3V3D*%
X12250000Y9920000D03*
%TO.P,C44,2*%
%TO.N,GND*%
X12250000Y10880000D03*
%TD*%
D23*
%TO.P,U4,1*%
%TO.N,3V3D*%
X13850000Y13900000D03*
D24*
%TO.P,U4,2*%
%TO.N,GND*%
X13850000Y13500000D03*
%TO.P,U4,3*%
%TO.N,SDA*%
X13850000Y13100000D03*
%TO.P,U4,4*%
%TO.N,SCL*%
X13850000Y12700000D03*
%TO.P,U4,5*%
%TO.N,MCLK*%
X13850000Y12300000D03*
%TO.P,U4,6*%
%TO.N,3V3D*%
X13850000Y11900000D03*
%TO.P,U4,7*%
X13850000Y11500000D03*
D25*
%TO.P,U4,8*%
%TO.N,GND*%
X13850000Y11100000D03*
D26*
%TO.P,U4,9*%
%TO.N,BCLK*%
X14400000Y10550000D03*
D27*
%TO.P,U4,10*%
%TO.N,WS*%
X14800000Y10550000D03*
%TO.P,U4,11*%
%TO.N,TDM_OUT*%
X15200000Y10550000D03*
%TO.P,U4,12*%
%TO.N,CASCADE_IN*%
X15600000Y10550000D03*
%TO.P,U4,13*%
%TO.N,N/C*%
X16000000Y10550000D03*
%TO.P,U4,14*%
X16400000Y10550000D03*
%TO.P,U4,15*%
%TO.N,AIN5N*%
X16800000Y10550000D03*
D28*
%TO.P,U4,16*%
%TO.N,AIN5P*%
X17200000Y10550000D03*
D29*
%TO.P,U4,17*%
%TO.N,U4_REFP12*%
X17750000Y11100000D03*
D24*
%TO.P,U4,18*%
%TO.N,U4_REFQ12*%
X17750000Y11500000D03*
%TO.P,U4,19*%
%TO.N,AIN6P*%
X17750000Y11900000D03*
%TO.P,U4,20*%
%TO.N,AIN6N*%
X17750000Y12300000D03*
%TO.P,U4,21*%
%TO.N,GND*%
X17750000Y12700000D03*
%TO.P,U4,22*%
%TO.N,3V3A*%
X17750000Y13100000D03*
%TO.P,U4,23*%
X17750000Y13500000D03*
D30*
%TO.P,U4,24*%
%TO.N,U4_MICBIAS12*%
X17750000Y13900000D03*
D31*
%TO.P,U4,25*%
%TO.N,U4_REFQM*%
X17200000Y14450000D03*
D27*
%TO.P,U4,26*%
%TO.N,U4_MICBIAS34*%
X16800000Y14450000D03*
%TO.P,U4,27*%
%TO.N,AIN8N*%
X16400000Y14450000D03*
%TO.P,U4,28*%
%TO.N,AIN8P*%
X16000000Y14450000D03*
%TO.P,U4,29*%
%TO.N,U4_REFP34*%
X15600000Y14450000D03*
%TO.P,U4,30*%
%TO.N,U4_REFQ34*%
X15200000Y14450000D03*
%TO.P,U4,31*%
%TO.N,AIN7P*%
X14800000Y14450000D03*
D32*
%TO.P,U4,32*%
%TO.N,AIN7N*%
X14400000Y14450000D03*
D33*
%TO.P,U4,33*%
%TO.N,GND*%
X15800000Y12500000D03*
%TD*%
D10*
%TO.P,C29,1*%
%TO.N,U3_REFQ34*%
X3470000Y18300000D03*
%TO.P,C29,2*%
%TO.N,GND*%
X4430000Y18300000D03*
%TD*%
D14*
%TO.P,C55,1*%
%TO.N,VDIV*%
X10450000Y23020000D03*
%TO.P,C55,2*%
%TO.N,GND*%
X10450000Y23980000D03*
%TD*%
D10*
%TO.P,C24,1*%
%TO.N,U3_REFQ12*%
X8870000Y12800000D03*
%TO.P,C24,2*%
%TO.N,GND*%
X9830000Y12800000D03*
%TD*%
D16*
%TO.P,R7,1*%
%TO.N,PZ3*%
X9675000Y32100000D03*
%TO.P,R7,2*%
%TO.N,HI3*%
X11325000Y32100000D03*
%TD*%
D12*
%TO.P,R33,1*%
%TO.N,BCLK_HAT*%
X17050000Y6490000D03*
%TO.P,R33,2*%
%TO.N,BCLK*%
X17050000Y7510000D03*
%TD*%
D17*
%TO.P,R11,1*%
%TO.N,HI4*%
X12945000Y26970000D03*
%TO.P,R11,2*%
%TO.N,BIAS4*%
X13965000Y26970000D03*
%TD*%
D10*
%TO.P,C37,1*%
%TO.N,U4_REFQM*%
X16570000Y16100000D03*
%TO.P,C37,2*%
%TO.N,GND*%
X17530000Y16100000D03*
%TD*%
%TO.P,C41,1*%
%TO.N,3V3A*%
X18870000Y16400000D03*
%TO.P,C41,2*%
%TO.N,GND*%
X19830000Y16400000D03*
%TD*%
%TO.P,C47,1*%
%TO.N,AIN7P*%
X18870000Y24400000D03*
%TO.P,C47,2*%
%TO.N,GND*%
X19830000Y24400000D03*
%TD*%
D17*
%TO.P,R20,1*%
%TO.N,BUF3*%
X9140000Y20900000D03*
%TO.P,R20,2*%
%TO.N,LP3A*%
X10160000Y20900000D03*
%TD*%
D16*
%TO.P,R13,1*%
%TO.N,PZ5*%
X17275000Y32100000D03*
%TO.P,R13,2*%
%TO.N,HI5*%
X18925000Y32100000D03*
%TD*%
D17*
%TO.P,R3,1*%
%TO.N,BIAS1*%
X3095000Y26970000D03*
%TO.P,R3,2*%
%TO.N,VMID*%
X4115000Y26970000D03*
%TD*%
D16*
%TO.P,R26,1*%
%TO.N,INT3*%
X8525000Y10300000D03*
%TO.P,R26,2*%
%TO.N,3V3D*%
X10175000Y10300000D03*
%TD*%
D17*
%TO.P,R17,1*%
%TO.N,LP1A*%
X3540000Y17300000D03*
%TO.P,R17,2*%
%TO.N,LP1B*%
X4560000Y17300000D03*
%TD*%
D19*
%TO.P,C10,1*%
%TO.N,AIN2N*%
X5875000Y19700000D03*
%TO.P,C10,2*%
%TO.N,GND*%
X7425000Y19700000D03*
%TD*%
D10*
%TO.P,C1,1*%
%TO.N,3V3A*%
X1870000Y24500000D03*
%TO.P,C1,2*%
%TO.N,GND*%
X2830000Y24500000D03*
%TD*%
D13*
%TO.P,D5,1*%
%TO.N,GND*%
X17450000Y28362500D03*
%TO.P,D5,2*%
%TO.N,3V3A*%
X18750000Y28362500D03*
%TO.P,D5,3*%
%TO.N,HI5*%
X18100000Y30237500D03*
%TD*%
D11*
%TO.P,C17,1*%
%TO.N,LP4B*%
X12850000Y16225000D03*
%TO.P,C17,2*%
%TO.N,AIN4P*%
X12850000Y17775000D03*
%TD*%
D16*
%TO.P,R4,1*%
%TO.N,PZ2*%
X5875000Y32100000D03*
%TO.P,R4,2*%
%TO.N,HI2*%
X7525000Y32100000D03*
%TD*%
D10*
%TO.P,C28,1*%
%TO.N,U3_REFP34*%
X3470000Y16100000D03*
%TO.P,C28,2*%
%TO.N,GND*%
X4430000Y16100000D03*
%TD*%
%TO.P,C38,1*%
%TO.N,U4_MICBIAS34*%
X16570000Y18300000D03*
%TO.P,C38,2*%
%TO.N,GND*%
X17530000Y18300000D03*
%TD*%
%TO.P,C16,1*%
%TO.N,LP4B*%
X12070000Y21900000D03*
%TO.P,C16,2*%
%TO.N,GND*%
X13030000Y21900000D03*
%TD*%
D17*
%TO.P,R2,1*%
%TO.N,HI1*%
X1125000Y26970000D03*
%TO.P,R2,2*%
%TO.N,BIAS1*%
X2145000Y26970000D03*
%TD*%
D14*
%TO.P,C31,1*%
%TO.N,3V3A*%
X10850000Y11520000D03*
%TO.P,C31,2*%
%TO.N,GND*%
X10850000Y12480000D03*
%TD*%
%TO.P,C33,1*%
%TO.N,3V3D*%
X1650000Y10020000D03*
%TO.P,C33,2*%
%TO.N,GND*%
X1650000Y10980000D03*
%TD*%
D10*
%TO.P,C48,1*%
%TO.N,AIN7N*%
X1970000Y22900000D03*
%TO.P,C48,2*%
%TO.N,GND*%
X2930000Y22900000D03*
%TD*%
%TO.P,C49,1*%
%TO.N,AIN8P*%
X18370000Y25400000D03*
%TO.P,C49,2*%
%TO.N,GND*%
X19330000Y25400000D03*
%TD*%
%TO.P,C46,1*%
%TO.N,AIN6N*%
X18370000Y23400000D03*
%TO.P,C46,2*%
%TO.N,GND*%
X19330000Y23400000D03*
%TD*%
D13*
%TO.P,D1,1*%
%TO.N,GND*%
X2250000Y28362500D03*
%TO.P,D1,2*%
%TO.N,3V3A*%
X3550000Y28362500D03*
%TO.P,D1,3*%
%TO.N,HI1*%
X2900000Y30237500D03*
%TD*%
D11*
%TO.P,C22,1*%
%TO.N,AIN5N*%
X17150000Y19525000D03*
%TO.P,C22,2*%
%TO.N,GND*%
X17150000Y21075000D03*
%TD*%
D18*
%TO.P,J5,1*%
%TO.N,PZ5*%
X18100000Y36400000D03*
%TO.P,J5,2*%
%TO.N,GND*%
X18100000Y33900000D03*
%TD*%
D19*
%TO.P,C18,1*%
%TO.N,AIN4N*%
X13475000Y19600000D03*
%TO.P,C18,2*%
%TO.N,GND*%
X15025000Y19600000D03*
%TD*%
D14*
%TO.P,C30,1*%
%TO.N,3V3A*%
X9750000Y13820000D03*
%TO.P,C30,2*%
%TO.N,GND*%
X9750000Y14780000D03*
%TD*%
D34*
%TO.P,U6,1*%
%TO.N,5V_HAT*%
X6962500Y8700000D03*
%TO.P,U6,2*%
%TO.N,GND*%
X6962500Y7750000D03*
%TO.P,U6,3*%
%TO.N,5V_HAT*%
X6962500Y6800000D03*
%TO.P,U6,4*%
%TO.N,N/C*%
X9237500Y6800000D03*
%TO.P,U6,5*%
%TO.N,3V3D*%
X9237500Y8700000D03*
%TD*%
D12*
%TO.P,R30,1*%
%TO.N,SDA*%
X9450000Y23090000D03*
%TO.P,R30,2*%
%TO.N,3V3D*%
X9450000Y24110000D03*
%TD*%
D13*
%TO.P,D4,1*%
%TO.N,GND*%
X13650000Y28362500D03*
%TO.P,D4,2*%
%TO.N,3V3A*%
X14950000Y28362500D03*
%TO.P,D4,3*%
%TO.N,HI4*%
X14300000Y30237500D03*
%TD*%
D17*
%TO.P,R8,1*%
%TO.N,HI3*%
X9005000Y26970000D03*
%TO.P,R8,2*%
%TO.N,BIAS3*%
X10025000Y26970000D03*
%TD*%
%TO.P,R34,1*%
%TO.N,WS_HAT*%
X18040000Y6600000D03*
%TO.P,R34,2*%
%TO.N,WS*%
X19060000Y6600000D03*
%TD*%
D11*
%TO.P,C52,1*%
%TO.N,3V3A*%
X14150000Y6825000D03*
%TO.P,C52,2*%
%TO.N,GND*%
X14150000Y8375000D03*
%TD*%
D10*
%TO.P,C12,1*%
%TO.N,LP3B*%
X14070000Y17300000D03*
%TO.P,C12,2*%
%TO.N,GND*%
X15030000Y17300000D03*
%TD*%
D17*
%TO.P,R18,1*%
%TO.N,BUF2*%
X5340000Y21000000D03*
%TO.P,R18,2*%
%TO.N,LP2A*%
X6360000Y21000000D03*
%TD*%
D13*
%TO.P,D2,1*%
%TO.N,GND*%
X6050000Y28362500D03*
%TO.P,D2,2*%
%TO.N,3V3A*%
X7350000Y28362500D03*
%TO.P,D2,3*%
%TO.N,HI2*%
X6700000Y30237500D03*
%TD*%
D14*
%TO.P,C35,1*%
%TO.N,U4_REFQ12*%
X19350000Y12320000D03*
%TO.P,C35,2*%
%TO.N,GND*%
X19350000Y13280000D03*
%TD*%
D10*
%TO.P,C39,1*%
%TO.N,U4_REFP34*%
X14070000Y16100000D03*
%TO.P,C39,2*%
%TO.N,GND*%
X15030000Y16100000D03*
%TD*%
D17*
%TO.P,R5,1*%
%TO.N,HI2*%
X5065000Y26970000D03*
%TO.P,R5,2*%
%TO.N,BIAS2*%
X6085000Y26970000D03*
%TD*%
D11*
%TO.P,C54,1*%
%TO.N,3V3D*%
X15750000Y6825000D03*
%TO.P,C54,2*%
%TO.N,GND*%
X15750000Y8375000D03*
%TD*%
D18*
%TO.P,J3,1*%
%TO.N,PZ3*%
X10500000Y36400000D03*
%TO.P,J3,2*%
%TO.N,GND*%
X10500000Y33900000D03*
%TD*%
D10*
%TO.P,C15,1*%
%TO.N,LP4A*%
X14870000Y20900000D03*
%TO.P,C15,2*%
%TO.N,GND*%
X15830000Y20900000D03*
%TD*%
D12*
%TO.P,R35,1*%
%TO.N,TDM_OUT*%
X12650000Y13890000D03*
%TO.P,R35,2*%
%TO.N,TDM_HAT*%
X12650000Y14910000D03*
%TD*%
D17*
%TO.P,R31,1*%
%TO.N,SCL*%
X10040000Y22000000D03*
%TO.P,R31,2*%
%TO.N,3V3D*%
X11060000Y22000000D03*
%TD*%
D10*
%TO.P,C11,1*%
%TO.N,LP3A*%
X11070000Y20900000D03*
%TO.P,C11,2*%
%TO.N,GND*%
X12030000Y20900000D03*
%TD*%
D19*
%TO.P,C14,1*%
%TO.N,AIN3N*%
X9675000Y18600000D03*
%TO.P,C14,2*%
%TO.N,GND*%
X11225000Y18600000D03*
%TD*%
D14*
%TO.P,C25,1*%
%TO.N,U3_MICBIAS12*%
X8750000Y14420000D03*
%TO.P,C25,2*%
%TO.N,GND*%
X8750000Y15380000D03*
%TD*%
%TO.P,C50,1*%
%TO.N,AIN8N*%
X8450000Y24920000D03*
%TO.P,C50,2*%
%TO.N,GND*%
X8450000Y25880000D03*
%TD*%
D17*
%TO.P,R14,1*%
%TO.N,HI5*%
X16885000Y26970000D03*
%TO.P,R14,2*%
%TO.N,BIAS5*%
X17905000Y26970000D03*
%TD*%
D18*
%TO.P,J1,1*%
%TO.N,PZ1*%
X2900000Y36400000D03*
%TO.P,J1,2*%
%TO.N,GND*%
X2900000Y33900000D03*
%TD*%
D17*
%TO.P,R19,1*%
%TO.N,LP2A*%
X5540000Y17300000D03*
%TO.P,R19,2*%
%TO.N,LP2B*%
X6560000Y17300000D03*
%TD*%
%TO.P,R22,1*%
%TO.N,BUF4*%
X12940000Y20900000D03*
%TO.P,R22,2*%
%TO.N,LP4A*%
X13960000Y20900000D03*
%TD*%
D35*
%TO.P,J6,1*%
%TO.N,GND*%
X19390000Y4900000D03*
D36*
%TO.P,J6,2*%
%TO.N,SCL*%
X19390000Y2360000D03*
%TO.P,J6,3*%
%TO.N,5V_HAT*%
X16850000Y4900000D03*
%TO.P,J6,4*%
%TO.N,SDA*%
X16850000Y2360000D03*
%TO.P,J6,5*%
%TO.N,N/C*%
X14310000Y4900000D03*
%TO.P,J6,6*%
%TO.N,WS_HAT*%
X14310000Y2360000D03*
%TO.P,J6,7*%
%TO.N,MCLK_HAT*%
X11770000Y4900000D03*
%TO.P,J6,8*%
%TO.N,BCLK_HAT*%
X11770000Y2360000D03*
%TO.P,J6,9*%
%TO.N,TDM_HAT*%
X9230000Y4900000D03*
%TO.P,J6,10*%
%TO.N,N/C*%
X9230000Y2360000D03*
%TO.P,J6,11*%
X6690000Y4900000D03*
%TO.P,J6,12*%
X6690000Y2360000D03*
%TO.P,J6,13*%
X4150000Y4900000D03*
%TO.P,J6,14*%
X4150000Y2360000D03*
%TO.P,J6,15*%
X1610000Y4900000D03*
%TO.P,J6,16*%
X1610000Y2360000D03*
%TD*%
D16*
%TO.P,R28,1*%
%TO.N,3V3A*%
X9625000Y25700000D03*
%TO.P,R28,2*%
%TO.N,VDIV*%
X11275000Y25700000D03*
%TD*%
D17*
%TO.P,R12,1*%
%TO.N,BIAS4*%
X14915000Y26970000D03*
%TO.P,R12,2*%
%TO.N,VMID*%
X15935000Y26970000D03*
%TD*%
D14*
%TO.P,C43,1*%
%TO.N,3V3D*%
X12250000Y12020000D03*
%TO.P,C43,2*%
%TO.N,GND*%
X12250000Y12980000D03*
%TD*%
D12*
%TO.P,R32,1*%
%TO.N,MCLK_HAT*%
X1750000Y13890000D03*
%TO.P,R32,2*%
%TO.N,MCLK*%
X1750000Y14910000D03*
%TD*%
D17*
%TO.P,R25,1*%
%TO.N,LP5A*%
X16440000Y17300000D03*
%TO.P,R25,2*%
%TO.N,LP5B*%
X17460000Y17300000D03*
%TD*%
D34*
%TO.P,U5,1*%
%TO.N,5V_HAT*%
X1962500Y8700000D03*
%TO.P,U5,2*%
%TO.N,GND*%
X1962500Y7750000D03*
%TO.P,U5,3*%
%TO.N,5V_HAT*%
X1962500Y6800000D03*
%TO.P,U5,4*%
%TO.N,N/C*%
X4237500Y6800000D03*
%TO.P,U5,5*%
%TO.N,3V3A*%
X4237500Y8700000D03*
%TD*%
D14*
%TO.P,C36,1*%
%TO.N,U4_MICBIAS12*%
X19350000Y14420000D03*
%TO.P,C36,2*%
%TO.N,GND*%
X19350000Y15380000D03*
%TD*%
D19*
%TO.P,C6,1*%
%TO.N,AIN1N*%
X2075000Y19600000D03*
%TO.P,C6,2*%
%TO.N,GND*%
X3625000Y19600000D03*
%TD*%
D17*
%TO.P,R15,1*%
%TO.N,BIAS5*%
X18855000Y26970000D03*
%TO.P,R15,2*%
%TO.N,VMID*%
X19875000Y26970000D03*
%TD*%
D10*
%TO.P,C8,1*%
%TO.N,LP2B*%
X8170000Y22000000D03*
%TO.P,C8,2*%
%TO.N,GND*%
X9130000Y22000000D03*
%TD*%
D14*
%TO.P,C32,1*%
%TO.N,3V3D*%
X1650000Y12020000D03*
%TO.P,C32,2*%
%TO.N,GND*%
X1650000Y12980000D03*
%TD*%
D23*
%TO.P,U3,1*%
%TO.N,GND*%
X3250000Y13900000D03*
D24*
%TO.P,U3,2*%
X3250000Y13500000D03*
%TO.P,U3,3*%
%TO.N,SDA*%
X3250000Y13100000D03*
%TO.P,U3,4*%
%TO.N,SCL*%
X3250000Y12700000D03*
%TO.P,U3,5*%
%TO.N,MCLK*%
X3250000Y12300000D03*
%TO.P,U3,6*%
%TO.N,3V3D*%
X3250000Y11900000D03*
%TO.P,U3,7*%
X3250000Y11500000D03*
D25*
%TO.P,U3,8*%
%TO.N,GND*%
X3250000Y11100000D03*
D26*
%TO.P,U3,9*%
%TO.N,BCLK*%
X3800000Y10550000D03*
D27*
%TO.P,U3,10*%
%TO.N,WS*%
X4200000Y10550000D03*
%TO.P,U3,11*%
%TO.N,CASCADE*%
X4600000Y10550000D03*
%TO.P,U3,12*%
%TO.N,GND*%
X5000000Y10550000D03*
%TO.P,U3,13*%
%TO.N,INT3*%
X5400000Y10550000D03*
%TO.P,U3,14*%
%TO.N,N/C*%
X5800000Y10550000D03*
%TO.P,U3,15*%
%TO.N,AIN1N*%
X6200000Y10550000D03*
D28*
%TO.P,U3,16*%
%TO.N,AIN1P*%
X6600000Y10550000D03*
D29*
%TO.P,U3,17*%
%TO.N,U3_REFP12*%
X7150000Y11100000D03*
D24*
%TO.P,U3,18*%
%TO.N,U3_REFQ12*%
X7150000Y11500000D03*
%TO.P,U3,19*%
%TO.N,AIN2P*%
X7150000Y11900000D03*
%TO.P,U3,20*%
%TO.N,AIN2N*%
X7150000Y12300000D03*
%TO.P,U3,21*%
%TO.N,GND*%
X7150000Y12700000D03*
%TO.P,U3,22*%
%TO.N,3V3A*%
X7150000Y13100000D03*
%TO.P,U3,23*%
X7150000Y13500000D03*
D30*
%TO.P,U3,24*%
%TO.N,U3_MICBIAS12*%
X7150000Y13900000D03*
D31*
%TO.P,U3,25*%
%TO.N,U3_REFQM*%
X6600000Y14450000D03*
D27*
%TO.P,U3,26*%
%TO.N,U3_MICBIAS34*%
X6200000Y14450000D03*
%TO.P,U3,27*%
%TO.N,AIN4N*%
X5800000Y14450000D03*
%TO.P,U3,28*%
%TO.N,AIN4P*%
X5400000Y14450000D03*
%TO.P,U3,29*%
%TO.N,U3_REFP34*%
X5000000Y14450000D03*
%TO.P,U3,30*%
%TO.N,U3_REFQ34*%
X4600000Y14450000D03*
%TO.P,U3,31*%
%TO.N,AIN3P*%
X4200000Y14450000D03*
D32*
%TO.P,U3,32*%
%TO.N,AIN3N*%
X3800000Y14450000D03*
D33*
%TO.P,U3,33*%
%TO.N,GND*%
X5200000Y12500000D03*
%TD*%
D17*
%TO.P,R9,1*%
%TO.N,BIAS3*%
X10975000Y26970000D03*
%TO.P,R9,2*%
%TO.N,VMID*%
X11995000Y26970000D03*
%TD*%
D11*
%TO.P,C53,1*%
%TO.N,5V_HAT*%
X10950000Y6825000D03*
%TO.P,C53,2*%
%TO.N,GND*%
X10950000Y8375000D03*
%TD*%
D10*
%TO.P,C26,1*%
%TO.N,U3_REFQM*%
X5970000Y16100000D03*
%TO.P,C26,2*%
%TO.N,GND*%
X6930000Y16100000D03*
%TD*%
D14*
%TO.P,C45,1*%
%TO.N,AIN6P*%
X8450000Y23020000D03*
%TO.P,C45,2*%
%TO.N,GND*%
X8450000Y23980000D03*
%TD*%
D17*
%TO.P,R6,1*%
%TO.N,BIAS2*%
X7035000Y26970000D03*
%TO.P,R6,2*%
%TO.N,VMID*%
X8055000Y26970000D03*
%TD*%
%TO.P,R21,1*%
%TO.N,LP3A*%
X9140000Y19900000D03*
%TO.P,R21,2*%
%TO.N,LP3B*%
X10160000Y19900000D03*
%TD*%
D37*
%TO.N,GND*%
X11725000Y10525000D03*
X4800000Y18600000D03*
X15450000Y16075000D03*
X20225000Y8200000D03*
X17700000Y24500000D03*
X11200000Y12075000D03*
X13325000Y9550000D03*
X2998400Y7855700D03*
X18225000Y8300000D03*
X6925000Y16675000D03*
X6575000Y18700000D03*
X18900000Y13500000D03*
X15800000Y7775000D03*
%TO.N,VMID*%
X15669200Y21898800D03*
X19875000Y28910100D03*
X4024300Y26281300D03*
X8055000Y27647000D03*
X12023000Y27850900D03*
%TO.N,3V3A*%
X4321800Y27650600D03*
X7900000Y14025000D03*
X8150000Y12900000D03*
X15418400Y6016200D03*
X2491300Y25700700D03*
X9250500Y9655000D03*
X4237500Y9356700D03*
X9300000Y13600000D03*
%TO.N,HI2*%
X4939200Y27652300D03*
X6700000Y28416900D03*
X3701300Y22835400D03*
%TO.N,HI3*%
X7550000Y24100000D03*
X9874500Y30341000D03*
X9005000Y27685200D03*
%TO.N,HI4*%
X13669500Y30332300D03*
X7564500Y25865400D03*
X12945000Y27651200D03*
%TO.N,BUF3*%
X6977000Y22774000D03*
X8514800Y20274800D03*
%TO.N,BUF4*%
X6867000Y25736600D03*
X14115400Y22978100D03*
%TO.N,BUF1*%
X4316200Y25741600D03*
X1034700Y23259800D03*
%TO.N,VDIV*%
X17925000Y24000000D03*
X17156300Y25482100D03*
X11951800Y25063100D03*
X13190700Y23320400D03*
%TO.N,BUF5*%
X16558600Y20368700D03*
X14462500Y25526800D03*
%TO.N,AIN1P*%
X2777400Y16992200D03*
X7117000Y10267200D03*
%TO.N,AIN1N*%
X8025000Y9250000D03*
X1275000Y19450000D03*
%TO.N,LP2B*%
X6818000Y21563000D03*
X7252300Y17511500D03*
%TO.N,AIN2P*%
X8925000Y17325000D03*
X8375000Y12050000D03*
%TO.N,AIN2N*%
X7900000Y12350000D03*
X5400000Y19175000D03*
%TO.N,AIN3P*%
X4000000Y15200000D03*
X11129000Y16170000D03*
%TO.N,AIN3N*%
X9021100Y17946100D03*
X3334400Y14362800D03*
%TO.N,LP4A*%
X14000000Y21350000D03*
X10850000Y20225000D03*
%TO.N,LP4B*%
X13675000Y22300000D03*
X12850000Y16950000D03*
%TO.N,AIN4P*%
X5400000Y15203900D03*
X10550200Y16088900D03*
%TO.N,AIN4N*%
X6750000Y22200000D03*
X12675000Y19125000D03*
X6000000Y15250000D03*
%TO.N,LP5A*%
X15845100Y18317900D03*
X19674600Y19769800D03*
%TO.N,LP5B*%
X19293800Y18408700D03*
X17516200Y22610800D03*
%TO.N,AIN5P*%
X19583200Y19175000D03*
X18100000Y10050000D03*
%TO.N,AIN5N*%
X17775000Y19325000D03*
X16400000Y9250000D03*
%TO.N,SDA*%
X3172100Y5885700D03*
X2375000Y13100000D03*
X7775800Y22939100D03*
X5175000Y7200000D03*
X1275000Y9325000D03*
X13100000Y13250000D03*
X14250000Y19050000D03*
X800000Y16950000D03*
%TO.N,SCL*%
X9825000Y21575000D03*
X11650000Y12550000D03*
X13095200Y12647100D03*
X2225000Y12600000D03*
X2032000Y6136700D03*
X10500000Y13350000D03*
%TO.N,MCLK*%
X13076900Y11896800D03*
X2725000Y12300000D03*
X5000000Y20375000D03*
X11775000Y17875000D03*
X1100000Y16475000D03*
X1139400Y15326500D03*
%TO.N,3V3D*%
X2534700Y9547500D03*
X11966400Y7536400D03*
X12215000Y22688900D03*
X9866100Y24708500D03*
X13325800Y14349400D03*
%TO.N,BCLK*%
X13796300Y9947900D03*
X16375200Y7667500D03*
X3345900Y10550000D03*
%TO.N,WS*%
X14235900Y9537300D03*
X8200000Y5900000D03*
X19576400Y7116400D03*
X3813200Y9790600D03*
X11675000Y6325000D03*
%TO.N,CASCADE*%
X11218800Y13423000D03*
X5253200Y9457200D03*
%TO.N,INT3*%
X5700000Y9800000D03*
X7775000Y10250000D03*
%TO.N,U3_REFQ12*%
X8225000Y11550000D03*
X8975000Y12275000D03*
%TO.N,U3_REFQM*%
X5750000Y16550000D03*
X8975000Y16525000D03*
X7257400Y14929700D03*
%TO.N,U3_REFP34*%
X2825000Y15475000D03*
%TO.N,U3_REFQ34*%
X8075000Y19025000D03*
X4600000Y15175000D03*
X4338300Y19012800D03*
%TO.N,TDM_OUT*%
X11974700Y14235300D03*
X14814700Y9502100D03*
%TO.N,CASCADE_IN*%
X11655300Y14870100D03*
X12267000Y9271300D03*
%TO.N,U4_REFP12*%
X17425000Y8275000D03*
X19400000Y11350000D03*
%TO.N,U4_REFQ12*%
X18275000Y11500000D03*
X19575000Y11925000D03*
%TO.N,AIN6P*%
X17075000Y16650000D03*
X15700000Y20200000D03*
X13475000Y22875000D03*
X19025000Y11750000D03*
X7800000Y23650000D03*
%TO.N,AIN6N*%
X17043900Y22126500D03*
X18525000Y14025000D03*
X18515200Y12300000D03*
%TO.N,U4_MICBIAS34*%
X16800000Y15475000D03*
X16825000Y17875000D03*
%TO.N,AIN8N*%
X9117400Y24920000D03*
X15905700Y16548100D03*
X16400000Y14975000D03*
%TO.N,AIN8P*%
X17900000Y25350000D03*
X16000000Y15575000D03*
%TO.N,U4_REFP34*%
X15412800Y15393200D03*
X13652500Y15495300D03*
%TO.N,AIN7P*%
X19625000Y29800000D03*
X14250000Y15200000D03*
%TO.N,AIN7N*%
X13900000Y6025000D03*
X14925000Y7950000D03*
X16000000Y9800000D03*
X13933200Y14650300D03*
X19950000Y23200000D03*
X15550000Y27875000D03*
X2401400Y23710000D03*
%TO.N,5V_HAT*%
X13065200Y3998300D03*
%TO.N,MCLK_HAT*%
X744100Y9730700D03*
%TO.N,TDM_HAT*%
X9933400Y15458200D03*
%TD*%
D38*
%TO.N,PZ1*%
X1774400Y32400600D02*
X2075000Y32100000D01*
X2900000Y36400000D02*
X1774400Y35274400D01*
X1774400Y35274400D02*
X1774400Y32400600D01*
D39*
%TO.N,GND*%
X10550000Y25625000D02*
X10325000Y25850000D01*
D38*
X4430000Y20405000D02*
X4430000Y20900000D01*
D39*
X9725000Y26475000D02*
X9700000Y26475000D01*
D38*
X9330000Y12480000D02*
X9830000Y11600000D01*
D39*
X17650000Y12600000D02*
X17625000Y12600000D01*
X12525000Y27850000D02*
X12550000Y27875000D01*
D38*
X2250000Y30946700D02*
X2250000Y28362500D01*
D39*
X10750000Y24775000D02*
X10575000Y24950000D01*
X19692800Y16942300D02*
X20111800Y17361300D01*
X12450000Y27150000D02*
X12475000Y27175000D01*
D38*
X15815900Y12515900D02*
X15815900Y12590900D01*
X16948100Y18881900D02*
X16713200Y18881900D01*
D39*
X2270000Y13600000D02*
X1650000Y12980000D01*
D38*
X2930000Y22900000D02*
X2930000Y21900000D01*
D39*
X6925000Y18300000D02*
X6575000Y18650000D01*
X12225000Y26125000D02*
X12250000Y26125000D01*
X7150000Y12700000D02*
X7500000Y12700000D01*
X10800000Y12350000D02*
X10475000Y12350000D01*
D38*
X7425000Y19700000D02*
X6930000Y19205000D01*
D39*
X12500000Y27375000D02*
X12500000Y27800000D01*
D38*
X4430000Y20900000D02*
X3430000Y21900000D01*
D39*
X12500000Y27800000D02*
X12525000Y27825000D01*
D38*
X15161800Y19736800D02*
X15025000Y19600000D01*
X13767000Y13417000D02*
X13850000Y13500000D01*
D39*
X17914600Y31715500D02*
X17845800Y31646700D01*
X11075000Y14450000D02*
X11100000Y14450000D01*
D38*
X9130000Y21900000D02*
X9130000Y22000000D01*
X9955000Y23647300D02*
X9038600Y23647300D01*
D39*
X19425000Y21400000D02*
X19275000Y21400000D01*
X15700000Y24315900D02*
X16972200Y24315900D01*
X17425000Y12650000D02*
X17175000Y12650000D01*
D38*
X9516200Y15380000D02*
X9516200Y15013800D01*
D39*
X4750000Y18900000D02*
X4750000Y19150000D01*
X15815900Y12590900D02*
X17640900Y12590900D01*
X20111800Y22488000D02*
X19747700Y22852100D01*
X17975000Y21900000D02*
X17150000Y21075000D01*
D38*
X14442200Y11142200D02*
X15800000Y12500000D01*
X19287700Y16942300D02*
X18813700Y16942300D01*
D39*
X20111800Y17361300D02*
X20111800Y22488000D01*
X12475000Y27175000D02*
X12475000Y27350000D01*
D38*
X6700000Y31900900D02*
X6514600Y31715500D01*
X19330000Y25400000D02*
X19330000Y24889200D01*
D39*
X12725000Y28050000D02*
X12750000Y28075000D01*
X10575000Y24950000D02*
X10575000Y25150000D01*
D38*
X9516200Y15380000D02*
X9516200Y15645800D01*
X11450000Y24480000D02*
X10950000Y24480000D01*
D39*
X15025000Y16100000D02*
X15425000Y16100000D01*
X10225000Y26125000D02*
X10625000Y26125000D01*
D38*
X19330000Y23400000D02*
X19830000Y24400000D01*
D39*
X12750000Y28075000D02*
X12775000Y28075000D01*
D38*
X17450000Y30946700D02*
X17450000Y28362500D01*
X3905500Y11159600D02*
X5000000Y11159600D01*
D39*
X12530000Y20400000D02*
X12030000Y20900000D01*
X9400000Y14300000D02*
X9400000Y14425000D01*
X17845800Y31646700D02*
X17845800Y31342500D01*
X9850000Y28225000D02*
X9850000Y28350000D01*
D38*
X8450000Y25880000D02*
X7678300Y25108300D01*
D39*
X10200000Y26175000D02*
X9925000Y26450000D01*
X2950000Y10350000D02*
X2925000Y10375000D01*
D38*
X3309600Y11159600D02*
X3905500Y11159600D01*
D39*
X12550000Y27900000D02*
X12700000Y28050000D01*
X17175000Y12650000D02*
X17125000Y12700000D01*
X18025000Y9100000D02*
X18025000Y9300000D01*
X11225000Y14300000D02*
X11250000Y14275000D01*
X9550000Y26675000D02*
X9550000Y27725000D01*
X6514600Y31715500D02*
X6445800Y31646700D01*
D38*
X6930000Y19205000D02*
X6930000Y18300000D01*
D39*
X10475000Y12350000D02*
X10350000Y12475000D01*
D38*
X19430000Y23300000D02*
X19430000Y22400000D01*
X19430000Y21400000D02*
X19450000Y21380000D01*
D39*
X10375000Y14450000D02*
X10400000Y14450000D01*
X10225000Y25975000D02*
X10225000Y26125000D01*
X12775000Y28075000D02*
X12875000Y28175000D01*
D38*
X6700000Y33900000D02*
X6700000Y31900900D01*
D39*
X18775000Y21875000D02*
X18750000Y21900000D01*
D38*
X3104100Y7750000D02*
X6962500Y7750000D01*
X7678300Y24751700D02*
X7426600Y24500000D01*
D39*
X13850000Y10650000D02*
X13400000Y10200000D01*
X4375000Y19600000D02*
X3625000Y19600000D01*
D38*
X15800000Y12500000D02*
X15815900Y12515900D01*
D39*
X12425000Y25975000D02*
X12650000Y25750000D01*
X18125000Y8500000D02*
X18125000Y8825000D01*
D38*
X3250000Y11100000D02*
X3309600Y11159600D01*
D39*
X10575000Y25150000D02*
X10550000Y25175000D01*
X6925000Y16100000D02*
X6925000Y16675000D01*
X17640900Y12590900D02*
X17750000Y12700000D01*
X8938800Y23718900D02*
X8939200Y23719300D01*
D38*
X5048400Y17681600D02*
X5048400Y16718400D01*
X11715100Y8375000D02*
X12550000Y8375000D01*
D39*
X11925000Y26350000D02*
X12050000Y26225000D01*
D38*
X10136600Y23666600D02*
X10117300Y23647300D01*
D39*
X13400000Y10175000D02*
X13375000Y10150000D01*
X19287700Y16942300D02*
X19692800Y16942300D01*
X6822200Y24315900D02*
X7006300Y24500000D01*
D38*
X12030000Y20900000D02*
X13030000Y21900000D01*
D39*
X11250000Y14275000D02*
X11250000Y14025000D01*
X9700000Y26475000D02*
X9600000Y26575000D01*
X12125000Y26225000D02*
X12225000Y26125000D01*
X12650000Y25750000D02*
X12725000Y25750000D01*
X4800000Y18600000D02*
X4800000Y18675000D01*
D38*
X3250000Y11100000D02*
X3130000Y10980000D01*
D39*
X12550000Y27875000D02*
X12550000Y27900000D01*
X17156250Y24500000D02*
X17750000Y24500000D01*
X19150000Y13475000D02*
X19350000Y13275000D01*
X9575000Y26625000D02*
X9575000Y26650000D01*
X10225000Y26125000D02*
X10200000Y26150000D01*
D38*
X9011200Y23647300D02*
X8939200Y23719300D01*
X6930000Y16100000D02*
X6930000Y15983400D01*
D39*
X18050000Y9075000D02*
X18025000Y9100000D01*
D38*
X15830000Y20900000D02*
X15330000Y20400000D01*
D39*
X2645800Y31646700D02*
X2645800Y31342500D01*
D38*
X15025000Y19600000D02*
X15025000Y18305000D01*
D39*
X9400000Y14425000D02*
X9750000Y14775000D01*
D38*
X17845800Y31342500D02*
X17450000Y30946700D01*
X6050000Y30946700D02*
X6050000Y28362500D01*
X7426600Y24500000D02*
X7006300Y24500000D01*
D39*
X17600000Y12625000D02*
X17450000Y12625000D01*
X18813700Y16942300D02*
X18552300Y16942300D01*
X15775000Y7800000D02*
X15775000Y7850000D01*
X13850000Y11100000D02*
X13850000Y10650000D01*
X13400000Y10200000D02*
X13400000Y10175000D01*
X6575000Y18650000D02*
X6575000Y18700000D01*
X7040900Y12590900D02*
X7150000Y12700000D01*
X2900000Y10750000D02*
X3125000Y10975000D01*
X13450000Y28350000D02*
X13650000Y28350000D01*
D38*
X10117300Y23647300D02*
X9955000Y23647300D01*
X13892200Y11142200D02*
X14442200Y11142200D01*
D39*
X9955000Y22825000D02*
X9130000Y22000000D01*
X4725000Y19175000D02*
X4725000Y19250000D01*
X15750000Y7875000D02*
X15750000Y8375000D01*
X13959100Y13390900D02*
X13850000Y13500000D01*
D38*
X19830000Y16400000D02*
X19830000Y15860000D01*
D39*
X13275000Y28175000D02*
X13450000Y28350000D01*
X8146600Y15983400D02*
X8750000Y15380000D01*
D38*
X2645800Y31342500D02*
X2250000Y30946700D01*
D39*
X4700000Y18775000D02*
X4700000Y18800000D01*
X12425000Y26525000D02*
X12425000Y26650000D01*
X9575000Y27750000D02*
X9575000Y27950000D01*
X12725000Y25750000D02*
X12750000Y25725000D01*
D38*
X17530000Y18300000D02*
X16948100Y18881900D01*
D39*
X10400000Y14450000D02*
X10425000Y14475000D01*
D38*
X5000000Y11159600D02*
X5000000Y10550000D01*
X16713200Y18881900D02*
X16127200Y19467900D01*
X3634700Y13500000D02*
X3250000Y13500000D01*
X3905500Y13229200D02*
X3634700Y13500000D01*
X5550000Y24250000D02*
X5550000Y24315900D01*
D39*
X4750000Y19150000D02*
X4725000Y19175000D01*
X12525000Y27825000D02*
X12525000Y27850000D01*
X4800000Y18675000D02*
X4700000Y18775000D01*
D38*
X2930000Y22900000D02*
X2830000Y23000000D01*
D39*
X19125000Y13475000D02*
X19150000Y13475000D01*
X13375000Y10150000D02*
X13375000Y10125000D01*
X19747700Y22852100D02*
X19706500Y22852100D01*
D38*
X15700000Y24250000D02*
X15700000Y24315900D01*
D39*
X18900000Y13500000D02*
X19100000Y13500000D01*
X4425000Y18500000D02*
X4700000Y18775000D01*
X10136600Y23666600D02*
X10450000Y23980000D01*
D38*
X15030000Y18300000D02*
X15030000Y17300000D01*
D39*
X2950000Y10325000D02*
X2950000Y10350000D01*
X12450000Y26675000D02*
X12450000Y27150000D01*
D38*
X2900000Y31900900D02*
X2714600Y31715500D01*
X16975000Y20900000D02*
X17150000Y21075000D01*
D39*
X6445800Y31646700D02*
X6445800Y31342500D01*
D38*
X16127200Y19467900D02*
X16127200Y20900000D01*
D39*
X15161800Y20400000D02*
X12530000Y20400000D01*
X12250000Y26125000D02*
X12400000Y25975000D01*
X10200000Y26150000D02*
X10200000Y26175000D01*
X18750000Y21900000D02*
X17975000Y21900000D01*
X9600000Y26575000D02*
X9600000Y26600000D01*
X19275000Y21400000D02*
X18800000Y21875000D01*
X12475000Y27350000D02*
X12500000Y27375000D01*
X10325000Y25850000D02*
X10325000Y25875000D01*
X13375000Y10125000D02*
X13350000Y10100000D01*
D38*
X3250000Y13500000D02*
X3250000Y13600000D01*
D39*
X9550000Y27725000D02*
X9575000Y27750000D01*
D38*
X15815900Y12590900D02*
X15347000Y13059800D01*
D39*
X5200000Y12590900D02*
X7040900Y12590900D01*
D38*
X7425000Y20195000D02*
X7425000Y19700000D01*
D39*
X17418400Y24500000D02*
X17156300Y24500000D01*
X18800000Y21875000D02*
X18775000Y21875000D01*
D38*
X9516200Y15380000D02*
X8750000Y15380000D01*
D39*
X9575000Y27950000D02*
X9850000Y28225000D01*
X9925000Y26450000D02*
X9750000Y26450000D01*
X10850000Y12480000D02*
X10850000Y12025000D01*
X19706500Y22852100D02*
X19450000Y22595600D01*
X10425000Y14475000D02*
X11050000Y14475000D01*
X15347000Y13390900D02*
X13959100Y13390900D01*
D38*
X8938800Y23718900D02*
X8711100Y23718900D01*
D39*
X19100000Y13500000D02*
X19125000Y13475000D01*
D38*
X3905500Y11159600D02*
X3905500Y13229200D01*
X19830000Y15860000D02*
X19350000Y15380000D01*
D39*
X9038600Y23647300D02*
X9011200Y23647300D01*
X11050000Y14475000D02*
X11075000Y14450000D01*
X12050000Y26225000D02*
X12125000Y26225000D01*
D38*
X2998400Y7855700D02*
X3104100Y7750000D01*
X3130000Y10980000D02*
X1650000Y10980000D01*
D39*
X2714600Y31715500D02*
X2645800Y31646700D01*
D38*
X9516200Y15013800D02*
X9750000Y14780000D01*
X5000000Y12300000D02*
X5000000Y11159600D01*
X5048400Y16718400D02*
X4430000Y16100000D01*
D39*
X11550000Y13725000D02*
X11550000Y13700000D01*
X18125000Y8825000D02*
X18050000Y8900000D01*
X2925000Y10375000D02*
X2925000Y10400000D01*
X2925000Y10400000D02*
X2900000Y10425000D01*
X15775000Y7850000D02*
X15750000Y7875000D01*
X18225000Y8300000D02*
X18225000Y8400000D01*
D38*
X5200000Y12500000D02*
X5000000Y12300000D01*
X19330000Y23400000D02*
X19430000Y23300000D01*
X19430000Y22400000D02*
X19430000Y21400000D01*
X9516200Y15645800D02*
X10656400Y16786000D01*
D39*
X4425000Y18300000D02*
X4425000Y18500000D01*
D38*
X7678300Y25108300D02*
X7678300Y24972200D01*
X12250000Y10880000D02*
X11715100Y10345100D01*
X8711100Y23718900D02*
X8450000Y23980000D01*
X14150000Y8375000D02*
X12550000Y8375000D01*
D39*
X4725000Y19250000D02*
X4375000Y19600000D01*
D38*
X15347000Y13059800D02*
X15347000Y13390900D01*
X2900000Y33900000D02*
X2900000Y31900900D01*
D39*
X15800000Y7775000D02*
X15775000Y7800000D01*
D38*
X13850000Y11100000D02*
X13892200Y11142200D01*
D39*
X3250000Y13600000D02*
X2270000Y13600000D01*
D38*
X5200000Y12500000D02*
X5200000Y12590900D01*
D39*
X9400000Y14300000D02*
X10225000Y14300000D01*
D38*
X4430000Y18300000D02*
X5048400Y17681600D01*
X15830000Y20900000D02*
X16127200Y20900000D01*
D39*
X13350000Y10100000D02*
X13350000Y9575000D01*
D38*
X15030000Y17300000D02*
X15030000Y16100000D01*
D39*
X4725000Y18875000D02*
X4750000Y18900000D01*
D38*
X18100000Y31900900D02*
X17914600Y31715500D01*
D39*
X2900000Y10425000D02*
X2900000Y10750000D01*
X11625000Y13600000D02*
X12250000Y12975000D01*
X2998400Y7855700D02*
X2068200Y7855700D01*
D38*
X10950000Y8375000D02*
X11715100Y8375000D01*
D39*
X17625000Y12600000D02*
X17600000Y12625000D01*
X11725000Y26350000D02*
X11925000Y26350000D01*
X10550000Y25175000D02*
X10550000Y25625000D01*
D38*
X19830000Y16400000D02*
X19692800Y16537200D01*
D39*
X13350000Y9575000D02*
X13325000Y9550000D01*
X18050000Y8900000D02*
X18050000Y9075000D01*
X10850000Y12025000D02*
X11200000Y12075000D01*
D38*
X3250000Y13600000D02*
X3250000Y13900000D01*
X6445800Y31342500D02*
X6050000Y30946700D01*
D39*
X3000000Y7850000D02*
X3000000Y10275000D01*
X5550000Y24315900D02*
X6822200Y24315900D01*
D38*
X3625000Y19600000D02*
X4430000Y20405000D01*
D39*
X9955000Y23647300D02*
X9955000Y22825000D01*
X9575000Y26650000D02*
X9550000Y26675000D01*
D38*
X3430000Y21900000D02*
X2930000Y21900000D01*
D39*
X4700000Y18800000D02*
X4725000Y18825000D01*
X10225000Y14300000D02*
X10375000Y14450000D01*
D38*
X12250000Y12980000D02*
X10850000Y12980000D01*
X2830000Y23000000D02*
X2830000Y24500000D01*
D39*
X3000000Y10275000D02*
X2950000Y10325000D01*
X17750000Y24500000D02*
X17700000Y24500000D01*
D38*
X19330000Y24889200D02*
X19830000Y24400000D01*
D39*
X11100000Y14450000D02*
X11225000Y14325000D01*
X15330000Y20400000D02*
X15161800Y20400000D01*
X10950000Y24475000D02*
X10750000Y24675000D01*
D38*
X10850000Y12980000D02*
X10850000Y12480000D01*
D39*
X12125000Y26225000D02*
X12425000Y26525000D01*
X12700000Y28050000D02*
X12725000Y28050000D01*
X11250000Y14025000D02*
X11550000Y13725000D01*
X7678300Y24972200D02*
X7678300Y24751700D01*
D38*
X19692800Y16537200D02*
X19692800Y16942300D01*
D39*
X10750000Y24675000D02*
X10750000Y24775000D01*
D38*
X16127200Y20900000D02*
X16975000Y20900000D01*
X10656400Y16786000D02*
X10656400Y18031400D01*
X8450000Y23980000D02*
X7678300Y24751700D01*
D39*
X11225000Y14325000D02*
X11225000Y14300000D01*
X2068200Y7855700D02*
X1962500Y7750000D01*
D38*
X15161800Y20400000D02*
X15161800Y19736800D01*
X10850000Y12480000D02*
X9330000Y12480000D01*
X9830000Y12800000D02*
X9330000Y12480000D01*
D39*
X10625000Y26125000D02*
X10875000Y26375000D01*
X9750000Y26450000D02*
X9725000Y26475000D01*
X10325000Y25875000D02*
X10225000Y25975000D01*
X6930000Y15983400D02*
X8146600Y15983400D01*
X16972200Y24315900D02*
X17156300Y24500000D01*
D38*
X17530000Y16100000D02*
X17710000Y16100000D01*
D39*
X10875000Y26375000D02*
X11700000Y26375000D01*
X11700000Y26375000D02*
X11725000Y26350000D01*
X12425000Y26650000D02*
X12450000Y26675000D01*
X18225000Y8400000D02*
X18125000Y8500000D01*
X4725000Y18825000D02*
X4725000Y18875000D01*
D38*
X15025000Y18305000D02*
X15030000Y18300000D01*
X10656400Y18031400D02*
X11225000Y18600000D01*
D39*
X11625000Y13625000D02*
X11625000Y13600000D01*
D38*
X18100000Y33900000D02*
X18100000Y31900900D01*
X8230000Y21000000D02*
X9130000Y21900000D01*
D39*
X12875000Y28175000D02*
X13275000Y28175000D01*
D38*
X17710000Y16100000D02*
X18398800Y16788800D01*
X8230000Y21000000D02*
X7425000Y20195000D01*
D39*
X18552300Y16942300D02*
X18398800Y16788800D01*
X11550000Y13700000D02*
X11625000Y13625000D01*
X17450000Y12625000D02*
X17425000Y12650000D01*
X11725000Y10350000D02*
X11725000Y10525000D01*
X15425000Y16100000D02*
X15450000Y16075000D01*
X12400000Y25975000D02*
X12425000Y25975000D01*
X9600000Y26600000D02*
X9575000Y26625000D01*
X19450000Y22595600D02*
X19450000Y21380000D01*
D38*
X14150000Y8375000D02*
X15750000Y8375000D01*
X11715100Y10345100D02*
X11715100Y8375000D01*
D39*
X19830000Y8200000D02*
X20225000Y8200000D01*
D38*
X10950000Y24480000D02*
X10450000Y23980000D01*
%TO.N,HI1*%
X3725000Y31062500D02*
X3725000Y32100000D01*
X1670700Y26424300D02*
X1125000Y26970000D01*
X3579100Y27273800D02*
X3370200Y27482700D01*
X3579100Y26424300D02*
X1670700Y26424300D01*
X2900000Y27821500D02*
X2900000Y30237500D01*
X3579100Y25514700D02*
X3579100Y26424300D01*
X3238800Y27482700D02*
X2900000Y27821500D01*
X2900000Y30237500D02*
X3725000Y31062500D01*
X4093800Y25000000D02*
X3579100Y25514700D01*
X3370200Y27482700D02*
X3238800Y27482700D01*
X3579100Y26424300D02*
X3579100Y27273800D01*
%TO.N,BIAS1*%
X2145000Y26970000D02*
X3095000Y26970000D01*
D39*
%TO.N,VMID*%
X16601000Y26304000D02*
X15935000Y26970000D01*
X19992000Y26592400D02*
X19992000Y26218100D01*
D38*
X15542800Y21898800D02*
X15669200Y21898800D01*
X14950000Y22793800D02*
X14950000Y22491600D01*
X12023000Y27850900D02*
X12023000Y26998000D01*
D39*
X18834200Y26204600D02*
X18700900Y26071300D01*
D38*
X19875000Y26970000D02*
X19992000Y26853000D01*
X4115000Y26372000D02*
X4024300Y26281300D01*
D39*
X18700900Y26071300D02*
X17021500Y26071300D01*
D38*
X14950000Y22491600D02*
X15542800Y21898800D01*
X19992000Y26218100D02*
X19992000Y26204600D01*
X14243800Y23500000D02*
X14950000Y22793800D01*
X19875000Y26970000D02*
X19875000Y28910100D01*
D39*
X19992000Y26204600D02*
X18834200Y26204600D01*
D38*
X8055000Y26970000D02*
X8055000Y27647000D01*
X19992000Y26853000D02*
X19992000Y26592400D01*
D39*
X16788800Y26304000D02*
X16601000Y26304000D01*
D38*
X12023000Y26998000D02*
X11995000Y26970000D01*
D39*
X17021500Y26071300D02*
X16788800Y26304000D01*
D38*
X4115000Y26970000D02*
X4115000Y26372000D01*
%TO.N,3V3A*%
X19029700Y14900000D02*
X18815700Y15114000D01*
X8905800Y26419200D02*
X8439200Y26419200D01*
X19910200Y12987300D02*
X19910200Y14664500D01*
X13468300Y24673300D02*
X12306300Y24673300D01*
D39*
X10100000Y11125000D02*
X10075000Y11100000D01*
D38*
X8439200Y26419200D02*
X8379300Y26479100D01*
D39*
X19927600Y8973100D02*
X19749900Y8795400D01*
X17077500Y27558800D02*
X17457000Y27558800D01*
D38*
X14950000Y28362500D02*
X14134400Y29178100D01*
D39*
X20200000Y11600000D02*
X20225000Y11625000D01*
D38*
X7350000Y27500200D02*
X7496200Y27354000D01*
X14818900Y6156100D02*
X14150000Y6825000D01*
D39*
X7725000Y13850000D02*
X7900000Y14025000D01*
X20200000Y11950000D02*
X20175000Y11975000D01*
D38*
X13685000Y27482700D02*
X14070200Y27482700D01*
X18815700Y15114000D02*
X18815700Y16345700D01*
X19674700Y14900000D02*
X19029700Y14900000D01*
D39*
X7150000Y13100000D02*
X7725000Y13100000D01*
X9575000Y10750000D02*
X9475000Y10650000D01*
D38*
X4794000Y26457300D02*
X4590000Y26661300D01*
X4590000Y27382400D02*
X4321800Y27650600D01*
D39*
X10850000Y11525000D02*
X10525000Y11525000D01*
D38*
X18810000Y8200000D02*
X18870000Y8200000D01*
D39*
X20100000Y12300000D02*
X20075000Y12325000D01*
D38*
X15418400Y6156100D02*
X15418400Y6016200D01*
X4237500Y8700000D02*
X4237500Y9356700D01*
D39*
X9900000Y11100000D02*
X9575000Y10775000D01*
D38*
X17657300Y7047300D02*
X18810000Y8200000D01*
X12306300Y24673300D02*
X11957700Y24324700D01*
X16147300Y6156100D02*
X16465400Y6474200D01*
D39*
X9525000Y13825000D02*
X9300000Y13600000D01*
D38*
X3550000Y28362500D02*
X4261900Y27650600D01*
D39*
X9575000Y10775000D02*
X9575000Y10750000D01*
D38*
X17541600Y27474200D02*
X17548600Y27481200D01*
D39*
X7496200Y27354000D02*
X7496200Y27226800D01*
X10125000Y11125000D02*
X10100000Y11125000D01*
D38*
X10317100Y29195400D02*
X8182900Y29195400D01*
X18815700Y16345700D02*
X18870000Y16400000D01*
X18750000Y28340000D02*
X18750000Y28362500D01*
D39*
X20225000Y11900000D02*
X20200000Y11925000D01*
X7725000Y13100000D02*
X7725000Y13850000D01*
X7725000Y13100000D02*
X8150000Y12900000D01*
D38*
X14134400Y29178100D02*
X11965600Y29178100D01*
X7150000Y13100000D02*
X7150000Y13500000D01*
X4590000Y26661300D02*
X4590000Y27382400D01*
X13468300Y27266000D02*
X13685000Y27482700D01*
D39*
X20200000Y11925000D02*
X20200000Y11950000D01*
D38*
X16812900Y7047300D02*
X17657300Y7047300D01*
X17548600Y27481200D02*
X17628300Y27481200D01*
X18953200Y12801500D02*
X18654700Y13100000D01*
X7350000Y28362500D02*
X7350000Y27500200D01*
X19724400Y12801500D02*
X19910200Y12987300D01*
D39*
X20175000Y11550000D02*
X20200000Y11575000D01*
D38*
X15418400Y6156100D02*
X14818900Y6156100D01*
D39*
X20225000Y11625000D02*
X20225000Y11900000D01*
D38*
X11957700Y24324700D02*
X11957700Y24027700D01*
D39*
X19749900Y8795400D02*
X19465400Y8795400D01*
X7496200Y27226800D02*
X7545000Y27178000D01*
D38*
X7545000Y26458800D02*
X7543500Y26457300D01*
D39*
X9575000Y13825000D02*
X9525000Y13825000D01*
D38*
X15418400Y6156100D02*
X16147300Y6156100D01*
X2380800Y25010800D02*
X2491300Y25010800D01*
D39*
X20200000Y11575000D02*
X20200000Y11600000D01*
D38*
X2491300Y25700700D02*
X2491300Y25010800D01*
X11965600Y29178100D02*
X11150000Y28362500D01*
X19910200Y14664500D02*
X19674700Y14900000D01*
X14243800Y24500000D02*
X14070500Y24673300D01*
D39*
X20100000Y12075000D02*
X20100000Y12300000D01*
D38*
X16465400Y6474200D02*
X16465400Y6699800D01*
X4261900Y27650600D02*
X4321800Y27650600D01*
X11957700Y24027700D02*
X11450000Y23520000D01*
D39*
X8379300Y26479100D02*
X8270600Y26479100D01*
X20175000Y11525000D02*
X20175000Y11550000D01*
D38*
X2491300Y25010800D02*
X3239000Y25010800D01*
D39*
X19925000Y8975000D02*
X19925000Y11275000D01*
D38*
X7545000Y27178000D02*
X7545000Y26458800D01*
D39*
X20075000Y12325000D02*
X20075000Y12450000D01*
X10525000Y11525000D02*
X10125000Y11125000D01*
X8150000Y12900000D02*
X8150000Y12725000D01*
D38*
X19724400Y12801500D02*
X18953200Y12801500D01*
X14950000Y28362500D02*
X16273800Y28362500D01*
X9569400Y13820000D02*
X9750000Y13820000D01*
D39*
X19465400Y8795400D02*
X18870000Y8200000D01*
X8250300Y26458800D02*
X7545000Y26458800D01*
X20175000Y12000000D02*
X20100000Y12075000D01*
D38*
X13468300Y24673300D02*
X13468300Y27266000D01*
D39*
X8270600Y26479100D02*
X8250300Y26458800D01*
X19724400Y12801500D02*
X19927600Y12598300D01*
D38*
X3749800Y24500000D02*
X4093800Y24500000D01*
X14070500Y24673300D02*
X13468300Y24673300D01*
X1870000Y24500000D02*
X2380800Y25010800D01*
X16273800Y28362500D02*
X17077500Y27558800D01*
X17750000Y13100000D02*
X17750000Y13500000D01*
X14070200Y27482700D02*
X14950000Y28362500D01*
X9625000Y25700000D02*
X8905800Y26419200D01*
X16465400Y6699800D02*
X16812900Y7047300D01*
D39*
X17891200Y27481200D02*
X18750000Y28340000D01*
X17628300Y27481200D02*
X17891200Y27481200D01*
X20175000Y11975000D02*
X20175000Y12000000D01*
D38*
X9250500Y9655000D02*
X9250500Y10420500D01*
X18654700Y13100000D02*
X17750000Y13100000D01*
X7543500Y26457300D02*
X4794000Y26457300D01*
X8182900Y29195400D02*
X7350000Y28362500D01*
D39*
X19925000Y11275000D02*
X20175000Y11525000D01*
X17457000Y27558800D02*
X17541600Y27474200D01*
D38*
X3239000Y25010800D02*
X3749800Y24500000D01*
X9250500Y10420500D02*
X9474700Y10644700D01*
D39*
X10075000Y11100000D02*
X9900000Y11100000D01*
X20075000Y12450000D02*
X19925000Y12600000D01*
D38*
X11150000Y28362500D02*
X10317100Y29195400D01*
%TO.N,PZ2*%
X5520300Y32454700D02*
X5875000Y32100000D01*
X5520300Y35220300D02*
X5520300Y32454700D01*
X6700000Y36400000D02*
X5520300Y35220300D01*
%TO.N,HI2*%
X6700000Y30237500D02*
X6700000Y28416900D01*
X5065000Y26970000D02*
X5065000Y27526500D01*
X3482600Y23054100D02*
X3701300Y22835400D01*
X3788900Y24000000D02*
X3482600Y23693700D01*
X4093800Y24000000D02*
X3788900Y24000000D01*
X3482600Y23693700D02*
X3482600Y23054100D01*
X5065000Y27526500D02*
X4939200Y27652300D01*
X7525000Y31062500D02*
X7525000Y32100000D01*
X6700000Y30237500D02*
X7525000Y31062500D01*
%TO.N,BIAS2*%
X7035000Y26970000D02*
X6085000Y26970000D01*
%TO.N,PZ3*%
X9320300Y32454700D02*
X9675000Y32100000D01*
X10500000Y36400000D02*
X9320300Y35220300D01*
X9320300Y35220300D02*
X9320300Y32454700D01*
%TO.N,HI3*%
X9874500Y30341000D02*
X10396500Y30341000D01*
X7006300Y24000000D02*
X7412100Y24000000D01*
X9005000Y26970000D02*
X9005000Y27685200D01*
D39*
X7600000Y24000000D02*
X7550000Y24100000D01*
D38*
X10500000Y31275000D02*
X10500000Y30237500D01*
X10396500Y30341000D02*
X10500000Y30237500D01*
X11325000Y32100000D02*
X10500000Y31275000D01*
D39*
X7006250Y24000000D02*
X7600000Y24000000D01*
D38*
%TO.N,BIAS3*%
X10975000Y26970000D02*
X10025000Y26970000D01*
%TO.N,PZ4*%
X13120300Y35220300D02*
X13120300Y32454700D01*
X13120300Y32454700D02*
X13475000Y32100000D01*
X14300000Y36400000D02*
X13120300Y35220300D01*
%TO.N,HI4*%
X15125000Y32100000D02*
X14300000Y31275000D01*
X12945000Y26970000D02*
X12945000Y27651200D01*
X7006300Y25000000D02*
X7564500Y25558200D01*
X14300000Y31275000D02*
X14300000Y30237500D01*
X14205200Y30332300D02*
X14300000Y30237500D01*
X13669500Y30332300D02*
X14205200Y30332300D01*
X7564500Y25558200D02*
X7564500Y25865400D01*
%TO.N,BIAS4*%
X14915000Y26970000D02*
X13965000Y26970000D01*
%TO.N,PZ5*%
X16920300Y35220300D02*
X16920300Y32454700D01*
X18100000Y36400000D02*
X16920300Y35220300D01*
X16920300Y32454700D02*
X17275000Y32100000D01*
%TO.N,HI5*%
X18925000Y31062500D02*
X18925000Y32100000D01*
X15105600Y26362600D02*
X15472300Y26729300D01*
X16372300Y27482700D02*
X16885000Y26970000D01*
X15664300Y27482700D02*
X16372300Y27482700D01*
X14243800Y25000000D02*
X14011300Y25232500D01*
D39*
X19365000Y26458800D02*
X18699100Y26458800D01*
D38*
X19365000Y28972500D02*
X19365000Y26458800D01*
X15472300Y27290700D02*
X15664300Y27482700D01*
X14011300Y25232500D02*
X14011300Y25730500D01*
X15472300Y26729300D02*
X15472300Y27290700D01*
D39*
X18699100Y26458800D02*
X18575000Y26334700D01*
D38*
X14011300Y25730500D02*
X14643400Y26362600D01*
X17520300Y26334700D02*
X16885000Y26970000D01*
X14643400Y26362600D02*
X15105600Y26362600D01*
X18100000Y30237500D02*
X19365000Y28972500D01*
X18100000Y30237500D02*
X18925000Y31062500D01*
X18575000Y26334700D02*
X17520300Y26334700D01*
%TO.N,BIAS5*%
X18855000Y26970000D02*
X17905000Y26970000D01*
%TO.N,BUF2*%
X4093800Y23500000D02*
X4800000Y22793800D01*
X4800000Y21540000D02*
X4800000Y22793800D01*
X5340000Y21000000D02*
X4800000Y21540000D01*
%TO.N,BUF3*%
X7006300Y23500000D02*
X6977000Y23470700D01*
X6977000Y22793800D02*
X6977000Y22774000D01*
X6977000Y23470700D02*
X6977000Y22793800D01*
X9140000Y20900000D02*
X8514800Y20274800D01*
X6977000Y22793800D02*
X6300000Y22793800D01*
%TO.N,BUF4*%
X6300000Y25706300D02*
X6836700Y25706300D01*
X5800000Y25706300D02*
X6300000Y25706300D01*
X14115400Y22075400D02*
X14115400Y22978100D01*
X6836700Y25706300D02*
X6867000Y25736600D01*
X12940000Y20900000D02*
X14115400Y22075400D01*
%TO.N,BUF1*%
X5300000Y25706300D02*
X4800000Y25706300D01*
X4351500Y25706300D02*
X4316200Y25741600D01*
X1540000Y20900000D02*
X1034700Y21405300D01*
X4800000Y25706300D02*
X4351500Y25706300D01*
X1034700Y21405300D02*
X1034700Y23259800D01*
%TO.N,VDIV*%
X17156300Y25000000D02*
X17156300Y25482100D01*
X12750000Y24075000D02*
X12750000Y24016800D01*
D39*
X17156250Y24000000D02*
X17750000Y24000000D01*
D38*
X13190700Y24000000D02*
X14243800Y24000000D01*
X11753200Y23020000D02*
X10450000Y23020000D01*
X13190700Y24000000D02*
X13115700Y24075000D01*
X11275000Y25700000D02*
X11911900Y25063100D01*
X13115700Y24075000D02*
X12750000Y24075000D01*
X13190700Y24000000D02*
X13190700Y23320400D01*
D39*
X17750000Y24000000D02*
X17925000Y24000000D01*
D38*
X11911900Y25063100D02*
X11951800Y25063100D01*
X12750000Y24016800D02*
X11753200Y23020000D01*
%TO.N,SPARE_C*%
X16450100Y22793800D02*
X16450000Y22793800D01*
X17156300Y23500000D02*
X16450100Y22793800D01*
%TO.N,SPARE_D*%
X15950000Y25706300D02*
X16450000Y25706300D01*
%TO.N,BUF5*%
X18450000Y20390000D02*
X18428700Y20368700D01*
X18428700Y20368700D02*
X16558600Y20368700D01*
X14950000Y25706300D02*
X14642000Y25706300D01*
X14642000Y25706300D02*
X14462500Y25526800D01*
X15450000Y25706300D02*
X14950000Y25706300D01*
%TO.N,LP1A*%
X3540000Y17300000D02*
X2998800Y17841200D01*
X2850000Y18550000D02*
X2850000Y20610000D01*
X2983400Y18416600D02*
X2850000Y18550000D01*
D39*
X2998800Y17975900D02*
X2998800Y18401200D01*
D38*
X2560000Y20900000D02*
X3470000Y20900000D01*
D39*
X2998800Y18401200D02*
X2983400Y18416600D01*
D38*
X2850000Y20610000D02*
X2560000Y20900000D01*
X2998800Y17841200D02*
X2998800Y17975900D01*
D39*
%TO.N,LP1B*%
X3874000Y16788800D02*
X3746800Y16788800D01*
X1000000Y19800000D02*
X975000Y19800000D01*
X950000Y19025000D02*
X950000Y19000000D01*
X975000Y19800000D02*
X875000Y19700000D01*
X1803500Y20385000D02*
X1583700Y20385000D01*
X2001200Y20497700D02*
X1888500Y20385000D01*
X975000Y18975000D02*
X975000Y18350000D01*
X850000Y19275000D02*
X875000Y19250000D01*
X950000Y19000000D02*
X975000Y18975000D01*
D38*
X1441600Y20242900D02*
X989800Y19791100D01*
D39*
X3746800Y16788800D02*
X3653000Y16695000D01*
D38*
X989800Y17485200D02*
X2250000Y16225000D01*
X2737100Y16225000D02*
X3207100Y16695000D01*
X2250000Y16225000D02*
X2737100Y16225000D01*
D39*
X875000Y19250000D02*
X875000Y19225000D01*
D38*
X4560000Y17300000D02*
X4048800Y16788800D01*
X1970000Y21900000D02*
X2001200Y21900000D01*
D39*
X1000000Y18325000D02*
X1000000Y17475000D01*
X925000Y19175000D02*
X925000Y19050000D01*
X925000Y19050000D02*
X950000Y19025000D01*
X2001200Y21900000D02*
X2001200Y20497700D01*
D38*
X3207100Y16695000D02*
X3653000Y16695000D01*
D39*
X875000Y19675000D02*
X850000Y19650000D01*
X1583700Y20385000D02*
X1441600Y20242900D01*
D38*
X4048800Y16788800D02*
X3874000Y16788800D01*
D39*
X875000Y19225000D02*
X925000Y19175000D01*
X850000Y19650000D02*
X850000Y19275000D01*
X875000Y19700000D02*
X875000Y19675000D01*
X975000Y18350000D02*
X1000000Y18325000D01*
D38*
X1888500Y20385000D02*
X1803500Y20385000D01*
%TO.N,AIN1P*%
X2250000Y17775000D02*
X2250000Y17519600D01*
X2250000Y17519600D02*
X2777400Y16992200D01*
X6600000Y10550000D02*
X6834200Y10550000D01*
X6834200Y10550000D02*
X7117000Y10267200D01*
D39*
%TO.N,AIN1N*%
X6400000Y9975000D02*
X6425000Y9950000D01*
X6425000Y9950000D02*
X6825000Y9950000D01*
X6825000Y9950000D02*
X6875000Y9900000D01*
X7425000Y9850000D02*
X8025000Y9250000D01*
X6925000Y9875000D02*
X6950000Y9875000D01*
X6975000Y9850000D02*
X7425000Y9850000D01*
X6200000Y10550000D02*
X6200000Y9975000D01*
X6200000Y9975000D02*
X6400000Y9975000D01*
X2075000Y19600000D02*
X1450000Y19600000D01*
X6900000Y9900000D02*
X6925000Y9875000D01*
X6875000Y9900000D02*
X6900000Y9900000D01*
X6950000Y9875000D02*
X6975000Y9850000D01*
X1450000Y19600000D02*
X1275000Y19450000D01*
D38*
X2413000Y19262000D02*
X2075000Y19600000D01*
%TO.N,LP2A*%
X5495000Y17345000D02*
X5495000Y18609700D01*
X6523100Y19277700D02*
X6523100Y20836900D01*
X5540000Y17300000D02*
X5495000Y17345000D01*
X5495000Y18609700D02*
X5799200Y18913900D01*
X6159300Y18913900D02*
X6523100Y19277700D01*
X5799200Y18913900D02*
X6159300Y18913900D01*
X6360000Y21000000D02*
X7270000Y21000000D01*
X6523100Y20836900D02*
X6360000Y21000000D01*
%TO.N,LP2B*%
X7733100Y21563100D02*
X6818000Y21563100D01*
X6818000Y21563100D02*
X6818000Y21563000D01*
X8170000Y22000000D02*
X7733100Y21563100D01*
X7252300Y17511500D02*
X7040800Y17300000D01*
X8138800Y16625000D02*
X7252300Y17511500D01*
X7040800Y17300000D02*
X6560000Y17300000D01*
X8150000Y16625000D02*
X8138800Y16625000D01*
D39*
%TO.N,AIN2P*%
X8925000Y17325000D02*
X8875000Y17375000D01*
X8875000Y17375000D02*
X8875000Y17400000D01*
X8150000Y18125000D02*
X8150000Y18175000D01*
X7725000Y11900000D02*
X8375000Y12050000D01*
X8875000Y17400000D02*
X8150000Y18125000D01*
X7150000Y11900000D02*
X7725000Y11900000D01*
%TO.N,AIN2N*%
X7725000Y12300000D02*
X7900000Y12350000D01*
X7150000Y12300000D02*
X7725000Y12300000D01*
X5875000Y19700000D02*
X5875000Y19650000D01*
X5875000Y19650000D02*
X5400000Y19175000D01*
D38*
%TO.N,LP3A*%
X10160000Y20900000D02*
X11070000Y20900000D01*
X9140000Y19900000D02*
X10140000Y20900000D01*
X10140000Y20900000D02*
X10160000Y20900000D01*
%TO.N,LP3B*%
X10321600Y18122600D02*
X10049000Y17850000D01*
X9775000Y17576000D02*
X9775000Y17000000D01*
X14070000Y17300000D02*
X13538600Y17831400D01*
X10321600Y19738400D02*
X10321600Y19274500D01*
X11685900Y19274500D02*
X10321600Y19274500D01*
X10160000Y19900000D02*
X10321600Y19738400D01*
X10321600Y19274500D02*
X10321600Y18122600D01*
X13538600Y18155400D02*
X13217200Y18476800D01*
X13217200Y18476800D02*
X12483600Y18476800D01*
X12483600Y18476800D02*
X11685900Y19274500D01*
X13538600Y17831400D02*
X13538600Y18155400D01*
X10017300Y17818300D02*
X9775000Y17576000D01*
D39*
X10017300Y17818300D02*
X10049000Y17850000D01*
%TO.N,AIN3P*%
X4200000Y14450000D02*
X4000000Y15200000D01*
X11325000Y16366000D02*
X11129000Y16170000D01*
X11325000Y17000000D02*
X11325000Y16366000D01*
%TO.N,AIN3N*%
X3800000Y14450000D02*
X3712800Y14362800D01*
D38*
X9675000Y18600000D02*
X9021100Y17946100D01*
D39*
X3712800Y14362800D02*
X3334400Y14362800D01*
%TO.N,LP4A*%
X10850000Y20225000D02*
X10925000Y20225000D01*
X10925000Y20225000D02*
X11250000Y19900000D01*
X13950000Y21325000D02*
X14000000Y21350000D01*
D38*
X13960000Y20900000D02*
X14870000Y20900000D01*
D39*
X13950000Y20900000D02*
X13950000Y21325000D01*
D38*
%TO.N,LP4B*%
X12155700Y19900000D02*
X11545500Y20510200D01*
D39*
X13675000Y22300000D02*
X13425000Y22300000D01*
X13275000Y22425000D02*
X12750000Y22425000D01*
X13325000Y22400000D02*
X13300000Y22400000D01*
X12725000Y22400000D02*
X12700000Y22400000D01*
X13425000Y22300000D02*
X13325000Y22400000D01*
X13300000Y22400000D02*
X13275000Y22425000D01*
X12850000Y16225000D02*
X12850000Y16950000D01*
X12750000Y22425000D02*
X12725000Y22400000D01*
X12700000Y22400000D02*
X12200000Y21900000D01*
X12200000Y21900000D02*
X12075000Y21900000D01*
D38*
X12260000Y19900000D02*
X12155700Y19900000D01*
X11545500Y21375500D02*
X12070000Y21900000D01*
X11545500Y20510200D02*
X11545500Y21375500D01*
%TO.N,AIN4P*%
X11968100Y16893100D02*
X12850000Y17775000D01*
X11369500Y15751700D02*
X11968100Y16350300D01*
X5400000Y14450000D02*
X5400000Y15203900D01*
X10887400Y15751700D02*
X11369500Y15751700D01*
X11968100Y16350300D02*
X11968100Y16893100D01*
X10550200Y16088900D02*
X10887400Y15751700D01*
D39*
%TO.N,AIN4N*%
X5800000Y15025000D02*
X6000000Y15250000D01*
X13275000Y19550000D02*
X13250000Y19550000D01*
X13250000Y19550000D02*
X13125000Y19425000D01*
X13125000Y19425000D02*
X13100000Y19425000D01*
X12750000Y19200000D02*
X12675000Y19125000D01*
X13325000Y19600000D02*
X13275000Y19550000D01*
X5800000Y14450000D02*
X5800000Y15025000D01*
X13100000Y19425000D02*
X12875000Y19200000D01*
X13475000Y19600000D02*
X13325000Y19600000D01*
X12875000Y19200000D02*
X12750000Y19200000D01*
D38*
%TO.N,LP5A*%
X19674600Y20195400D02*
X19450000Y20420000D01*
X19450000Y20420000D02*
X18460000Y21410000D01*
X15845100Y17894900D02*
X15845100Y18317900D01*
X19674600Y19769800D02*
X19674600Y20195400D01*
X18460000Y21410000D02*
X18450000Y21410000D01*
X16440000Y17300000D02*
X15845100Y17894900D01*
%TO.N,LP5B*%
X18750000Y17864900D02*
X19293800Y18408700D01*
X18750000Y17625000D02*
X18750000Y17864900D01*
X18425000Y17300000D02*
X18750000Y17625000D01*
X17727000Y22400000D02*
X17516200Y22610800D01*
X18470000Y22400000D02*
X17727000Y22400000D01*
X17460000Y17300000D02*
X18425000Y17300000D01*
%TO.N,AIN5P*%
X17200000Y10550000D02*
X17200000Y10184000D01*
D39*
X17475000Y10550000D02*
X18100000Y10050000D01*
X17200000Y10550000D02*
X17475000Y10550000D01*
D38*
X18750000Y19175000D02*
X19583200Y19175000D01*
D39*
%TO.N,AIN5N*%
X17350000Y19325000D02*
X17150000Y19525000D01*
X16800000Y10550000D02*
X16800000Y9975000D01*
X17775000Y19325000D02*
X17350000Y19325000D01*
X16800000Y9975000D02*
X16400000Y9250000D01*
D38*
%TO.N,SDA*%
X7775800Y22836500D02*
X7775800Y22939100D01*
X8898600Y22538600D02*
X8073700Y22538600D01*
D39*
X3250000Y13100000D02*
X2675000Y13100000D01*
X2675000Y13100000D02*
X2375000Y13100000D01*
X13275000Y13100000D02*
X13100000Y13250000D01*
X13850000Y13100000D02*
X13275000Y13100000D01*
D38*
X9450000Y23090000D02*
X8898600Y22538600D01*
X8073700Y22538600D02*
X7775800Y22836500D01*
D39*
%TO.N,SCL*%
X11900000Y12525000D02*
X11925000Y12525000D01*
X10050000Y21800000D02*
X9825000Y21575000D01*
X10050000Y22000000D02*
X10050000Y21800000D01*
X2675000Y12700000D02*
X2225000Y12600000D01*
D38*
X13095200Y12647100D02*
X13797100Y12647100D01*
D39*
X3250000Y12700000D02*
X2675000Y12700000D01*
X12950000Y12500000D02*
X13100000Y12650000D01*
X11875000Y12550000D02*
X11900000Y12525000D01*
X11650000Y12550000D02*
X11875000Y12550000D01*
D38*
X13797100Y12647100D02*
X13850000Y12700000D01*
D39*
X11925000Y12525000D02*
X11950000Y12500000D01*
X11950000Y12500000D02*
X12950000Y12500000D01*
D38*
%TO.N,MCLK*%
X13076900Y11931000D02*
X13076900Y11896800D01*
D39*
X13076900Y11931000D02*
X13445900Y12300000D01*
X1750000Y15355000D02*
X1100000Y16475000D01*
X3250000Y12300000D02*
X2675000Y12300000D01*
X2675000Y12300000D02*
X2725000Y12300000D01*
X1750000Y14910000D02*
X1750000Y15355000D01*
D38*
X1750000Y14910000D02*
X1333500Y15326500D01*
X1333500Y15326500D02*
X1139400Y15326500D01*
D39*
X2675000Y12300000D02*
X2500000Y12300000D01*
X13445900Y12300000D02*
X13850000Y12300000D01*
D38*
%TO.N,3V3D*%
X1148800Y11652000D02*
X1516800Y12020000D01*
X10530000Y10300000D02*
X12250000Y12020000D01*
X12250000Y12020000D02*
X12793600Y11476400D01*
X15038600Y7536400D02*
X15750000Y6825000D01*
X2122500Y9547500D02*
X2534700Y9547500D01*
X13400600Y14349400D02*
X13325800Y14349400D01*
X12793600Y11476400D02*
X12793600Y10463600D01*
X13850000Y11900000D02*
X13850000Y11500000D01*
D39*
X1148800Y11099300D02*
X1040500Y10991000D01*
D38*
X1516800Y12020000D02*
X1650000Y12020000D01*
X11966400Y7536400D02*
X15038600Y7536400D01*
X10175000Y8700000D02*
X9237500Y8700000D01*
X10175000Y8700000D02*
X10175000Y10300000D01*
X1650000Y12020000D02*
X1822100Y11847900D01*
X13826400Y11476400D02*
X13850000Y11500000D01*
X10175000Y10300000D02*
X10530000Y10300000D01*
D39*
X1148800Y11652000D02*
X1148800Y11099300D01*
D38*
X10175000Y8060100D02*
X10698700Y7536400D01*
X3250000Y11900000D02*
X3250000Y11500000D01*
X3197900Y11847900D02*
X3250000Y11900000D01*
X13850000Y13900000D02*
X13400600Y14349400D01*
X9866100Y24708500D02*
X9450000Y24292400D01*
X1650000Y10020000D02*
X1040500Y10629500D01*
X11060000Y22000000D02*
X11748900Y22688900D01*
X10175000Y8700000D02*
X10175000Y8060100D01*
X1040500Y10629500D02*
X1040500Y10991000D01*
X1822100Y11847900D02*
X3197900Y11847900D01*
X12793600Y11476400D02*
X13826400Y11476400D01*
X9450000Y24292400D02*
X9450000Y24110000D01*
X1650000Y10020000D02*
X2122500Y9547500D01*
X10698700Y7536400D02*
X11966400Y7536400D01*
X12793600Y10463600D02*
X12250000Y9920000D01*
X11748900Y22688900D02*
X12215000Y22688900D01*
%TO.N,BCLK*%
X13797900Y9947900D02*
X13796300Y9947900D01*
X14400000Y10550000D02*
X13797900Y9947900D01*
X16892500Y7667500D02*
X17050000Y7510000D01*
X16375200Y7667500D02*
X16892500Y7667500D01*
X3800000Y10550000D02*
X3345900Y10550000D01*
D39*
%TO.N,WS*%
X4200000Y10550000D02*
X4200000Y10177400D01*
X4200000Y10177400D02*
X3813200Y9790600D01*
X11375000Y6225000D02*
X11350000Y6225000D01*
X11400000Y6250000D02*
X11375000Y6225000D01*
D38*
X14800000Y10550000D02*
X14800000Y10101400D01*
D39*
X11500000Y6325000D02*
X11425000Y6250000D01*
X11325000Y6200000D02*
X8500000Y6200000D01*
X11350000Y6225000D02*
X11325000Y6200000D01*
X8500000Y6200000D02*
X8200000Y5900000D01*
D38*
X14800000Y10101400D02*
X14235900Y9537300D01*
D39*
X11425000Y6250000D02*
X11400000Y6250000D01*
X11675000Y6325000D02*
X11500000Y6325000D01*
D38*
X19060000Y6600000D02*
X19576400Y7116400D01*
%TO.N,CASCADE*%
X4600000Y10110400D02*
X5253200Y9457200D01*
X10750000Y13990000D02*
X11218800Y13521200D01*
X11218800Y13521200D02*
X11218800Y13423000D01*
X4600000Y10550000D02*
X4600000Y10110400D01*
D39*
%TO.N,INT3*%
X5400000Y10550000D02*
X5400000Y9975000D01*
D38*
X5400000Y10550000D02*
X5400000Y10100900D01*
D39*
X8525000Y10300000D02*
X7950000Y10300000D01*
X5400000Y9975000D02*
X5700000Y9800000D01*
D38*
X5400000Y10100900D02*
X5784500Y9716400D01*
D39*
X7950000Y10300000D02*
X7775000Y10250000D01*
%TO.N,U3_REFP12*%
X8025000Y11175000D02*
X8375000Y11175000D01*
X8700000Y11425000D02*
X8875000Y11600000D01*
D38*
X7150000Y11100000D02*
X7870000Y11100000D01*
D39*
X7950000Y11100000D02*
X8025000Y11175000D01*
X8625000Y11425000D02*
X8700000Y11425000D01*
X8375000Y11175000D02*
X8625000Y11425000D01*
X7875000Y11100000D02*
X7950000Y11100000D01*
%TO.N,U3_REFQ12*%
X8870000Y12800000D02*
X8870000Y12315000D01*
X7725000Y11500000D02*
X8225000Y11550000D01*
X7150000Y11500000D02*
X7725000Y11500000D01*
X8870000Y12315000D02*
X8975000Y12275000D01*
D38*
%TO.N,U3_MICBIAS12*%
X7670000Y14420000D02*
X7150000Y13900000D01*
X8750000Y14420000D02*
X7670000Y14420000D01*
%TO.N,U3_REFQM*%
X6777700Y14450000D02*
X7257400Y14929700D01*
X5970000Y16100000D02*
X5999800Y16070200D01*
X6600000Y14450000D02*
X6777700Y14450000D01*
D39*
X5975000Y16325000D02*
X5750000Y16550000D01*
X5975000Y16100000D02*
X5975000Y16325000D01*
D38*
%TO.N,U3_MICBIAS34*%
X6030000Y16933700D02*
X6030000Y18240000D01*
X6445400Y16518300D02*
X6030000Y16933700D01*
X6200000Y14833100D02*
X6445400Y15078500D01*
X6030000Y18240000D02*
X5970000Y18300000D01*
X6445400Y15078500D02*
X6445400Y16518300D01*
X6200000Y14450000D02*
X6200000Y14833100D01*
D39*
%TO.N,U3_REFP34*%
X5000000Y14450000D02*
X5000000Y15025000D01*
X4800000Y15525000D02*
X4775000Y15550000D01*
X4775000Y15550000D02*
X4200000Y15550000D01*
X3225000Y15675000D02*
X3275000Y15675000D01*
X3050000Y15500000D02*
X3225000Y15675000D01*
X4200000Y15550000D02*
X4175000Y15575000D01*
X3350000Y15725000D02*
X3425000Y15725000D01*
X3675000Y15575000D02*
X3475000Y15775000D01*
X3425000Y15725000D02*
X3475000Y15775000D01*
X3275000Y15675000D02*
X3300000Y15700000D01*
X3325000Y15700000D02*
X3350000Y15725000D01*
X5000000Y15025000D02*
X5000000Y15525000D01*
X4175000Y15575000D02*
X3675000Y15575000D01*
X5000000Y15525000D02*
X4800000Y15525000D01*
X3300000Y15700000D02*
X3325000Y15700000D01*
X2825000Y15475000D02*
X2850000Y15475000D01*
X2875000Y15500000D02*
X3050000Y15500000D01*
X2850000Y15475000D02*
X2875000Y15500000D01*
D38*
X3470000Y15787400D02*
X3470000Y16100000D01*
D39*
%TO.N,U3_REFQ34*%
X4600000Y15025000D02*
X4600000Y15175000D01*
X4600000Y14450000D02*
X4600000Y15025000D01*
D38*
X3470000Y18300000D02*
X4182800Y19012800D01*
X4182800Y19012800D02*
X4338300Y19012800D01*
%TO.N,TDM_OUT*%
X12304700Y14235300D02*
X11974700Y14235300D01*
X15200000Y10550000D02*
X15200000Y9887400D01*
X15200000Y9887400D02*
X14814700Y9502100D01*
X12650000Y13890000D02*
X12304700Y14235300D01*
%TO.N,CASCADE_IN*%
X15600000Y9674400D02*
X15600000Y10550000D01*
X11515400Y15010000D02*
X11655300Y14870100D01*
X12267000Y9271300D02*
X12455000Y9083300D01*
X15008900Y9083300D02*
X15600000Y9674400D01*
X12455000Y9083300D02*
X15008900Y9083300D01*
X10750000Y15010000D02*
X11515400Y15010000D01*
D39*
%TO.N,U4_REFP12*%
X17750000Y11100000D02*
X18325000Y11100000D01*
X18325000Y11100000D02*
X19400000Y11350000D01*
X17070000Y9300000D02*
X17070000Y8815000D01*
X17070000Y8815000D02*
X17425000Y8275000D01*
%TO.N,U4_REFQ12*%
X19350000Y12300000D02*
X19350000Y12325000D01*
X17750000Y11500000D02*
X18325000Y11500000D01*
X18325000Y11500000D02*
X18275000Y11500000D01*
X19500000Y12150000D02*
X19350000Y12300000D01*
X19575000Y11925000D02*
X19500000Y12000000D01*
X19500000Y12000000D02*
X19500000Y12150000D01*
%TO.N,AIN6P*%
X8450000Y23475000D02*
X7800000Y23650000D01*
X18325000Y11900000D02*
X19025000Y11750000D01*
X17750000Y11900000D02*
X18325000Y11900000D01*
X8450000Y23020000D02*
X8450000Y23475000D01*
D38*
%TO.N,AIN6N*%
X18370000Y23400000D02*
X18076000Y23106000D01*
X18076000Y23106000D02*
X17421200Y23106000D01*
X17750000Y12300000D02*
X18515200Y12300000D01*
X17043900Y22728700D02*
X17043900Y22126500D01*
X17421200Y23106000D02*
X17043900Y22728700D01*
%TO.N,U4_MICBIAS12*%
X18270000Y14420000D02*
X17750000Y13900000D01*
X19350000Y14420000D02*
X18270000Y14420000D01*
D39*
%TO.N,U4_REFQM*%
X17200000Y14450000D02*
X17200000Y15025000D01*
X16575000Y16100000D02*
X16825000Y15850000D01*
X16825000Y15850000D02*
X16975000Y15850000D01*
X16975000Y15850000D02*
X17200000Y15625000D01*
X17200000Y15025000D02*
X17200000Y15050000D01*
X17200000Y15625000D02*
X17200000Y15050000D01*
D38*
%TO.N,U4_MICBIAS34*%
X16570000Y18300000D02*
X16964500Y17905500D01*
D39*
X16570000Y18300000D02*
X16570000Y17815000D01*
X16570000Y17815000D02*
X16825000Y17875000D01*
X16800000Y14450000D02*
X16800000Y15025000D01*
X16800000Y15025000D02*
X16800000Y15475000D01*
D38*
%TO.N,AIN8N*%
X8450000Y24920000D02*
X9117400Y24920000D01*
D39*
X16400000Y14450000D02*
X16400000Y14975000D01*
%TO.N,AIN8P*%
X16000000Y14450000D02*
X16000000Y15025000D01*
X18375000Y25400000D02*
X18325000Y25350000D01*
X18325000Y25350000D02*
X17900000Y25350000D01*
D38*
X18401100Y25400000D02*
X18370000Y25400000D01*
D39*
X16000000Y15025000D02*
X16000000Y15575000D01*
D38*
%TO.N,U4_REFP34*%
X15600000Y15206000D02*
X15600000Y14450000D01*
X14070000Y16100000D02*
X14070000Y15912800D01*
X15412800Y15393200D02*
X15600000Y15206000D01*
X14070000Y15912800D02*
X13652500Y15495300D01*
D39*
%TO.N,U4_REFQ34*%
X14925000Y15275000D02*
X15050000Y15150000D01*
D38*
X14557300Y15489200D02*
X14557300Y17812700D01*
D39*
X15100000Y15075000D02*
X15100000Y14950000D01*
D38*
X15200000Y14450000D02*
X15200000Y14846500D01*
D39*
X14775000Y15300000D02*
X14825000Y15300000D01*
X14575000Y15500000D02*
X14775000Y15300000D01*
X14550000Y15500000D02*
X14575000Y15500000D01*
X15050000Y15125000D02*
X15100000Y15075000D01*
X14850000Y15275000D02*
X14925000Y15275000D01*
D38*
X14557300Y17812700D02*
X14070000Y18300000D01*
D39*
X15050000Y15150000D02*
X15050000Y15125000D01*
X15100000Y14950000D02*
X15200000Y14850000D01*
X14825000Y15300000D02*
X14850000Y15275000D01*
%TO.N,AIN7P*%
X19000000Y25900000D02*
X19025000Y25900000D01*
X19650000Y29750000D02*
X19650000Y29775000D01*
X20300000Y26650000D02*
X20325000Y26675000D01*
X20275000Y26600000D02*
X20300000Y26625000D01*
X20075000Y25925000D02*
X20250000Y26100000D01*
X18875000Y25025000D02*
X18850000Y25050000D01*
X20275000Y26575000D02*
X20275000Y26600000D01*
X14800000Y15025000D02*
X14250000Y15200000D01*
X18875000Y24400000D02*
X18875000Y25025000D01*
X20250000Y26550000D02*
X20275000Y26575000D01*
X19650000Y29775000D02*
X19625000Y29800000D01*
X20300000Y26625000D02*
X20300000Y26650000D01*
X19050000Y25925000D02*
X20075000Y25925000D01*
X14800000Y14450000D02*
X14800000Y15025000D01*
X18850000Y25050000D02*
X18850000Y25750000D01*
X20325000Y29075000D02*
X19650000Y29750000D01*
X20250000Y26100000D02*
X20250000Y26550000D01*
X19025000Y25900000D02*
X19050000Y25925000D01*
X18850000Y25750000D02*
X19000000Y25900000D01*
X20325000Y26675000D02*
X20325000Y29075000D01*
D38*
%TO.N,AIN7N*%
X14133500Y14450000D02*
X13933200Y14650300D01*
X2401400Y23331400D02*
X2401400Y23710000D01*
X1970000Y22900000D02*
X2401400Y23331400D01*
X14400000Y14450000D02*
X14133500Y14450000D01*
%TO.N,5V_HAT*%
X10950000Y6825000D02*
X12550000Y6825000D01*
D39*
X7421200Y7258700D02*
X6962500Y6800000D01*
X577900Y8169200D02*
X577900Y7934100D01*
D38*
X13065200Y6309800D02*
X13065200Y3998300D01*
X577900Y8169200D02*
X1108700Y8700000D01*
D39*
X8222000Y7258700D02*
X7821600Y7258700D01*
D38*
X1108700Y8700000D02*
X1962500Y8700000D01*
X8575000Y7385900D02*
X10389100Y7385900D01*
X10389100Y7385900D02*
X10950000Y6825000D01*
D39*
X7821600Y7258700D02*
X7421200Y7258700D01*
X1712000Y6800000D02*
X1962500Y6800000D01*
X8447800Y7258700D02*
X8383700Y7258700D01*
D38*
X6962500Y8700000D02*
X7174400Y8700000D01*
X7174400Y8700000D02*
X7821600Y8052800D01*
X1962500Y6800000D02*
X2455800Y6306700D01*
X8383700Y7258700D02*
X8222000Y7258700D01*
X2455800Y6306700D02*
X6469200Y6306700D01*
D39*
X577900Y7934100D02*
X1712000Y6800000D01*
X8575000Y7385900D02*
X8447800Y7258700D01*
D38*
X7821600Y8052800D02*
X7821600Y7258700D01*
X6469200Y6306700D02*
X6962500Y6800000D01*
X12550000Y6825000D02*
X13065200Y6309800D01*
%TO.N,MCLK_HAT*%
X744100Y12618200D02*
X744100Y9730700D01*
D39*
X799800Y12865900D02*
X799800Y12673900D01*
X996300Y13136300D02*
X996300Y12865900D01*
D38*
X996300Y12865900D02*
X799800Y12865900D01*
X799800Y12673900D02*
X744100Y12618200D01*
X1750000Y13890000D02*
X1321000Y13461000D01*
D39*
X1321000Y13461000D02*
X996300Y13136300D01*
D38*
%TO.N,BCLK_HAT*%
X14429300Y3540100D02*
X15684700Y4795500D01*
X16935100Y6490000D02*
X17050000Y6490000D01*
X11770000Y2360000D02*
X12950100Y3540100D01*
X15684700Y5239600D02*
X16935100Y6490000D01*
X12950100Y3540100D02*
X14429300Y3540100D01*
X15684700Y4795500D02*
X15684700Y5239600D01*
D39*
%TO.N,WS_HAT*%
X18040000Y6600000D02*
X18040000Y4628900D01*
X15580000Y3630000D02*
X14310000Y2360000D01*
X17041100Y3630000D02*
X15580000Y3630000D01*
X18040000Y4628900D02*
X17041100Y3630000D01*
D38*
%TO.N,TDM_HAT*%
X12650000Y14910000D02*
X12077900Y15482100D01*
X12077900Y15482100D02*
X9957300Y15482100D01*
X9957300Y15482100D02*
X9933400Y15458200D01*
%TD*%
M02*
