%TF.GenerationSoftware,KiCad,Pcbnew,9.0.9-9.0.9~ubuntu24.04.1*%
%TF.CreationDate,2026-10-06T04:13:59+09:00*%
%TF.ProjectId,sticks3-piezo-hat,73746963-6b73-4332-9d70-69657a6f2d68,rev?*%
%TF.SameCoordinates,Original*%
%TF.FileFunction,Paste,Top*%
%TF.FilePolarity,Positive*%
%FSLAX46Y46*%
G04 Gerber Fmt 4.6, Leading zero omitted, Abs format (unit mm)*
G04 Created by KiCad (PCBNEW 9.0.9-9.0.9~ubuntu24.04.1) date 2026-10-06 04:13:59*
%MOMM*%
%LPD*%
G01*
G04 APERTURE LIST*
G04 Aperture macros list*
%AMRoundRect*
0 Rectangle with rounded corners*
0 $1 Rounding radius*
0 $2 $3 $4 $5 $6 $7 $8 $9 X,Y pos of 4 corners*
0 Add a 4 corners polygon primitive as box body*
4,1,4,$2,$3,$4,$5,$6,$7,$8,$9,$2,$3,0*
0 Add four circle primitives for the rounded corners*
1,1,$1+$1,$2,$3*
1,1,$1+$1,$4,$5*
1,1,$1+$1,$6,$7*
1,1,$1+$1,$8,$9*
0 Add four rect primitives between the rounded corners*
20,1,$1+$1,$2,$3,$4,$5,0*
20,1,$1+$1,$4,$5,$6,$7,0*
20,1,$1+$1,$6,$7,$8,$9,0*
20,1,$1+$1,$8,$9,$2,$3,0*%
%AMFreePoly0*
4,1,14,0.314644,0.085355,0.385355,0.014644,0.400000,-0.020711,0.400000,-0.050000,0.385355,-0.085355,0.350000,-0.100000,-0.350000,-0.100000,-0.385355,-0.085355,-0.400000,-0.050000,-0.400000,0.050000,-0.385355,0.085355,-0.350000,0.100000,0.279289,0.100000,0.314644,0.085355,0.314644,0.085355,$1*%
%AMFreePoly1*
4,1,14,0.385355,0.085355,0.400000,0.050000,0.400000,0.020711,0.385355,-0.014644,0.314644,-0.085355,0.279289,-0.100000,-0.350000,-0.100000,-0.385355,-0.085355,-0.400000,-0.050000,-0.400000,0.050000,-0.385355,0.085355,-0.350000,0.100000,0.350000,0.100000,0.385355,0.085355,0.385355,0.085355,$1*%
%AMFreePoly2*
4,1,14,0.085355,0.385355,0.100000,0.350000,0.100000,-0.350000,0.085355,-0.385355,0.050000,-0.400000,-0.050000,-0.400000,-0.085355,-0.385355,-0.100000,-0.350000,-0.100000,0.279289,-0.085355,0.314644,-0.014644,0.385355,0.020711,0.400000,0.050000,0.400000,0.085355,0.385355,0.085355,0.385355,$1*%
%AMFreePoly3*
4,1,14,0.014644,0.385355,0.085355,0.314644,0.100000,0.279289,0.100000,-0.350000,0.085355,-0.385355,0.050000,-0.400000,-0.050000,-0.400000,-0.085355,-0.385355,-0.100000,-0.350000,-0.100000,0.350000,-0.085355,0.385355,-0.050000,0.400000,-0.020711,0.400000,0.014644,0.385355,0.014644,0.385355,$1*%
%AMFreePoly4*
4,1,14,0.385355,0.085355,0.400000,0.050000,0.400000,-0.050000,0.385355,-0.085355,0.350000,-0.100000,-0.279289,-0.100000,-0.314644,-0.085355,-0.385355,-0.014644,-0.400000,0.020711,-0.400000,0.050000,-0.385355,0.085355,-0.350000,0.100000,0.350000,0.100000,0.385355,0.085355,0.385355,0.085355,$1*%
%AMFreePoly5*
4,1,14,0.385355,0.085355,0.400000,0.050000,0.400000,-0.050000,0.385355,-0.085355,0.350000,-0.100000,-0.350000,-0.100000,-0.385355,-0.085355,-0.400000,-0.050000,-0.400000,-0.020711,-0.385355,0.014644,-0.314644,0.085355,-0.279289,0.100000,0.350000,0.100000,0.385355,0.085355,0.385355,0.085355,$1*%
%AMFreePoly6*
4,1,14,0.085355,0.385355,0.100000,0.350000,0.100000,-0.279289,0.085355,-0.314644,0.014644,-0.385355,-0.020711,-0.400000,-0.050000,-0.400000,-0.085355,-0.385355,-0.100000,-0.350000,-0.100000,0.350000,-0.085355,0.385355,-0.050000,0.400000,0.050000,0.400000,0.085355,0.385355,0.085355,0.385355,$1*%
%AMFreePoly7*
4,1,14,0.085355,0.385355,0.100000,0.350000,0.100000,-0.350000,0.085355,-0.385355,0.050000,-0.400000,0.020711,-0.400000,-0.014644,-0.385355,-0.085355,-0.314644,-0.100000,-0.279289,-0.100000,0.350000,-0.085355,0.385355,-0.050000,0.400000,0.050000,0.400000,0.085355,0.385355,0.085355,0.385355,$1*%
G04 Aperture macros list end*
%ADD10RoundRect,0.140000X-0.140000X-0.170000X0.140000X-0.170000X0.140000X0.170000X-0.140000X0.170000X0*%
%ADD11RoundRect,0.225000X0.250000X-0.225000X0.250000X0.225000X-0.250000X0.225000X-0.250000X-0.225000X0*%
%ADD12RoundRect,0.135000X0.185000X-0.135000X0.185000X0.135000X-0.185000X0.135000X-0.185000X-0.135000X0*%
%ADD13RoundRect,0.125000X0.125000X-0.487500X0.125000X0.487500X-0.125000X0.487500X-0.125000X-0.487500X0*%
%ADD14RoundRect,0.140000X0.170000X-0.140000X0.170000X0.140000X-0.170000X0.140000X-0.170000X-0.140000X0*%
%ADD15RoundRect,0.200000X0.275000X-0.200000X0.275000X0.200000X-0.275000X0.200000X-0.275000X-0.200000X0*%
%ADD16RoundRect,0.200000X-0.200000X-0.275000X0.200000X-0.275000X0.200000X0.275000X-0.200000X0.275000X0*%
%ADD17RoundRect,0.135000X-0.135000X-0.185000X0.135000X-0.185000X0.135000X0.185000X-0.135000X0.185000X0*%
%ADD18RoundRect,0.225000X-0.225000X-0.250000X0.225000X-0.250000X0.225000X0.250000X-0.225000X0.250000X0*%
%ADD19RoundRect,0.250000X-0.425000X-0.425000X0.425000X-0.425000X0.425000X0.425000X-0.425000X0.425000X0*%
%ADD20RoundRect,0.062500X-0.356250X-0.062500X0.356250X-0.062500X0.356250X0.062500X-0.356250X0.062500X0*%
%ADD21RoundRect,0.062500X-0.062500X-0.356250X0.062500X-0.356250X0.062500X0.356250X-0.062500X0.356250X0*%
%ADD22RoundRect,0.250000X-0.285000X-0.285000X0.285000X-0.285000X0.285000X0.285000X-0.285000X0.285000X0*%
%ADD23FreePoly0,0.000000*%
%ADD24RoundRect,0.050000X-0.350000X-0.050000X0.350000X-0.050000X0.350000X0.050000X-0.350000X0.050000X0*%
%ADD25FreePoly1,0.000000*%
%ADD26FreePoly2,0.000000*%
%ADD27RoundRect,0.050000X-0.050000X-0.350000X0.050000X-0.350000X0.050000X0.350000X-0.050000X0.350000X0*%
%ADD28FreePoly3,0.000000*%
%ADD29FreePoly4,0.000000*%
%ADD30FreePoly5,0.000000*%
%ADD31FreePoly6,0.000000*%
%ADD32FreePoly7,0.000000*%
%ADD33RoundRect,0.150000X-0.512500X-0.150000X0.512500X-0.150000X0.512500X0.150000X-0.512500X0.150000X0*%
G04 APERTURE END LIST*
D10*
%TO.C,C23*%
X8870000Y11600000D03*
X9830000Y11600000D03*
%TD*%
D11*
%TO.C,C51*%
X12550000Y6825000D03*
X12550000Y8375000D03*
%TD*%
D12*
%TO.C,R24*%
X18450000Y20390000D03*
X18450000Y21410000D03*
%TD*%
D10*
%TO.C,C4*%
X1970000Y21900000D03*
X2930000Y21900000D03*
%TD*%
D11*
%TO.C,C21*%
X18750000Y17625000D03*
X18750000Y19175000D03*
%TD*%
D13*
%TO.C,D3*%
X9850000Y28362500D03*
X11150000Y28362500D03*
X10500000Y30237500D03*
%TD*%
D10*
%TO.C,C3*%
X3470000Y20900000D03*
X4430000Y20900000D03*
%TD*%
D14*
%TO.C,C19*%
X19450000Y20420000D03*
X19450000Y21380000D03*
%TD*%
D10*
%TO.C,C27*%
X5970000Y18300000D03*
X6930000Y18300000D03*
%TD*%
%TO.C,C7*%
X7270000Y21000000D03*
X8230000Y21000000D03*
%TD*%
D14*
%TO.C,C2*%
X11450000Y23520000D03*
X11450000Y24480000D03*
%TD*%
D10*
%TO.C,C42*%
X18870000Y8200000D03*
X19830000Y8200000D03*
%TD*%
D15*
%TO.C,R29*%
X12750000Y24075000D03*
X12750000Y25725000D03*
%TD*%
D11*
%TO.C,C9*%
X8150000Y16625000D03*
X8150000Y18175000D03*
%TD*%
D16*
%TO.C,R10*%
X13475000Y32100000D03*
X15125000Y32100000D03*
%TD*%
%TO.C,R1*%
X2075000Y32100000D03*
X3725000Y32100000D03*
%TD*%
D11*
%TO.C,C5*%
X2250000Y16225000D03*
X2250000Y17775000D03*
%TD*%
D10*
%TO.C,C20*%
X18470000Y22400000D03*
X19430000Y22400000D03*
%TD*%
D17*
%TO.C,R23*%
X11240000Y19900000D03*
X12260000Y19900000D03*
%TD*%
D10*
%TO.C,C34*%
X17070000Y9300000D03*
X18030000Y9300000D03*
%TD*%
D12*
%TO.C,R36*%
X10750000Y13990000D03*
X10750000Y15010000D03*
%TD*%
D18*
%TO.C,C13*%
X9775000Y17000000D03*
X11325000Y17000000D03*
%TD*%
D19*
%TO.C,U1*%
X5550000Y24250000D03*
D20*
X4093750Y25000000D03*
X4093750Y24500000D03*
X4093750Y24000000D03*
X4093750Y23500000D03*
D21*
X4800000Y22793750D03*
X5300000Y22793750D03*
X5800000Y22793750D03*
X6300000Y22793750D03*
D20*
X7006250Y23500000D03*
X7006250Y24000000D03*
X7006250Y24500000D03*
X7006250Y25000000D03*
D21*
X6300000Y25706250D03*
X5800000Y25706250D03*
X5300000Y25706250D03*
X4800000Y25706250D03*
%TD*%
D10*
%TO.C,C40*%
X14070000Y18300000D03*
X15030000Y18300000D03*
%TD*%
D17*
%TO.C,R16*%
X1540000Y20900000D03*
X2560000Y20900000D03*
%TD*%
D19*
%TO.C,U2*%
X15700000Y24250000D03*
D20*
X14243750Y25000000D03*
X14243750Y24500000D03*
X14243750Y24000000D03*
X14243750Y23500000D03*
D21*
X14950000Y22793750D03*
X15450000Y22793750D03*
X15950000Y22793750D03*
X16450000Y22793750D03*
D20*
X17156250Y23500000D03*
X17156250Y24000000D03*
X17156250Y24500000D03*
X17156250Y25000000D03*
D21*
X16450000Y25706250D03*
X15950000Y25706250D03*
X15450000Y25706250D03*
X14950000Y25706250D03*
%TD*%
D14*
%TO.C,C44*%
X12250000Y9920000D03*
X12250000Y10880000D03*
%TD*%
D22*
%TO.C,U4*%
X15140000Y13160000D03*
X15140000Y11840000D03*
X16460000Y13160000D03*
X16460000Y11840000D03*
D23*
X13850000Y13900000D03*
D24*
X13850000Y13500000D03*
X13850000Y13100000D03*
X13850000Y12700000D03*
X13850000Y12300000D03*
X13850000Y11900000D03*
X13850000Y11500000D03*
D25*
X13850000Y11100000D03*
D26*
X14400000Y10550000D03*
D27*
X14800000Y10550000D03*
X15200000Y10550000D03*
X15600000Y10550000D03*
X16000000Y10550000D03*
X16400000Y10550000D03*
X16800000Y10550000D03*
D28*
X17200000Y10550000D03*
D29*
X17750000Y11100000D03*
D24*
X17750000Y11500000D03*
X17750000Y11900000D03*
X17750000Y12300000D03*
X17750000Y12700000D03*
X17750000Y13100000D03*
X17750000Y13500000D03*
D30*
X17750000Y13900000D03*
D31*
X17200000Y14450000D03*
D27*
X16800000Y14450000D03*
X16400000Y14450000D03*
X16000000Y14450000D03*
X15600000Y14450000D03*
X15200000Y14450000D03*
X14800000Y14450000D03*
D32*
X14400000Y14450000D03*
%TD*%
D10*
%TO.C,C29*%
X3470000Y18300000D03*
X4430000Y18300000D03*
%TD*%
D14*
%TO.C,C55*%
X10450000Y23020000D03*
X10450000Y23980000D03*
%TD*%
D10*
%TO.C,C24*%
X8870000Y12800000D03*
X9830000Y12800000D03*
%TD*%
D16*
%TO.C,R7*%
X9675000Y32100000D03*
X11325000Y32100000D03*
%TD*%
D12*
%TO.C,R33*%
X17050000Y6490000D03*
X17050000Y7510000D03*
%TD*%
D17*
%TO.C,R11*%
X12945000Y26970000D03*
X13965000Y26970000D03*
%TD*%
D10*
%TO.C,C37*%
X16570000Y16100000D03*
X17530000Y16100000D03*
%TD*%
%TO.C,C41*%
X18870000Y16400000D03*
X19830000Y16400000D03*
%TD*%
%TO.C,C47*%
X18870000Y24400000D03*
X19830000Y24400000D03*
%TD*%
D17*
%TO.C,R20*%
X9140000Y20900000D03*
X10160000Y20900000D03*
%TD*%
D16*
%TO.C,R13*%
X17275000Y32100000D03*
X18925000Y32100000D03*
%TD*%
D17*
%TO.C,R3*%
X3095000Y26970000D03*
X4115000Y26970000D03*
%TD*%
D16*
%TO.C,R26*%
X8525000Y10300000D03*
X10175000Y10300000D03*
%TD*%
D17*
%TO.C,R17*%
X3540000Y17300000D03*
X4560000Y17300000D03*
%TD*%
D18*
%TO.C,C10*%
X5875000Y19700000D03*
X7425000Y19700000D03*
%TD*%
D10*
%TO.C,C1*%
X1870000Y24500000D03*
X2830000Y24500000D03*
%TD*%
D13*
%TO.C,D5*%
X17450000Y28362500D03*
X18750000Y28362500D03*
X18100000Y30237500D03*
%TD*%
D11*
%TO.C,C17*%
X12850000Y16225000D03*
X12850000Y17775000D03*
%TD*%
D16*
%TO.C,R4*%
X5875000Y32100000D03*
X7525000Y32100000D03*
%TD*%
D10*
%TO.C,C28*%
X3470000Y16100000D03*
X4430000Y16100000D03*
%TD*%
%TO.C,C38*%
X16570000Y18300000D03*
X17530000Y18300000D03*
%TD*%
%TO.C,C16*%
X12070000Y21900000D03*
X13030000Y21900000D03*
%TD*%
D17*
%TO.C,R2*%
X1125000Y26970000D03*
X2145000Y26970000D03*
%TD*%
D14*
%TO.C,C31*%
X10850000Y11520000D03*
X10850000Y12480000D03*
%TD*%
%TO.C,C33*%
X1650000Y10020000D03*
X1650000Y10980000D03*
%TD*%
D10*
%TO.C,C48*%
X1970000Y22900000D03*
X2930000Y22900000D03*
%TD*%
%TO.C,C49*%
X18370000Y25400000D03*
X19330000Y25400000D03*
%TD*%
%TO.C,C46*%
X18370000Y23400000D03*
X19330000Y23400000D03*
%TD*%
D13*
%TO.C,D1*%
X2250000Y28362500D03*
X3550000Y28362500D03*
X2900000Y30237500D03*
%TD*%
D11*
%TO.C,C22*%
X17150000Y19525000D03*
X17150000Y21075000D03*
%TD*%
D18*
%TO.C,C18*%
X13475000Y19600000D03*
X15025000Y19600000D03*
%TD*%
D14*
%TO.C,C30*%
X9750000Y13820000D03*
X9750000Y14780000D03*
%TD*%
D33*
%TO.C,U6*%
X6962500Y8700000D03*
X6962500Y7750000D03*
X6962500Y6800000D03*
X9237500Y6800000D03*
X9237500Y8700000D03*
%TD*%
D12*
%TO.C,R30*%
X9450000Y23090000D03*
X9450000Y24110000D03*
%TD*%
D13*
%TO.C,D4*%
X13650000Y28362500D03*
X14950000Y28362500D03*
X14300000Y30237500D03*
%TD*%
D17*
%TO.C,R8*%
X9005000Y26970000D03*
X10025000Y26970000D03*
%TD*%
%TO.C,R34*%
X18040000Y6600000D03*
X19060000Y6600000D03*
%TD*%
D11*
%TO.C,C52*%
X14150000Y6825000D03*
X14150000Y8375000D03*
%TD*%
D10*
%TO.C,C12*%
X14070000Y17300000D03*
X15030000Y17300000D03*
%TD*%
D17*
%TO.C,R18*%
X5340000Y21000000D03*
X6360000Y21000000D03*
%TD*%
D13*
%TO.C,D2*%
X6050000Y28362500D03*
X7350000Y28362500D03*
X6700000Y30237500D03*
%TD*%
D14*
%TO.C,C35*%
X19350000Y12320000D03*
X19350000Y13280000D03*
%TD*%
D10*
%TO.C,C39*%
X14070000Y16100000D03*
X15030000Y16100000D03*
%TD*%
D17*
%TO.C,R5*%
X5065000Y26970000D03*
X6085000Y26970000D03*
%TD*%
D11*
%TO.C,C54*%
X15750000Y6825000D03*
X15750000Y8375000D03*
%TD*%
D10*
%TO.C,C15*%
X14870000Y20900000D03*
X15830000Y20900000D03*
%TD*%
D12*
%TO.C,R35*%
X12650000Y13890000D03*
X12650000Y14910000D03*
%TD*%
D17*
%TO.C,R31*%
X10040000Y22000000D03*
X11060000Y22000000D03*
%TD*%
D10*
%TO.C,C11*%
X11070000Y20900000D03*
X12030000Y20900000D03*
%TD*%
D18*
%TO.C,C14*%
X9675000Y18600000D03*
X11225000Y18600000D03*
%TD*%
D14*
%TO.C,C25*%
X8750000Y14420000D03*
X8750000Y15380000D03*
%TD*%
%TO.C,C50*%
X8450000Y24920000D03*
X8450000Y25880000D03*
%TD*%
D17*
%TO.C,R14*%
X16885000Y26970000D03*
X17905000Y26970000D03*
%TD*%
%TO.C,R19*%
X5540000Y17300000D03*
X6560000Y17300000D03*
%TD*%
%TO.C,R22*%
X12940000Y20900000D03*
X13960000Y20900000D03*
%TD*%
D16*
%TO.C,R28*%
X9625000Y25700000D03*
X11275000Y25700000D03*
%TD*%
D17*
%TO.C,R12*%
X14915000Y26970000D03*
X15935000Y26970000D03*
%TD*%
D14*
%TO.C,C43*%
X12250000Y12020000D03*
X12250000Y12980000D03*
%TD*%
D12*
%TO.C,R32*%
X1750000Y13890000D03*
X1750000Y14910000D03*
%TD*%
D17*
%TO.C,R25*%
X16440000Y17300000D03*
X17460000Y17300000D03*
%TD*%
D33*
%TO.C,U5*%
X1962500Y8700000D03*
X1962500Y7750000D03*
X1962500Y6800000D03*
X4237500Y6800000D03*
X4237500Y8700000D03*
%TD*%
D14*
%TO.C,C36*%
X19350000Y14420000D03*
X19350000Y15380000D03*
%TD*%
D18*
%TO.C,C6*%
X2075000Y19600000D03*
X3625000Y19600000D03*
%TD*%
D17*
%TO.C,R15*%
X18855000Y26970000D03*
X19875000Y26970000D03*
%TD*%
D10*
%TO.C,C8*%
X8170000Y22000000D03*
X9130000Y22000000D03*
%TD*%
D14*
%TO.C,C32*%
X1650000Y12020000D03*
X1650000Y12980000D03*
%TD*%
D22*
%TO.C,U3*%
X4540000Y13160000D03*
X4540000Y11840000D03*
X5860000Y13160000D03*
X5860000Y11840000D03*
D23*
X3250000Y13900000D03*
D24*
X3250000Y13500000D03*
X3250000Y13100000D03*
X3250000Y12700000D03*
X3250000Y12300000D03*
X3250000Y11900000D03*
X3250000Y11500000D03*
D25*
X3250000Y11100000D03*
D26*
X3800000Y10550000D03*
D27*
X4200000Y10550000D03*
X4600000Y10550000D03*
X5000000Y10550000D03*
X5400000Y10550000D03*
X5800000Y10550000D03*
X6200000Y10550000D03*
D28*
X6600000Y10550000D03*
D29*
X7150000Y11100000D03*
D24*
X7150000Y11500000D03*
X7150000Y11900000D03*
X7150000Y12300000D03*
X7150000Y12700000D03*
X7150000Y13100000D03*
X7150000Y13500000D03*
D30*
X7150000Y13900000D03*
D31*
X6600000Y14450000D03*
D27*
X6200000Y14450000D03*
X5800000Y14450000D03*
X5400000Y14450000D03*
X5000000Y14450000D03*
X4600000Y14450000D03*
X4200000Y14450000D03*
D32*
X3800000Y14450000D03*
%TD*%
D17*
%TO.C,R9*%
X10975000Y26970000D03*
X11995000Y26970000D03*
%TD*%
D11*
%TO.C,C53*%
X10950000Y6825000D03*
X10950000Y8375000D03*
%TD*%
D10*
%TO.C,C26*%
X5970000Y16100000D03*
X6930000Y16100000D03*
%TD*%
D14*
%TO.C,C45*%
X8450000Y23020000D03*
X8450000Y23980000D03*
%TD*%
D17*
%TO.C,R6*%
X7035000Y26970000D03*
X8055000Y26970000D03*
%TD*%
%TO.C,R21*%
X9140000Y19900000D03*
X10160000Y19900000D03*
%TD*%
M02*
