%TF.GenerationSoftware,KiCad,Pcbnew,9.0.9-9.0.9~ubuntu24.04.1*%
%TF.CreationDate,2026-10-06T11:36:13+09:00*%
%TF.ProjectId,sticks3-piezo-hat,73746963-6b73-4332-9d70-69657a6f2d68,rev?*%
%TF.SameCoordinates,Original*%
%TF.FileFunction,Soldermask,Bot*%
%TF.FilePolarity,Negative*%
%FSLAX46Y46*%
G04 Gerber Fmt 4.6, Leading zero omitted, Abs format (unit mm)*
G04 Created by KiCad (PCBNEW 9.0.9-9.0.9~ubuntu24.04.1) date 2026-10-06 11:36:13*
%MOMM*%
%LPD*%
G01*
G04 APERTURE LIST*
G04 APERTURE END LIST*
G36*
X1856742Y3173399D02*
G01*
X2010687Y3109633D01*
X2149234Y3017059D01*
X2267059Y2899234D01*
X2359633Y2760687D01*
X2423399Y2606742D01*
X2455907Y2443315D01*
X2455907Y2276685D01*
X2423399Y2113258D01*
X2359633Y1959313D01*
X2267059Y1820766D01*
X2149234Y1702941D01*
X2010687Y1610367D01*
X1856742Y1546601D01*
X1693315Y1514093D01*
X1526685Y1514093D01*
X1363258Y1546601D01*
X1209313Y1610367D01*
X1070766Y1702941D01*
X952941Y1820766D01*
X860367Y1959313D01*
X796601Y2113258D01*
X764093Y2276685D01*
X764093Y2443315D01*
X796601Y2606742D01*
X860367Y2760687D01*
X952941Y2899234D01*
X1070766Y3017059D01*
X1209313Y3109633D01*
X1363258Y3173399D01*
X1526685Y3205907D01*
X1693315Y3205907D01*
X1856742Y3173399D01*
G37*
G36*
X4396742Y3173399D02*
G01*
X4550687Y3109633D01*
X4689234Y3017059D01*
X4807059Y2899234D01*
X4899633Y2760687D01*
X4963399Y2606742D01*
X4995907Y2443315D01*
X4995907Y2276685D01*
X4963399Y2113258D01*
X4899633Y1959313D01*
X4807059Y1820766D01*
X4689234Y1702941D01*
X4550687Y1610367D01*
X4396742Y1546601D01*
X4233315Y1514093D01*
X4066685Y1514093D01*
X3903258Y1546601D01*
X3749313Y1610367D01*
X3610766Y1702941D01*
X3492941Y1820766D01*
X3400367Y1959313D01*
X3336601Y2113258D01*
X3304093Y2276685D01*
X3304093Y2443315D01*
X3336601Y2606742D01*
X3400367Y2760687D01*
X3492941Y2899234D01*
X3610766Y3017059D01*
X3749313Y3109633D01*
X3903258Y3173399D01*
X4066685Y3205907D01*
X4233315Y3205907D01*
X4396742Y3173399D01*
G37*
G36*
X6936742Y3173399D02*
G01*
X7090687Y3109633D01*
X7229234Y3017059D01*
X7347059Y2899234D01*
X7439633Y2760687D01*
X7503399Y2606742D01*
X7535907Y2443315D01*
X7535907Y2276685D01*
X7503399Y2113258D01*
X7439633Y1959313D01*
X7347059Y1820766D01*
X7229234Y1702941D01*
X7090687Y1610367D01*
X6936742Y1546601D01*
X6773315Y1514093D01*
X6606685Y1514093D01*
X6443258Y1546601D01*
X6289313Y1610367D01*
X6150766Y1702941D01*
X6032941Y1820766D01*
X5940367Y1959313D01*
X5876601Y2113258D01*
X5844093Y2276685D01*
X5844093Y2443315D01*
X5876601Y2606742D01*
X5940367Y2760687D01*
X6032941Y2899234D01*
X6150766Y3017059D01*
X6289313Y3109633D01*
X6443258Y3173399D01*
X6606685Y3205907D01*
X6773315Y3205907D01*
X6936742Y3173399D01*
G37*
G36*
X9476742Y3173399D02*
G01*
X9630687Y3109633D01*
X9769234Y3017059D01*
X9887059Y2899234D01*
X9979633Y2760687D01*
X10043399Y2606742D01*
X10075907Y2443315D01*
X10075907Y2276685D01*
X10043399Y2113258D01*
X9979633Y1959313D01*
X9887059Y1820766D01*
X9769234Y1702941D01*
X9630687Y1610367D01*
X9476742Y1546601D01*
X9313315Y1514093D01*
X9146685Y1514093D01*
X8983258Y1546601D01*
X8829313Y1610367D01*
X8690766Y1702941D01*
X8572941Y1820766D01*
X8480367Y1959313D01*
X8416601Y2113258D01*
X8384093Y2276685D01*
X8384093Y2443315D01*
X8416601Y2606742D01*
X8480367Y2760687D01*
X8572941Y2899234D01*
X8690766Y3017059D01*
X8829313Y3109633D01*
X8983258Y3173399D01*
X9146685Y3205907D01*
X9313315Y3205907D01*
X9476742Y3173399D01*
G37*
G36*
X12016742Y3173399D02*
G01*
X12170687Y3109633D01*
X12309234Y3017059D01*
X12427059Y2899234D01*
X12519633Y2760687D01*
X12583399Y2606742D01*
X12615907Y2443315D01*
X12615907Y2276685D01*
X12583399Y2113258D01*
X12519633Y1959313D01*
X12427059Y1820766D01*
X12309234Y1702941D01*
X12170687Y1610367D01*
X12016742Y1546601D01*
X11853315Y1514093D01*
X11686685Y1514093D01*
X11523258Y1546601D01*
X11369313Y1610367D01*
X11230766Y1702941D01*
X11112941Y1820766D01*
X11020367Y1959313D01*
X10956601Y2113258D01*
X10924093Y2276685D01*
X10924093Y2443315D01*
X10956601Y2606742D01*
X11020367Y2760687D01*
X11112941Y2899234D01*
X11230766Y3017059D01*
X11369313Y3109633D01*
X11523258Y3173399D01*
X11686685Y3205907D01*
X11853315Y3205907D01*
X12016742Y3173399D01*
G37*
G36*
X14556742Y3173399D02*
G01*
X14710687Y3109633D01*
X14849234Y3017059D01*
X14967059Y2899234D01*
X15059633Y2760687D01*
X15123399Y2606742D01*
X15155907Y2443315D01*
X15155907Y2276685D01*
X15123399Y2113258D01*
X15059633Y1959313D01*
X14967059Y1820766D01*
X14849234Y1702941D01*
X14710687Y1610367D01*
X14556742Y1546601D01*
X14393315Y1514093D01*
X14226685Y1514093D01*
X14063258Y1546601D01*
X13909313Y1610367D01*
X13770766Y1702941D01*
X13652941Y1820766D01*
X13560367Y1959313D01*
X13496601Y2113258D01*
X13464093Y2276685D01*
X13464093Y2443315D01*
X13496601Y2606742D01*
X13560367Y2760687D01*
X13652941Y2899234D01*
X13770766Y3017059D01*
X13909313Y3109633D01*
X14063258Y3173399D01*
X14226685Y3205907D01*
X14393315Y3205907D01*
X14556742Y3173399D01*
G37*
G36*
X17096742Y3173399D02*
G01*
X17250687Y3109633D01*
X17389234Y3017059D01*
X17507059Y2899234D01*
X17599633Y2760687D01*
X17663399Y2606742D01*
X17695907Y2443315D01*
X17695907Y2276685D01*
X17663399Y2113258D01*
X17599633Y1959313D01*
X17507059Y1820766D01*
X17389234Y1702941D01*
X17250687Y1610367D01*
X17096742Y1546601D01*
X16933315Y1514093D01*
X16766685Y1514093D01*
X16603258Y1546601D01*
X16449313Y1610367D01*
X16310766Y1702941D01*
X16192941Y1820766D01*
X16100367Y1959313D01*
X16036601Y2113258D01*
X16004093Y2276685D01*
X16004093Y2443315D01*
X16036601Y2606742D01*
X16100367Y2760687D01*
X16192941Y2899234D01*
X16310766Y3017059D01*
X16449313Y3109633D01*
X16603258Y3173399D01*
X16766685Y3205907D01*
X16933315Y3205907D01*
X17096742Y3173399D01*
G37*
G36*
X19636742Y3173399D02*
G01*
X19790687Y3109633D01*
X19929234Y3017059D01*
X20047059Y2899234D01*
X20139633Y2760687D01*
X20203399Y2606742D01*
X20235907Y2443315D01*
X20235907Y2276685D01*
X20203399Y2113258D01*
X20139633Y1959313D01*
X20047059Y1820766D01*
X19929234Y1702941D01*
X19790687Y1610367D01*
X19636742Y1546601D01*
X19473315Y1514093D01*
X19306685Y1514093D01*
X19143258Y1546601D01*
X18989313Y1610367D01*
X18850766Y1702941D01*
X18732941Y1820766D01*
X18640367Y1959313D01*
X18576601Y2113258D01*
X18544093Y2276685D01*
X18544093Y2443315D01*
X18576601Y2606742D01*
X18640367Y2760687D01*
X18732941Y2899234D01*
X18850766Y3017059D01*
X18989313Y3109633D01*
X19143258Y3173399D01*
X19306685Y3205907D01*
X19473315Y3205907D01*
X19636742Y3173399D01*
G37*
G36*
X20240000Y4050000D02*
G01*
X18540000Y4050000D01*
X18540000Y5750000D01*
X20240000Y5750000D01*
X20240000Y4050000D01*
G37*
G36*
X1856742Y5713399D02*
G01*
X2010687Y5649633D01*
X2149234Y5557059D01*
X2267059Y5439234D01*
X2359633Y5300687D01*
X2423399Y5146742D01*
X2455907Y4983315D01*
X2455907Y4816685D01*
X2423399Y4653258D01*
X2359633Y4499313D01*
X2267059Y4360766D01*
X2149234Y4242941D01*
X2010687Y4150367D01*
X1856742Y4086601D01*
X1693315Y4054093D01*
X1526685Y4054093D01*
X1363258Y4086601D01*
X1209313Y4150367D01*
X1070766Y4242941D01*
X952941Y4360766D01*
X860367Y4499313D01*
X796601Y4653258D01*
X764093Y4816685D01*
X764093Y4983315D01*
X796601Y5146742D01*
X860367Y5300687D01*
X952941Y5439234D01*
X1070766Y5557059D01*
X1209313Y5649633D01*
X1363258Y5713399D01*
X1526685Y5745907D01*
X1693315Y5745907D01*
X1856742Y5713399D01*
G37*
G36*
X4396742Y5713399D02*
G01*
X4550687Y5649633D01*
X4689234Y5557059D01*
X4807059Y5439234D01*
X4899633Y5300687D01*
X4963399Y5146742D01*
X4995907Y4983315D01*
X4995907Y4816685D01*
X4963399Y4653258D01*
X4899633Y4499313D01*
X4807059Y4360766D01*
X4689234Y4242941D01*
X4550687Y4150367D01*
X4396742Y4086601D01*
X4233315Y4054093D01*
X4066685Y4054093D01*
X3903258Y4086601D01*
X3749313Y4150367D01*
X3610766Y4242941D01*
X3492941Y4360766D01*
X3400367Y4499313D01*
X3336601Y4653258D01*
X3304093Y4816685D01*
X3304093Y4983315D01*
X3336601Y5146742D01*
X3400367Y5300687D01*
X3492941Y5439234D01*
X3610766Y5557059D01*
X3749313Y5649633D01*
X3903258Y5713399D01*
X4066685Y5745907D01*
X4233315Y5745907D01*
X4396742Y5713399D01*
G37*
G36*
X6936742Y5713399D02*
G01*
X7090687Y5649633D01*
X7229234Y5557059D01*
X7347059Y5439234D01*
X7439633Y5300687D01*
X7503399Y5146742D01*
X7535907Y4983315D01*
X7535907Y4816685D01*
X7503399Y4653258D01*
X7439633Y4499313D01*
X7347059Y4360766D01*
X7229234Y4242941D01*
X7090687Y4150367D01*
X6936742Y4086601D01*
X6773315Y4054093D01*
X6606685Y4054093D01*
X6443258Y4086601D01*
X6289313Y4150367D01*
X6150766Y4242941D01*
X6032941Y4360766D01*
X5940367Y4499313D01*
X5876601Y4653258D01*
X5844093Y4816685D01*
X5844093Y4983315D01*
X5876601Y5146742D01*
X5940367Y5300687D01*
X6032941Y5439234D01*
X6150766Y5557059D01*
X6289313Y5649633D01*
X6443258Y5713399D01*
X6606685Y5745907D01*
X6773315Y5745907D01*
X6936742Y5713399D01*
G37*
G36*
X9476742Y5713399D02*
G01*
X9630687Y5649633D01*
X9769234Y5557059D01*
X9887059Y5439234D01*
X9979633Y5300687D01*
X10043399Y5146742D01*
X10075907Y4983315D01*
X10075907Y4816685D01*
X10043399Y4653258D01*
X9979633Y4499313D01*
X9887059Y4360766D01*
X9769234Y4242941D01*
X9630687Y4150367D01*
X9476742Y4086601D01*
X9313315Y4054093D01*
X9146685Y4054093D01*
X8983258Y4086601D01*
X8829313Y4150367D01*
X8690766Y4242941D01*
X8572941Y4360766D01*
X8480367Y4499313D01*
X8416601Y4653258D01*
X8384093Y4816685D01*
X8384093Y4983315D01*
X8416601Y5146742D01*
X8480367Y5300687D01*
X8572941Y5439234D01*
X8690766Y5557059D01*
X8829313Y5649633D01*
X8983258Y5713399D01*
X9146685Y5745907D01*
X9313315Y5745907D01*
X9476742Y5713399D01*
G37*
G36*
X12016742Y5713399D02*
G01*
X12170687Y5649633D01*
X12309234Y5557059D01*
X12427059Y5439234D01*
X12519633Y5300687D01*
X12583399Y5146742D01*
X12615907Y4983315D01*
X12615907Y4816685D01*
X12583399Y4653258D01*
X12519633Y4499313D01*
X12427059Y4360766D01*
X12309234Y4242941D01*
X12170687Y4150367D01*
X12016742Y4086601D01*
X11853315Y4054093D01*
X11686685Y4054093D01*
X11523258Y4086601D01*
X11369313Y4150367D01*
X11230766Y4242941D01*
X11112941Y4360766D01*
X11020367Y4499313D01*
X10956601Y4653258D01*
X10924093Y4816685D01*
X10924093Y4983315D01*
X10956601Y5146742D01*
X11020367Y5300687D01*
X11112941Y5439234D01*
X11230766Y5557059D01*
X11369313Y5649633D01*
X11523258Y5713399D01*
X11686685Y5745907D01*
X11853315Y5745907D01*
X12016742Y5713399D01*
G37*
G36*
X14556742Y5713399D02*
G01*
X14710687Y5649633D01*
X14849234Y5557059D01*
X14967059Y5439234D01*
X15059633Y5300687D01*
X15123399Y5146742D01*
X15155907Y4983315D01*
X15155907Y4816685D01*
X15123399Y4653258D01*
X15059633Y4499313D01*
X14967059Y4360766D01*
X14849234Y4242941D01*
X14710687Y4150367D01*
X14556742Y4086601D01*
X14393315Y4054093D01*
X14226685Y4054093D01*
X14063258Y4086601D01*
X13909313Y4150367D01*
X13770766Y4242941D01*
X13652941Y4360766D01*
X13560367Y4499313D01*
X13496601Y4653258D01*
X13464093Y4816685D01*
X13464093Y4983315D01*
X13496601Y5146742D01*
X13560367Y5300687D01*
X13652941Y5439234D01*
X13770766Y5557059D01*
X13909313Y5649633D01*
X14063258Y5713399D01*
X14226685Y5745907D01*
X14393315Y5745907D01*
X14556742Y5713399D01*
G37*
G36*
X17096742Y5713399D02*
G01*
X17250687Y5649633D01*
X17389234Y5557059D01*
X17507059Y5439234D01*
X17599633Y5300687D01*
X17663399Y5146742D01*
X17695907Y4983315D01*
X17695907Y4816685D01*
X17663399Y4653258D01*
X17599633Y4499313D01*
X17507059Y4360766D01*
X17389234Y4242941D01*
X17250687Y4150367D01*
X17096742Y4086601D01*
X16933315Y4054093D01*
X16766685Y4054093D01*
X16603258Y4086601D01*
X16449313Y4150367D01*
X16310766Y4242941D01*
X16192941Y4360766D01*
X16100367Y4499313D01*
X16036601Y4653258D01*
X16004093Y4816685D01*
X16004093Y4983315D01*
X16036601Y5146742D01*
X16100367Y5300687D01*
X16192941Y5439234D01*
X16310766Y5557059D01*
X16449313Y5649633D01*
X16603258Y5713399D01*
X16766685Y5745907D01*
X16933315Y5745907D01*
X17096742Y5713399D01*
G37*
G36*
X3191342Y7461940D02*
G01*
X3304381Y7396677D01*
X3396677Y7304381D01*
X3461940Y7191342D01*
X3495722Y7065263D01*
X3495722Y6934737D01*
X3461940Y6808658D01*
X3396677Y6695619D01*
X3304381Y6603323D01*
X3191342Y6538060D01*
X3065263Y6504278D01*
X2934737Y6504278D01*
X2808658Y6538060D01*
X2695619Y6603323D01*
X2603323Y6695619D01*
X2538060Y6808658D01*
X2504278Y6934737D01*
X2504278Y7065263D01*
X2538060Y7191342D01*
X2603323Y7304381D01*
X2695619Y7396677D01*
X2808658Y7461940D01*
X2934737Y7495722D01*
X3065263Y7495722D01*
X3191342Y7461940D01*
G37*
G36*
X8191342Y7461940D02*
G01*
X8304381Y7396677D01*
X8396677Y7304381D01*
X8461940Y7191342D01*
X8495722Y7065263D01*
X8495722Y6934737D01*
X8461940Y6808658D01*
X8396677Y6695619D01*
X8304381Y6603323D01*
X8191342Y6538060D01*
X8065263Y6504278D01*
X7934737Y6504278D01*
X7808658Y6538060D01*
X7695619Y6603323D01*
X7603323Y6695619D01*
X7538060Y6808658D01*
X7504278Y6934737D01*
X7504278Y7065263D01*
X7538060Y7191342D01*
X7603323Y7304381D01*
X7695619Y7396677D01*
X7808658Y7461940D01*
X7934737Y7495722D01*
X8065263Y7495722D01*
X8191342Y7461940D01*
G37*
G36*
X13191342Y7461940D02*
G01*
X13304381Y7396677D01*
X13396677Y7304381D01*
X13461940Y7191342D01*
X13495722Y7065263D01*
X13495722Y6934737D01*
X13461940Y6808658D01*
X13396677Y6695619D01*
X13304381Y6603323D01*
X13191342Y6538060D01*
X13065263Y6504278D01*
X12934737Y6504278D01*
X12808658Y6538060D01*
X12695619Y6603323D01*
X12603323Y6695619D01*
X12538060Y6808658D01*
X12504278Y6934737D01*
X12504278Y7065263D01*
X12538060Y7191342D01*
X12603323Y7304381D01*
X12695619Y7396677D01*
X12808658Y7461940D01*
X12934737Y7495722D01*
X13065263Y7495722D01*
X13191342Y7461940D01*
G37*
G36*
X18191342Y7461940D02*
G01*
X18304381Y7396677D01*
X18396677Y7304381D01*
X18461940Y7191342D01*
X18495722Y7065263D01*
X18495722Y6934737D01*
X18461940Y6808658D01*
X18396677Y6695619D01*
X18304381Y6603323D01*
X18191342Y6538060D01*
X18065263Y6504278D01*
X17934737Y6504278D01*
X17808658Y6538060D01*
X17695619Y6603323D01*
X17603323Y6695619D01*
X17538060Y6808658D01*
X17504278Y6934737D01*
X17504278Y7065263D01*
X17538060Y7191342D01*
X17603323Y7304381D01*
X17695619Y7396677D01*
X17808658Y7461940D01*
X17934737Y7495722D01*
X18065263Y7495722D01*
X18191342Y7461940D01*
G37*
G36*
X3161256Y34761246D02*
G01*
X3324257Y34693729D01*
X3470954Y34595709D01*
X3595709Y34470954D01*
X3693729Y34324257D01*
X3761246Y34161256D01*
X3795666Y33988215D01*
X3795666Y33811785D01*
X3761246Y33638744D01*
X3693729Y33475743D01*
X3595709Y33329046D01*
X3470954Y33204291D01*
X3324257Y33106271D01*
X3161256Y33038754D01*
X2988215Y33004334D01*
X2811785Y33004334D01*
X2638744Y33038754D01*
X2475743Y33106271D01*
X2329046Y33204291D01*
X2204291Y33329046D01*
X2106271Y33475743D01*
X2038754Y33638744D01*
X2004334Y33811785D01*
X2004334Y33988215D01*
X2038754Y34161256D01*
X2106271Y34324257D01*
X2204291Y34470954D01*
X2329046Y34595709D01*
X2475743Y34693729D01*
X2638744Y34761246D01*
X2811785Y34795666D01*
X2988215Y34795666D01*
X3161256Y34761246D01*
G37*
G36*
X6961256Y34761246D02*
G01*
X7124257Y34693729D01*
X7270954Y34595709D01*
X7395709Y34470954D01*
X7493729Y34324257D01*
X7561246Y34161256D01*
X7595666Y33988215D01*
X7595666Y33811785D01*
X7561246Y33638744D01*
X7493729Y33475743D01*
X7395709Y33329046D01*
X7270954Y33204291D01*
X7124257Y33106271D01*
X6961256Y33038754D01*
X6788215Y33004334D01*
X6611785Y33004334D01*
X6438744Y33038754D01*
X6275743Y33106271D01*
X6129046Y33204291D01*
X6004291Y33329046D01*
X5906271Y33475743D01*
X5838754Y33638744D01*
X5804334Y33811785D01*
X5804334Y33988215D01*
X5838754Y34161256D01*
X5906271Y34324257D01*
X6004291Y34470954D01*
X6129046Y34595709D01*
X6275743Y34693729D01*
X6438744Y34761246D01*
X6611785Y34795666D01*
X6788215Y34795666D01*
X6961256Y34761246D01*
G37*
G36*
X10761256Y34761246D02*
G01*
X10924257Y34693729D01*
X11070954Y34595709D01*
X11195709Y34470954D01*
X11293729Y34324257D01*
X11361246Y34161256D01*
X11395666Y33988215D01*
X11395666Y33811785D01*
X11361246Y33638744D01*
X11293729Y33475743D01*
X11195709Y33329046D01*
X11070954Y33204291D01*
X10924257Y33106271D01*
X10761256Y33038754D01*
X10588215Y33004334D01*
X10411785Y33004334D01*
X10238744Y33038754D01*
X10075743Y33106271D01*
X9929046Y33204291D01*
X9804291Y33329046D01*
X9706271Y33475743D01*
X9638754Y33638744D01*
X9604334Y33811785D01*
X9604334Y33988215D01*
X9638754Y34161256D01*
X9706271Y34324257D01*
X9804291Y34470954D01*
X9929046Y34595709D01*
X10075743Y34693729D01*
X10238744Y34761246D01*
X10411785Y34795666D01*
X10588215Y34795666D01*
X10761256Y34761246D01*
G37*
G36*
X14561256Y34761246D02*
G01*
X14724257Y34693729D01*
X14870954Y34595709D01*
X14995709Y34470954D01*
X15093729Y34324257D01*
X15161246Y34161256D01*
X15195666Y33988215D01*
X15195666Y33811785D01*
X15161246Y33638744D01*
X15093729Y33475743D01*
X14995709Y33329046D01*
X14870954Y33204291D01*
X14724257Y33106271D01*
X14561256Y33038754D01*
X14388215Y33004334D01*
X14211785Y33004334D01*
X14038744Y33038754D01*
X13875743Y33106271D01*
X13729046Y33204291D01*
X13604291Y33329046D01*
X13506271Y33475743D01*
X13438754Y33638744D01*
X13404334Y33811785D01*
X13404334Y33988215D01*
X13438754Y34161256D01*
X13506271Y34324257D01*
X13604291Y34470954D01*
X13729046Y34595709D01*
X13875743Y34693729D01*
X14038744Y34761246D01*
X14211785Y34795666D01*
X14388215Y34795666D01*
X14561256Y34761246D01*
G37*
G36*
X18361256Y34761246D02*
G01*
X18524257Y34693729D01*
X18670954Y34595709D01*
X18795709Y34470954D01*
X18893729Y34324257D01*
X18961246Y34161256D01*
X18995666Y33988215D01*
X18995666Y33811785D01*
X18961246Y33638744D01*
X18893729Y33475743D01*
X18795709Y33329046D01*
X18670954Y33204291D01*
X18524257Y33106271D01*
X18361256Y33038754D01*
X18188215Y33004334D01*
X18011785Y33004334D01*
X17838744Y33038754D01*
X17675743Y33106271D01*
X17529046Y33204291D01*
X17404291Y33329046D01*
X17306271Y33475743D01*
X17238754Y33638744D01*
X17204334Y33811785D01*
X17204334Y33988215D01*
X17238754Y34161256D01*
X17306271Y34324257D01*
X17404291Y34470954D01*
X17529046Y34595709D01*
X17675743Y34693729D01*
X17838744Y34761246D01*
X18011785Y34795666D01*
X18188215Y34795666D01*
X18361256Y34761246D01*
G37*
G36*
X3161256Y37261246D02*
G01*
X3324257Y37193729D01*
X3470954Y37095709D01*
X3595709Y36970954D01*
X3693729Y36824257D01*
X3761246Y36661256D01*
X3795666Y36488215D01*
X3795666Y36311785D01*
X3761246Y36138744D01*
X3693729Y35975743D01*
X3595709Y35829046D01*
X3470954Y35704291D01*
X3324257Y35606271D01*
X3161256Y35538754D01*
X2988215Y35504334D01*
X2811785Y35504334D01*
X2638744Y35538754D01*
X2475743Y35606271D01*
X2329046Y35704291D01*
X2204291Y35829046D01*
X2106271Y35975743D01*
X2038754Y36138744D01*
X2004334Y36311785D01*
X2004334Y36488215D01*
X2038754Y36661256D01*
X2106271Y36824257D01*
X2204291Y36970954D01*
X2329046Y37095709D01*
X2475743Y37193729D01*
X2638744Y37261246D01*
X2811785Y37295666D01*
X2988215Y37295666D01*
X3161256Y37261246D01*
G37*
G36*
X6961256Y37261246D02*
G01*
X7124257Y37193729D01*
X7270954Y37095709D01*
X7395709Y36970954D01*
X7493729Y36824257D01*
X7561246Y36661256D01*
X7595666Y36488215D01*
X7595666Y36311785D01*
X7561246Y36138744D01*
X7493729Y35975743D01*
X7395709Y35829046D01*
X7270954Y35704291D01*
X7124257Y35606271D01*
X6961256Y35538754D01*
X6788215Y35504334D01*
X6611785Y35504334D01*
X6438744Y35538754D01*
X6275743Y35606271D01*
X6129046Y35704291D01*
X6004291Y35829046D01*
X5906271Y35975743D01*
X5838754Y36138744D01*
X5804334Y36311785D01*
X5804334Y36488215D01*
X5838754Y36661256D01*
X5906271Y36824257D01*
X6004291Y36970954D01*
X6129046Y37095709D01*
X6275743Y37193729D01*
X6438744Y37261246D01*
X6611785Y37295666D01*
X6788215Y37295666D01*
X6961256Y37261246D01*
G37*
G36*
X10761256Y37261246D02*
G01*
X10924257Y37193729D01*
X11070954Y37095709D01*
X11195709Y36970954D01*
X11293729Y36824257D01*
X11361246Y36661256D01*
X11395666Y36488215D01*
X11395666Y36311785D01*
X11361246Y36138744D01*
X11293729Y35975743D01*
X11195709Y35829046D01*
X11070954Y35704291D01*
X10924257Y35606271D01*
X10761256Y35538754D01*
X10588215Y35504334D01*
X10411785Y35504334D01*
X10238744Y35538754D01*
X10075743Y35606271D01*
X9929046Y35704291D01*
X9804291Y35829046D01*
X9706271Y35975743D01*
X9638754Y36138744D01*
X9604334Y36311785D01*
X9604334Y36488215D01*
X9638754Y36661256D01*
X9706271Y36824257D01*
X9804291Y36970954D01*
X9929046Y37095709D01*
X10075743Y37193729D01*
X10238744Y37261246D01*
X10411785Y37295666D01*
X10588215Y37295666D01*
X10761256Y37261246D01*
G37*
G36*
X14561256Y37261246D02*
G01*
X14724257Y37193729D01*
X14870954Y37095709D01*
X14995709Y36970954D01*
X15093729Y36824257D01*
X15161246Y36661256D01*
X15195666Y36488215D01*
X15195666Y36311785D01*
X15161246Y36138744D01*
X15093729Y35975743D01*
X14995709Y35829046D01*
X14870954Y35704291D01*
X14724257Y35606271D01*
X14561256Y35538754D01*
X14388215Y35504334D01*
X14211785Y35504334D01*
X14038744Y35538754D01*
X13875743Y35606271D01*
X13729046Y35704291D01*
X13604291Y35829046D01*
X13506271Y35975743D01*
X13438754Y36138744D01*
X13404334Y36311785D01*
X13404334Y36488215D01*
X13438754Y36661256D01*
X13506271Y36824257D01*
X13604291Y36970954D01*
X13729046Y37095709D01*
X13875743Y37193729D01*
X14038744Y37261246D01*
X14211785Y37295666D01*
X14388215Y37295666D01*
X14561256Y37261246D01*
G37*
G36*
X18361256Y37261246D02*
G01*
X18524257Y37193729D01*
X18670954Y37095709D01*
X18795709Y36970954D01*
X18893729Y36824257D01*
X18961246Y36661256D01*
X18995666Y36488215D01*
X18995666Y36311785D01*
X18961246Y36138744D01*
X18893729Y35975743D01*
X18795709Y35829046D01*
X18670954Y35704291D01*
X18524257Y35606271D01*
X18361256Y35538754D01*
X18188215Y35504334D01*
X18011785Y35504334D01*
X17838744Y35538754D01*
X17675743Y35606271D01*
X17529046Y35704291D01*
X17404291Y35829046D01*
X17306271Y35975743D01*
X17238754Y36138744D01*
X17204334Y36311785D01*
X17204334Y36488215D01*
X17238754Y36661256D01*
X17306271Y36824257D01*
X17404291Y36970954D01*
X17529046Y37095709D01*
X17675743Y37193729D01*
X17838744Y37261246D01*
X18011785Y37295666D01*
X18188215Y37295666D01*
X18361256Y37261246D01*
G37*
M02*
