M48
; DRILL file {KiCad 9.0.9-9.0.9~ubuntu24.04.1} date 2026-10-06T04:14:00+0900
; FORMAT={-:-/ absolute / metric / decimal}
; #@! TF.CreationDate,2026-10-06T04:14:00+09:00
; #@! TF.GenerationSoftware,Kicad,Pcbnew,9.0.9-9.0.9~ubuntu24.04.1
; #@! TF.FileFunction,Plated,1,4,PTH
FMAT,2
METRIC
; #@! TA.AperFunction,Plated,PTH,ViaDrill
T1C0.200
; #@! TA.AperFunction,Plated,PTH,ComponentDrill
T2C0.800
; #@! TA.AperFunction,Plated,PTH,ComponentDrill
T3C1.020
%
G90
G05
T1
X0.744Y9.731
X0.8Y16.95
X1.035Y23.26
X1.1Y16.475
X1.139Y15.326
X1.275Y19.45
X1.275Y9.325
X2.032Y6.137
X2.225Y12.6
X2.375Y13.1
X2.401Y23.71
X2.491Y25.701
X2.535Y9.547
X2.725Y12.3
X2.777Y16.992
X2.825Y15.475
X2.998Y7.856
X3.172Y5.886
X3.334Y14.363
X3.346Y10.55
X3.701Y22.835
X3.813Y9.791
X4.0Y15.2
X4.024Y26.281
X4.237Y9.357
X4.316Y25.742
X4.322Y27.651
X4.338Y19.013
X4.6Y15.175
X4.8Y18.6
X4.939Y27.652
X5.0Y20.375
X5.175Y7.2
X5.253Y9.457
X5.4Y19.175
X5.4Y15.204
X5.7Y9.8
X5.75Y16.55
X6.0Y15.25
X6.575Y18.7
X6.7Y28.417
X6.75Y22.2
X6.818Y21.563
X6.867Y25.737
X6.925Y16.675
X6.977Y22.774
X7.117Y10.267
X7.252Y17.511
X7.257Y14.93
X7.55Y24.1
X7.564Y25.865
X7.775Y10.25
X7.776Y22.939
X7.8Y23.65
X7.9Y14.025
X7.9Y12.35
X8.025Y9.25
X8.055Y27.647
X8.075Y19.025
X8.15Y12.9
X8.2Y5.9
X8.225Y11.55
X8.375Y12.05
X8.515Y20.275
X8.925Y17.325
X8.975Y16.525
X8.975Y12.275
X9.005Y27.685
X9.021Y17.946
X9.117Y24.92
X9.25Y9.655
X9.3Y13.6
X9.825Y21.575
X9.866Y24.708
X9.874Y30.341
X9.933Y15.458
X10.5Y13.35
X10.55Y16.089
X10.85Y20.225
X11.129Y16.17
X11.2Y12.075
X11.219Y13.423
X11.65Y12.55
X11.655Y14.87
X11.675Y6.325
X11.725Y10.525
X11.775Y17.875
X11.952Y25.063
X11.966Y7.536
X11.975Y14.235
X12.023Y27.851
X12.215Y22.689
X12.267Y9.271
X12.675Y19.125
X12.85Y16.95
X12.945Y27.651
X13.065Y3.998
X13.077Y11.897
X13.095Y12.647
X13.1Y13.25
X13.191Y23.32
X13.325Y9.55
X13.326Y14.349
X13.475Y22.875
X13.652Y15.495
X13.669Y30.332
X13.675Y22.3
X13.796Y9.948
X13.9Y6.025
X13.933Y14.65
X14.0Y21.35
X14.115Y22.978
X14.236Y9.537
X14.25Y19.05
X14.25Y15.2
X14.462Y25.527
X14.815Y9.502
X14.925Y7.95
X15.413Y15.393
X15.418Y6.016
X15.45Y16.075
X15.55Y27.875
X15.669Y21.899
X15.7Y20.2
X15.8Y7.775
X15.845Y18.318
X15.906Y16.548
X16.0Y15.575
X16.0Y9.8
X16.375Y7.667
X16.4Y14.975
X16.4Y9.25
X16.559Y20.369
X16.8Y15.475
X16.825Y17.875
X17.044Y22.127
X17.075Y16.65
X17.156Y25.482
X17.425Y8.275
X17.516Y22.611
X17.7Y24.5
X17.775Y19.325
X17.9Y25.35
X17.925Y24.0
X18.1Y10.05
X18.225Y8.3
X18.275Y11.5
X18.515Y12.3
X18.525Y14.025
X18.9Y13.5
X19.025Y11.75
X19.294Y18.409
X19.4Y11.35
X19.575Y11.925
X19.576Y7.116
X19.583Y19.175
X19.625Y29.8
X19.675Y19.77
X19.875Y28.91
X19.95Y23.2
X20.225Y8.2
T2
X2.9Y36.4
X2.9Y33.9
X6.7Y36.4
X6.7Y33.9
X10.5Y36.4
X10.5Y33.9
X14.3Y36.4
X14.3Y33.9
X18.1Y36.4
X18.1Y33.9
T3
X1.61Y4.9
X1.61Y2.36
X4.15Y4.9
X4.15Y2.36
X6.69Y4.9
X6.69Y2.36
X9.23Y4.9
X9.23Y2.36
X11.77Y4.9
X11.77Y2.36
X14.31Y4.9
X14.31Y2.36
X16.85Y4.9
X16.85Y2.36
X19.39Y4.9
X19.39Y2.36
M30
