%TF.GenerationSoftware,KiCad,Pcbnew,9.0.9-9.0.9~ubuntu24.04.1*%
%TF.CreationDate,2026-10-06T11:36:13+09:00*%
%TF.ProjectId,sticks3-piezo-hat,73746963-6b73-4332-9d70-69657a6f2d68,rev?*%
%TF.SameCoordinates,Original*%
%TF.FileFunction,Legend,Bot*%
%TF.FilePolarity,Positive*%
%FSLAX46Y46*%
G04 Gerber Fmt 4.6, Leading zero omitted, Abs format (unit mm)*
G04 Created by KiCad (PCBNEW 9.0.9-9.0.9~ubuntu24.04.1) date 2026-10-06 11:36:13*
%MOMM*%
%LPD*%
G01*
G04 APERTURE LIST*
%ADD10C,0.150000*%
G04 APERTURE END LIST*
D10*
X2614285Y31745181D02*
X3185713Y31745181D01*
X2899999Y31745181D02*
X2899999Y32745181D01*
X2899999Y32745181D02*
X2995237Y32602324D01*
X2995237Y32602324D02*
X3090475Y32507086D01*
X3090475Y32507086D02*
X3185713Y32459467D01*
X6985713Y32649943D02*
X6938094Y32697562D01*
X6938094Y32697562D02*
X6842856Y32745181D01*
X6842856Y32745181D02*
X6604761Y32745181D01*
X6604761Y32745181D02*
X6509523Y32697562D01*
X6509523Y32697562D02*
X6461904Y32649943D01*
X6461904Y32649943D02*
X6414285Y32554705D01*
X6414285Y32554705D02*
X6414285Y32459467D01*
X6414285Y32459467D02*
X6461904Y32316610D01*
X6461904Y32316610D02*
X7033332Y31745181D01*
X7033332Y31745181D02*
X6414285Y31745181D01*
X10833332Y32745181D02*
X10214285Y32745181D01*
X10214285Y32745181D02*
X10547618Y32364229D01*
X10547618Y32364229D02*
X10404761Y32364229D01*
X10404761Y32364229D02*
X10309523Y32316610D01*
X10309523Y32316610D02*
X10261904Y32268991D01*
X10261904Y32268991D02*
X10214285Y32173753D01*
X10214285Y32173753D02*
X10214285Y31935658D01*
X10214285Y31935658D02*
X10261904Y31840420D01*
X10261904Y31840420D02*
X10309523Y31792800D01*
X10309523Y31792800D02*
X10404761Y31745181D01*
X10404761Y31745181D02*
X10690475Y31745181D01*
X10690475Y31745181D02*
X10785713Y31792800D01*
X10785713Y31792800D02*
X10833332Y31840420D01*
X14109523Y32411848D02*
X14109523Y31745181D01*
X14347618Y32792800D02*
X14585713Y32078515D01*
X14585713Y32078515D02*
X13966666Y32078515D01*
X17861903Y32745181D02*
X18338093Y32745181D01*
X18338093Y32745181D02*
X18385712Y32268991D01*
X18385712Y32268991D02*
X18338093Y32316610D01*
X18338093Y32316610D02*
X18242855Y32364229D01*
X18242855Y32364229D02*
X18004760Y32364229D01*
X18004760Y32364229D02*
X17909522Y32316610D01*
X17909522Y32316610D02*
X17861903Y32268991D01*
X17861903Y32268991D02*
X17814284Y32173753D01*
X17814284Y32173753D02*
X17814284Y31935658D01*
X17814284Y31935658D02*
X17861903Y31840420D01*
X17861903Y31840420D02*
X17909522Y31792800D01*
X17909522Y31792800D02*
X18004760Y31745181D01*
X18004760Y31745181D02*
X18242855Y31745181D01*
X18242855Y31745181D02*
X18338093Y31792800D01*
X18338093Y31792800D02*
X18385712Y31840420D01*
M02*
